<svg xmlns="http://www.w3.org/2000/svg" width="16" height="17" viewBox="0 0 16 17" fill="none">
  <path d="M15.3619 10.4844C15.1499 10.4844 14.9764 10.6577 14.9764 10.8696L14.986 15.1325C14.986 15.3444 14.8125 15.5178 14.6005 15.5178L1.44964 15.512C1.23759 15.512 1.0641 15.3386 1.0641 15.1267L1.07373 10.8889C1.07373 10.677 0.900241 10.5036 0.688193 10.5036H0.385542C0.173494 10.5036 0 10.677 0 10.8889V16.1111C0 16.323 0.0462651 16.4963 0.102169 16.4963C0.158072 16.4963 0.377831 16.4982 0.58988 16.4982H0.68241C0.894458 16.5002 1.24145 16.5002 1.45349 16.5002L14.5889 16.4867H15.7725C15.8978 16.4867 16 16.3133 16 16.1014V10.8696C16 10.6577 15.8265 10.4844 15.6145 10.4844H15.3619Z" fill="white"/>
  <path d="M12.6435 6.35207C12.7939 6.20182 13.0387 6.20182 13.1891 6.35207L13.3953 6.55818C13.5457 6.70843 13.5457 6.95307 13.3953 7.10332L8.27341 12.2195C8.12304 12.3698 7.87822 12.3698 7.72786 12.2195L2.60594 7.10717C2.45557 6.95692 2.45557 6.71228 2.60594 6.56203L2.8122 6.35592C2.96256 6.20567 3.20738 6.20567 3.35774 6.35592L7.20353 10.1989C7.35389 10.3491 7.47533 10.2971 7.47533 10.0852V0.885258C7.47533 0.673366 7.64883 0.5 7.86087 0.5H8.15196C8.36401 0.5 8.5375 0.673366 8.5375 0.885258V10.0698C8.5375 10.2817 8.66087 10.3318 8.80931 10.1835L12.6435 6.35207Z" fill="white"/>
</svg>