<svg xmlns="http://www.w3.org/2000/svg" width="68" height="68" viewBox="0 0 68 68" fill="none">
  <g clip-path="url(#clip0_104_1369)">
    <path
      d="M18.7215 11.6431C23 11.0004 26.5 10.5004 31.1752 10.0346C31.2944 10.0227 31.4045 9.9768 31.4819 10.0301C31.5569 10.0816 31.5411 10.1922 31.5526 10.3009C32 14.5004 32.402 17.6524 32.6985 21.2527C32.7122 21.4099 32.7805 21.4235 32.8967 21.4235C33.546 21.4235 34.1955 21.4332 34.8446 21.4577C34.9403 21.4577 34.9745 21.4372 34.9882 21.3347C35.4239 17.6433 35.9305 13.9541 36.3004 10.2556C36.3141 10.1531 36.3414 10.1326 36.4439 10.1394C40.4005 10.5823 44.3958 11.047 48.4047 11.4722C48.5619 11.4859 48.5551 11.52 48.4799 11.6362C47.4547 13.2629 46.5252 14.9374 45.7255 16.6871C44.6661 19.004 43.8528 21.3962 43.388 23.9045C43.1556 25.1485 43.0189 26.4129 42.9779 27.6773C42.8481 31.4022 43.5931 34.9563 45.0352 38.3736C46.0467 40.7658 47.359 42.9939 48.8695 45.099C48.945 45.2054 48.9825 45.2583 48.9693 45.2899C48.9561 45.3212 48.8929 45.3315 48.7669 45.3519C44.5288 45.9973 40.2641 46.4969 36.0407 47.2314C35.9518 47.2451 35.9245 47.2314 35.9108 47.1357C35.5419 43.3081 34.9806 39.5013 34.6738 35.6671C34.6669 35.5851 34.6464 35.5441 34.5507 35.5441C33.8604 35.5577 33.1769 35.5646 32.4866 35.5714C32.4115 35.5714 32.3841 35.5987 32.3773 35.6739C31.9775 39.4717 31.5544 43.2676 31.1744 47.0674C31.1629 47.188 31.1032 47.1783 31.0398 47.1681C27.0177 46.5317 22.9853 45.9483 18.9539 45.3724C18.7762 45.345 18.7762 45.345 18.8719 45.2015C20.0201 43.4587 21.0453 41.6475 21.9133 39.7474C22.8565 37.6765 23.5878 35.5304 24.0389 33.3023C24.3055 31.9968 24.4627 30.6709 24.5174 29.3381C24.572 28.06 24.5242 26.782 24.3738 25.5107C24.1346 23.4671 23.6357 21.4919 22.9249 19.5645C21.8997 16.7964 20.4849 14.2334 18.8035 11.8071L18.7215 11.6841V11.6431Z"
      fill="white" />
    <path
      d="M60.2631 27.3356C60.1606 27.3629 60.1469 27.4244 60.1401 27.5064C60.1128 28.0666 60.0854 28.6276 60.0512 29.1878C60.0444 29.3108 60.0786 29.3587 60.1879 29.3928C62.1951 30.055 64.2022 30.7241 66.2094 31.3932L66.2161 31.3954C66.4122 31.4599 66.6073 31.5253 66.8023 31.5907L66.8033 31.591C67.1446 31.7055 67.4858 31.8199 67.8291 31.9285C67.918 31.9558 67.9522 31.9763 67.8975 32.0789C66.9475 33.9653 65.7514 35.6808 64.2887 37.1981C62.0811 39.4877 59.4429 41.1485 56.5382 42.4061C54.8295 43.1443 53.0661 43.7321 51.2754 44.231C51.1798 44.2583 51.1387 44.2378 51.0909 44.1626C49.4164 41.5723 47.8444 38.9273 46.6688 36.0635C45.999 34.43 45.4864 32.7555 45.2267 31.0127C44.9807 29.3587 44.967 27.7047 45.1994 26.0506C45.5343 23.6312 46.3408 21.3552 47.3728 19.1476C48.4049 16.9263 49.6488 14.8212 50.9542 12.7571C51.0089 12.6683 51.0567 12.6614 51.1524 12.6888C53.4352 13.3244 55.6633 14.1104 57.7958 15.1629C60.0034 16.2565 62.0196 17.6234 63.783 19.3458C65.4848 21.0135 66.8518 22.9203 67.9453 25.0323C67.959 25.0733 67.9727 25.1143 68 25.169C65.4183 25.8812 62.8433 26.618 60.2631 27.3356Z"
      fill="white" />
    <path fill-rule="evenodd" clip-rule="evenodd"
      d="M22.3167 28.1899C22.3167 31.7235 21.5853 34.7171 20.3004 37.5808C19.3094 39.7884 18.0245 41.8183 16.5687 43.7389C16.5003 43.8277 16.432 43.8277 16.3431 43.8209C14.7506 43.6569 13.1991 43.2946 11.7092 42.7137C7.62201 41.1212 4.30717 38.5377 1.84667 34.8948C1.2042 33.9447 0.67793 32.9264 0.247343 31.8602C0.192665 31.7303 0.213169 31.6893 0.349864 31.6551C2.71468 31.0195 5.07949 30.377 7.43747 29.7346C7.54683 29.7072 7.58783 29.6662 7.59467 29.55C7.63568 28.9964 7.68352 28.436 7.7382 27.8824C7.75187 27.7593 7.71769 27.7183 7.60834 27.6773C5.10271 26.8062 2.59617 25.9139 0.0901441 25.0596C-0.00554196 25.0254 -0.0192114 24.9913 0.0217969 24.9024C0.896641 23.0024 2.04487 21.2868 3.50067 19.7764C5.26403 17.9378 7.33495 16.5299 9.59041 15.3748C11.7297 14.2744 13.9715 13.4269 16.2406 12.6409C16.3377 12.6045 16.3755 12.6489 16.4211 12.7024C16.4268 12.7092 16.4327 12.7161 16.4388 12.723C17.505 14.1856 18.4824 15.7097 19.3367 17.3159C20.3551 19.2433 21.1684 21.2458 21.6947 23.3646C22.0911 25.0801 22.3235 26.8093 22.3167 28.1899ZM12.7549 25.8524C14.6139 25.8729 16.1381 24.3966 16.1791 22.5513C16.2269 20.5692 14.6549 19.0929 12.8096 19.0587C11.2581 19.0314 9.24184 20.2821 9.39904 22.7631C9.49472 24.3146 10.8138 25.8251 12.7549 25.8524ZM16.1791 34.3685C16.1791 32.489 14.6823 30.9648 12.8301 30.9648C10.9095 30.9648 9.37853 32.4684 9.38537 34.3617C9.3922 36.2344 10.9163 37.7585 12.7891 37.7585C14.6618 37.7585 16.1791 36.2412 16.1791 34.3685Z"
      fill="white" />
    <path fill-rule="evenodd" clip-rule="evenodd"
      d="M47.783 55.5592C47.6326 55.8873 47.3729 55.9898 47.0448 55.9693C46.7441 55.9556 46.4434 55.9967 46.1495 55.9351C45.6164 55.819 45.1379 55.3064 45.1243 54.7596C45.1038 53.9872 45.1038 53.2149 45.1243 52.4494C45.1448 51.807 45.7736 51.2602 46.4365 51.2534C46.8398 51.2534 47.243 51.2465 47.6531 51.2534C47.7556 51.2534 47.7966 51.226 47.7898 51.1167C47.783 50.7613 47.7898 50.4059 47.783 50.0504C47.783 49.9411 47.8103 49.9001 47.9265 49.9001C48.2751 49.9069 48.6236 49.9069 48.9791 49.9001C49.1157 49.8932 49.1499 49.9343 49.1499 50.0709C49.1416 51.9876 49.1116 53.9094 49.1499 55.8258C49.1499 55.942 49.1157 55.9693 49.0064 55.9693C48.6441 55.9625 48.2819 55.9625 47.9265 55.9693C47.8171 55.9693 47.7761 55.942 47.7898 55.8326C47.7898 55.7932 47.7882 55.7506 47.7866 55.7064C47.7848 55.6586 47.783 55.6089 47.783 55.5592ZM47.783 52.0804C47.783 51.9847 47.7625 51.9437 47.6531 51.9505C47.4823 51.9573 47.3114 51.9505 47.1473 51.9505C46.7509 51.9505 46.4639 52.2239 46.4639 52.6271C46.457 53.2833 46.457 53.9394 46.4639 54.5955C46.4707 54.9851 46.7646 55.2858 47.1268 55.279C47.4959 55.2722 47.7761 54.9783 47.7761 54.5819C47.7903 53.7482 47.783 52.9141 47.783 52.0804Z"
      fill="white" />
    <path
      d="M28.9873 50.0709C28.9873 51.9869 28.9942 53.903 28.9804 55.8189C28.9804 55.9283 29.0078 55.9693 29.1239 55.9693C29.4794 55.9625 29.8416 55.9556 30.2038 55.9693C30.3337 55.9693 30.3542 55.9283 30.3542 55.8121C30.3474 55.0193 30.3542 54.2264 30.3474 53.4336C30.3474 53.3173 30.3996 53.2812 30.5113 53.2834C30.8506 53.2902 31.1835 53.2968 31.5229 53.2832C31.6528 53.2764 31.6733 53.3243 31.6733 53.4405C31.6665 54.2333 31.6733 55.0261 31.6665 55.8189C31.6665 55.9351 31.6938 55.9693 31.81 55.9693C32.1654 55.9625 32.5276 55.9625 32.8899 55.9693C32.9924 55.9761 33.0334 55.9556 33.0334 55.8394V50.0368C33.0334 49.9411 33.0061 49.9069 32.9035 49.9069C32.5481 49.9137 32.1927 49.9137 31.8373 49.9069C31.7006 49.9001 31.6665 49.9411 31.6665 50.0778C31.6699 50.4674 31.6699 50.8586 31.6699 51.2499C31.6699 51.6412 31.6699 52.0325 31.6733 52.4221C31.6733 52.5519 31.6528 52.5998 31.5093 52.5929C31.1812 52.5793 30.8531 52.5861 30.5251 52.5929C30.3952 52.5998 30.3542 52.5724 30.3542 52.4289C30.3576 52.0325 30.3576 51.6361 30.3576 51.2397C30.3576 50.8433 30.3576 50.4469 30.361 50.0504C30.361 49.9342 30.3337 49.9069 30.2175 49.9069C29.8621 49.9137 29.5067 49.9137 29.1513 49.9069C29.0146 49.9001 28.9873 49.9479 28.9873 50.0709Z"
      fill="white" />
    <path fill-rule="evenodd" clip-rule="evenodd"
      d="M18.4893 52.9825C18.4775 52.9786 18.4681 52.9725 18.4532 52.9629C18.442 52.9556 18.4277 52.9464 18.4072 52.9347C18.4961 52.9142 18.5576 52.9005 18.6259 52.8868C19.1317 52.7501 19.4803 52.4631 19.576 51.9231C19.6068 51.7538 19.6029 51.5806 19.599 51.4093C19.5977 51.3525 19.5965 51.2959 19.5965 51.2397C19.5965 50.5425 19.0087 49.9274 18.3116 49.9206C17.4293 49.9069 16.5522 49.9205 15.6733 49.9137C15.5777 49.9137 15.5572 49.9479 15.5572 50.0368V55.8258C15.5572 55.8941 15.523 55.983 15.6665 55.983C16.5413 55.9761 17.4162 55.983 18.291 55.9761C18.7558 55.9761 19.1112 55.7506 19.3709 55.3747C19.6853 54.9168 19.6443 54.4042 19.5418 53.9052C19.4256 53.3311 19.0634 53.044 18.4893 52.9825ZM17.0403 55.279C16.9378 55.2858 16.9241 55.2448 16.9241 55.156V53.4131C16.9241 53.3106 16.9514 53.2764 17.054 53.2833C17.2453 53.2969 17.4436 53.2833 17.6417 53.2901C18.0245 53.3038 18.2295 53.5088 18.2432 53.8847C18.25 54.1308 18.25 54.3836 18.2432 54.6365C18.2295 54.9783 17.9561 55.2585 17.6144 55.2722C17.423 55.279 17.2317 55.2722 17.0403 55.279ZM17.0403 52.5929C16.9378 52.5998 16.9241 52.5588 16.9241 52.4699V50.7339C16.9241 50.6314 16.9514 50.5972 17.054 50.604C17.2317 50.6109 17.4162 50.5972 17.5939 50.604C17.9561 50.6109 18.2364 50.8843 18.2432 51.2465C18.25 51.4789 18.25 51.7044 18.2432 51.9368C18.2364 52.2922 17.9698 52.5724 17.6144 52.5861C17.4231 52.593 17.2316 52.5861 17.0403 52.5929Z"
      fill="white" />
    <path fill-rule="evenodd" clip-rule="evenodd"
      d="M26.2877 55.5524C26.1441 55.8805 25.8844 55.9898 25.5563 55.9693C25.452 55.9646 25.3476 55.9664 25.2435 55.9683C25.048 55.9718 24.8526 55.9752 24.661 55.9351C24.08 55.8121 23.629 55.2585 23.6221 54.6639V52.5793C23.6221 51.8616 24.2099 51.2602 24.9275 51.2534C25.7967 51.2465 26.6642 51.2534 27.5384 51.2465C27.6409 51.2465 27.6683 51.2739 27.6683 51.3764C27.6683 53.1124 27.6751 54.8527 27.6614 56.5913C27.6546 57.4183 27.0668 57.9924 26.233 57.9924C25.8177 57.9924 25.4035 57.9993 24.9891 57.9924C24.2783 57.9856 23.8408 57.637 23.6768 56.9535C23.6016 56.6255 23.6016 56.6255 23.9297 56.6255C24.0401 56.6255 24.1865 56.5854 24.2851 56.6391C24.3415 56.6651 24.3456 56.7242 24.3498 56.7849C24.3522 56.8198 24.3546 56.8552 24.3671 56.8852C24.4491 57.1107 24.5927 57.2542 24.8387 57.2816C25.1463 57.3158 25.447 57.3226 25.7545 57.2816C26.0553 57.2406 26.2877 57.0014 26.3013 56.6938C26.3013 56.3179 26.2877 55.9351 26.2877 55.5524ZM26.2945 52.0804C26.2945 51.9847 26.274 51.9437 26.1646 51.9505C25.9804 51.9573 25.7952 51.9505 25.6042 51.9505C25.2624 51.9573 24.9754 52.2307 24.9686 52.5725C24.9617 53.2628 24.9617 53.9462 24.9686 54.6366C24.9686 54.9851 25.283 55.279 25.6247 55.279C26.0006 55.279 26.274 54.9851 26.2808 54.5682C26.3229 53.7412 26.2945 52.908 26.2945 52.0804Z"
      fill="white" />
    <path
      d="M41.0984 51.6566C41.2624 51.3149 41.5427 51.2397 41.8776 51.2534C42.1168 51.267 42.3628 51.2465 42.5952 51.2739C43.265 51.349 43.7639 51.9231 43.7639 52.593V55.8258C43.7639 55.942 43.7435 55.983 43.6136 55.983C43.2582 55.9693 42.9028 55.9761 42.5474 55.983C42.4312 55.983 42.4038 55.9556 42.4038 55.8394C42.4107 54.7801 42.4107 53.7207 42.4038 52.6545C42.4038 52.2375 42.1168 51.9505 41.7204 51.9573C41.3923 51.9642 41.0916 52.209 41.0916 52.5451C41.0916 54.0004 41.0847 54.7471 41.0847 55.8258C41.0847 55.9488 41.0506 55.983 40.9275 55.9761C40.5585 55.9693 40.1962 55.9693 39.8272 55.9761C39.7315 55.9761 39.711 55.9488 39.711 55.8599V51.3832C39.711 51.2807 39.7383 51.2534 39.8408 51.2534C40.2099 51.2602 40.5858 51.2602 40.9549 51.2534C41.0574 51.2534 41.0916 51.2875 41.0847 51.39C41.0916 51.4721 41.0984 51.5677 41.0984 51.6566Z"
      fill="white" />
    <path fill-rule="evenodd" clip-rule="evenodd"
      d="M37.0455 55.5319C36.9156 55.8531 36.6764 55.9761 36.362 55.9761C36.0409 55.9693 35.7195 56.0103 35.3983 55.942C34.7558 55.7984 34.2979 55.156 34.3663 54.4998C34.4346 53.8095 35.0156 53.2764 35.699 53.2764H36.9156C37.0181 53.2764 37.0592 53.2627 37.0523 53.1466C37.0386 52.9757 37.0523 52.7979 37.0523 52.6203C37.0455 52.2307 36.7721 51.9505 36.3757 51.9505H35.7059C35.3641 51.9573 35.1454 52.1282 35.0907 52.4631C35.0702 52.5929 35.0156 52.6203 34.8994 52.6134C34.749 52.6066 34.6055 52.6134 34.4551 52.6134C34.4001 52.6138 34.3548 52.6069 34.3663 52.5383C34.4414 52.1008 34.5713 51.6976 34.9677 51.4379C35.1318 51.3354 35.3163 51.2738 35.5077 51.267C36.0886 51.2397 36.6764 51.2192 37.2574 51.2738C37.8656 51.3285 38.3782 51.889 38.3919 52.5041C38.4056 53.6248 38.3987 54.746 38.3987 55.8668C38.3987 55.9556 38.3646 55.9761 38.2826 55.9693C37.9067 55.9693 37.5307 55.9625 37.148 55.9693C37.066 55.9693 37.0318 55.9488 37.0386 55.8599C37.0455 55.7575 37.0455 55.6412 37.0455 55.5319ZM37.0455 54.1034C37.0523 54.0009 37.0318 53.9599 36.9156 53.9667C36.7379 53.9804 36.5534 53.9667 36.3757 53.9667C36.0476 53.9736 35.7537 54.2333 35.7332 54.5408C35.7059 54.8962 35.9383 55.2106 36.2732 55.2722C36.6012 55.3268 36.9225 55.1218 37.0181 54.8006C37.0818 54.5776 37.0279 54.3317 37.0455 54.1034Z"
      fill="white" />
    <path
      d="M51.8632 55.279H54.4262C54.5014 55.279 54.5356 55.3063 54.5287 55.3815C54.5287 55.5004 54.5287 55.5004 54.5287 55.8258C54.5287 55.9761 54.4877 55.9761 54.3715 55.9761C53.1094 55.9679 51.8472 55.9761 50.5851 55.9761C50.5031 55.9761 50.4689 55.9556 50.4689 55.8668C50.4757 55.7027 50.4757 55.5387 50.4689 55.3747C50.4689 55.2927 50.5099 55.2448 50.5577 55.1901C51.4131 54.1209 52.2992 53.0733 53.1208 51.9778C53.069 51.9468 53.0212 51.951 52.9772 51.9549C52 51.9549 51.4072 51.9504 50.6261 51.9573C50.5031 51.9573 50.4621 51.9231 50.4689 51.8001C50.4826 51.6634 50.4757 51.5267 50.4689 51.39C50.4621 51.2807 50.5031 51.2533 50.6124 51.2533C51.8674 51.2692 53.1233 51.2533 54.3784 51.2533C54.4945 51.2533 54.515 51.2875 54.5287 51.3969C54.5697 51.7728 54.4467 52.0598 54.2006 52.3537C53.403 53.3137 52.5904 54.2635 51.8632 55.279Z"
      fill="white" />
    <path
      d="M20.9293 53.625C20.9293 53.4405 20.9297 53.2559 20.9301 53.0714C20.9314 52.5178 20.9327 51.9642 20.9224 51.4106C20.9224 51.2739 20.9634 51.2465 21.0865 51.2534C21.4419 51.2602 21.7973 51.2602 22.1527 51.2534C22.2415 51.2534 22.2894 51.2602 22.2894 51.3764C22.2825 52.8732 22.2825 54.37 22.2894 55.8668C22.2894 55.9693 22.2552 55.983 22.1663 55.9761C21.7973 55.9693 21.435 55.9693 21.0659 55.9761C20.9566 55.9761 20.9224 55.9556 20.9224 55.8326C20.9293 55.1013 20.9293 54.3631 20.9293 53.625Z"
      fill="white" />
    <path
      d="M22.1869 50.6041H21.0523C20.9634 50.6041 20.9224 50.5904 20.9293 50.4879C20.9361 50.3307 20.9361 50.1735 20.9293 50.0094C20.9293 49.9206 20.9566 49.9001 21.0455 49.9001C21.4214 49.9069 21.7973 49.9001 22.1732 49.9001C22.2552 49.9001 22.2962 49.9137 22.2894 50.0094C22.2825 50.1735 22.2825 50.3375 22.2894 50.5015C22.2894 50.5835 22.262 50.6041 22.1869 50.6041Z"
      fill="white" />
  </g>
  <defs>
    <clipPath id="clip0_104_1369">
      <rect width="68" height="68" fill="white" />
    </clipPath>
  </defs>
</svg>