<svg xmlns="http://www.w3.org/2000/svg" width="46" height="40" viewBox="0 0 46 40" fill="none">
    <path
        d="M13.0072 1.51383C13.9668 0.476218 15.3922 -0.0883635 16.7918 0.0112965C17.9231 0.0790081 19.0225 0.57397 19.8305 1.37888C20.8851 2.44844 21.9416 3.51656 22.9953 4.5866C24.0123 3.56377 25.0227 2.53427 26.0363 1.5081C26.4571 1.07704 26.9432 0.706532 27.4891 0.453806C28.3804 0.030847 29.4021 -0.0979005 30.3701 0.079008C31.2713 0.241611 32.1259 0.672676 32.7895 1.31308C36.727 5.30281 40.6645 9.29303 44.6026 13.2823C45.5729 14.2427 46.0812 15.6474 45.9894 17.0155C45.9198 18.26 45.3452 19.4574 44.4369 20.2962L34.9524 29.9064C33.3881 31.5001 31.8073 33.076 30.2416 34.6677L26.5484 38.41C26.1314 38.8568 25.6471 39.2435 25.0984 39.5105C23.6673 40.2286 21.8828 40.1528 20.5199 39.3079C19.9129 38.955 19.4493 38.4166 18.9566 37.9255L1.52547 20.2633C1.24499 19.9881 0.986632 19.6877 0.77486 19.3544C0.139547 18.3783 -0.117873 17.1609 0.0501325 16.0055C0.189901 14.9984 0.655327 14.0419 1.35888 13.3166C5.24182 9.38268 9.12429 5.44777 13.0072 1.51383ZM14.7254 2.92003C10.7789 6.91836 6.8334 10.9172 2.88692 14.915C2.51091 15.3146 2.27279 15.8429 2.20926 16.3904C2.11325 17.1476 2.36785 17.9439 2.88834 18.4966C8.99817 24.6884 15.1089 30.8792 21.2192 37.071C21.6884 37.5273 22.3365 37.7824 22.9859 37.7834C23.6466 37.7858 24.3083 37.5254 24.7812 37.0548C25.2368 36.5908 25.6947 36.1292 26.1512 35.6657C26.6665 35.1436 27.1823 34.621 27.6976 34.0984C28.4802 33.3059 29.2628 32.5129 30.0454 31.7199C30.5607 31.1973 31.077 30.6756 31.5918 30.1525C32.3749 29.36 33.1575 28.567 33.9396 27.7735C34.4578 27.2495 34.975 26.725 35.4922 26.1999C35.8376 25.8519 36.1811 25.5014 36.5265 25.1533C37.0795 24.6078 37.3595 23.7962 37.2724 23.0204C37.2108 22.4119 36.9317 21.8259 36.4908 21.4067C33.4827 18.3602 30.4765 15.3122 27.4684 12.2657C25.9606 13.7224 24.4485 15.1754 22.9351 16.6259C21.9299 17.3779 20.6583 17.7899 19.4065 17.6788C18.4403 17.6006 17.5137 17.2329 16.7019 16.7075C15.9673 16.2325 15.3141 15.6346 14.7442 14.9684C14.5456 14.7224 14.3089 14.4773 14.2562 14.1506C14.1762 13.7801 14.3117 13.382 14.5781 13.1202C16.8652 10.7984 19.1575 8.4824 21.4442 6.16018C20.3802 5.08394 19.318 4.00676 18.2554 2.92957C17.7867 2.47323 17.1382 2.22051 16.4902 2.22003C15.8431 2.21812 15.1951 2.46751 14.7254 2.92003ZM27.5639 3.10791C23.9869 6.73286 20.4084 10.3573 16.8313 13.9833C17.526 14.6542 18.35 15.2512 19.3119 15.4314C20.0917 15.5854 20.9096 15.3513 21.552 14.895C23.2104 13.3009 24.8683 11.7068 26.5253 10.1118C26.6731 9.9773 26.8044 9.8166 26.9874 9.72934C27.3912 9.51095 27.9263 9.5882 28.2529 9.9134C31.5405 13.2432 34.8267 16.5744 38.1139 19.9047C38.7468 20.557 39.1887 21.3953 39.3746 22.2903C40.538 21.1111 41.7018 19.9323 42.8656 18.7531C43.0721 18.5481 43.2745 18.334 43.4256 18.0817C43.9023 17.3126 43.9362 16.2902 43.5159 15.4882C43.3103 15.0633 42.9526 14.751 42.6307 14.42C38.8659 10.6058 35.1016 6.79104 31.3372 2.97678C31.0191 2.66302 30.6247 2.42698 30.1951 2.31206C29.2595 2.04074 28.2053 2.37262 27.5639 3.10791Z"
        fill="#0E1B47" />
    <path
        d="M29.3636 22.0511C29.5495 21.6739 29.9613 21.424 30.3787 21.4479C30.6723 21.4498 30.9495 21.5919 31.1523 21.8026C32.5999 23.2675 34.0451 24.7343 35.4922 26.1991C34.975 26.7241 34.4579 27.2486 33.9397 27.7727C32.4771 26.2926 31.0163 24.8101 29.5537 23.33C29.2299 23.0024 29.1513 22.4607 29.3636 22.0511ZM25.4336 26.0756C25.5639 25.7547 25.851 25.5024 26.1861 25.4242C26.5329 25.3384 26.9249 25.4309 27.1838 25.6846C28.653 27.1738 30.1227 28.6625 31.5919 30.1517C31.077 30.6748 30.5608 31.1964 30.0455 31.719C28.5819 30.2375 27.1198 28.755 25.6571 27.273C25.3545 26.9664 25.2656 26.4728 25.4336 26.0756ZM22.1441 29.4178C22.5347 29.2557 23.0161 29.3482 23.313 29.6543C24.7738 31.1363 26.2364 32.6165 27.6977 34.0975C27.1823 34.6201 26.6666 35.1428 26.1513 35.6649C24.6896 34.1848 23.2288 32.7028 21.7666 31.2231C21.5572 31.0143 21.4466 30.7129 21.4556 30.4168C21.4622 29.9838 21.7459 29.5728 22.1441 29.4178Z"
        fill="#597BE5" />
</svg>