<svg xmlns="http://www.w3.org/2000/svg" width="42" height="40" viewBox="0 0 42 40" fill="none">
    <path
        d="M1.43207 1.79592C2.32015 0.815827 3.5777 0.175305 4.89889 0.0326008C5.23275 -0.0107286 5.56994 0.0043424 5.90617 0.00198754H35.5423C36.2233 0.010465 36.9129 -0.0408709 37.5834 0.107956C39.2005 0.425392 40.6404 1.50863 41.3855 2.96676C41.8149 3.7806 42.0205 4.70465 41.9977 5.62163V27.0005C42.0067 27.511 41.9934 28.0258 41.8813 28.5264C41.5508 30.156 40.4153 31.5943 38.9099 32.3206C38.2032 32.6649 37.421 32.8565 36.6336 32.8759H22.0991C22.0986 34.5205 22.0991 36.1646 22.0991 37.8093C26.3262 37.8088 30.5529 37.8102 34.7796 37.8088C35.0289 37.8013 35.2911 37.8262 35.5076 37.96C35.9365 38.1931 36.1563 38.7352 36.0191 39.1996C35.9008 39.6564 35.4511 40.0101 34.9714 39.9998C25.6471 39.9988 16.3223 39.9993 6.99751 39.9993C6.37443 40.0012 5.85298 39.3819 5.94939 38.7743C6.00068 38.2383 6.50123 37.8032 7.04215 37.8107C11.3249 37.8074 15.6076 37.8102 19.8908 37.8093V32.8759H5.61885C4.86992 32.8928 4.11815 32.7525 3.42621 32.4699C2.11689 31.9433 1.0322 30.8935 0.468009 29.6092C0.149347 28.8947 -0.0116468 28.1106 0.00402513 27.3292C0.00450004 20.1078 0.00402513 12.8864 0.00402513 5.66543C-0.051539 4.25581 0.470384 2.83536 1.43207 1.79592ZM5.29829 2.19672C4.38362 2.25606 3.50457 2.71526 2.93705 3.42925C2.49159 3.97794 2.23087 4.67309 2.21234 5.37814C2.21187 12.7437 2.21282 20.1087 2.21234 27.4738C2.22659 28.4167 2.68488 29.3388 3.42051 29.9342C3.98137 30.3967 4.70038 30.6679 5.42984 30.6858C15.7994 30.6863 26.169 30.6854 36.5386 30.6863C37.3042 30.6745 38.0617 30.3835 38.6382 29.8842C39.1706 29.4326 39.5481 28.8076 39.7053 28.1313C39.8364 27.5915 39.7751 27.0334 39.7894 26.4848C39.7894 19.4668 39.7889 12.4488 39.7894 5.43088C39.7804 4.73385 39.5363 4.0434 39.1107 3.48907C38.5955 2.81416 37.809 2.34837 36.9642 2.22545C36.6493 2.1727 36.3297 2.19766 36.0124 2.19201C25.7744 2.19483 15.5363 2.18589 5.29829 2.19672Z"
        fill="#0E1B47" />
    <path
        d="M15.3727 8.04696C15.489 8.01117 15.6106 7.99656 15.7322 7.99609C19.2797 7.99704 22.8273 7.99609 26.3744 7.99657C26.7472 7.99044 27.1185 8.17977 27.3199 8.4925C27.4177 8.63426 27.4609 8.80287 27.5132 8.96441C28.5893 12.3385 29.6645 15.7125 30.7411 19.0865C30.8504 19.4049 30.8204 19.7756 30.6291 20.0582C30.4942 20.2696 30.2757 20.4043 30.0782 20.5513C27.2867 22.6174 24.4961 24.6845 21.7041 26.7497C21.3299 27.0333 20.7733 27.0356 20.3962 26.7568C17.5036 24.6167 14.6119 22.4752 11.7201 20.3346C11.3554 20.0699 11.1958 19.5674 11.3331 19.1417C12.4306 15.696 13.53 12.2513 14.6285 8.8057C14.7258 8.44964 15.0141 8.14963 15.3727 8.04696ZM16.5082 10.1866C15.565 13.1396 14.6237 16.0935 13.682 19.0475C16.1354 20.8659 18.5902 22.682 21.045 24.4985C23.5007 22.6824 25.9569 20.8664 28.4093 19.0456C27.4681 16.093 26.5235 13.1415 25.586 10.1875C22.5599 10.1852 19.5343 10.1875 16.5082 10.1866Z"
        fill="#0E1B47" />
    <path
        d="M18.5072 13.7014C18.6701 13.6533 18.842 13.6472 19.0111 13.6486C20.4211 13.651 21.8311 13.6463 23.2411 13.651C23.5559 13.6505 23.8713 13.7795 24.0788 14.0174C24.3353 14.2863 24.4131 14.6895 24.322 15.0427C24.2028 15.4929 23.763 15.8462 23.289 15.8396C21.7988 15.8386 20.3085 15.8386 18.8183 15.84C18.4412 15.849 18.0755 15.6319 17.8846 15.3126C17.7141 15.0286 17.6813 14.6687 17.8015 14.3603C17.9145 14.0452 18.1876 13.8007 18.5072 13.7014Z"
        fill="#597BE5" />
</svg>