<svg xmlns="http://www.w3.org/2000/svg" width="37" height="44" viewBox="0 0 37 44" fill="none">
    <path
        d="M6.68413 0.173402C7.94648 0.161683 9.20929 0.171527 10.4716 0.168245C11.014 0.171058 11.4987 0.647777 11.5113 1.18965C11.5127 3.23575 11.5109 5.28184 11.5123 7.32793C11.5123 7.73809 11.2469 8.12856 10.8724 8.29262C8.1457 9.58028 5.74241 11.5448 3.93445 13.9584C3.69913 14.2889 3.27773 14.4759 2.8746 14.4065C2.37117 14.3418 1.9596 13.882 1.9507 13.3743C1.94741 10.6411 1.9507 7.90731 1.94882 5.17403C1.95445 4.07621 2.32663 2.98309 3.00398 2.11778C3.87491 0.980589 5.25257 0.249808 6.68413 0.173402ZM4.7496 3.43356C4.34788 3.93606 4.12851 4.57731 4.12851 5.2195C4.12945 6.95153 4.12851 8.68356 4.12898 10.4151C5.64913 8.88606 7.41492 7.60215 9.33257 6.61825C9.33117 5.19512 9.33257 3.77153 9.3321 2.3484C8.53898 2.347 7.74538 2.34887 6.95226 2.34746C6.10335 2.35075 5.27273 2.76746 4.7496 3.43356ZM14.6107 0.17387C17.246 0.161214 19.8818 0.171995 22.5171 0.168245C22.7988 0.17762 23.0955 0.127933 23.3604 0.251683C23.7682 0.414339 24.0349 0.844183 24.026 1.27965C24.0293 2.76465 24.0265 4.24918 24.0274 5.73418C24.034 6.03606 23.9454 6.35153 23.7274 6.5695C23.4663 6.86059 23.0402 6.97684 22.6638 6.88215C20.1494 6.352 17.5254 6.35059 15.0115 6.88356C14.568 6.997 14.0632 6.80434 13.8246 6.41012C13.683 6.19871 13.6427 5.93856 13.6554 5.68871C13.6573 4.2984 13.6559 2.90809 13.6563 1.51778C13.6573 1.31528 13.6394 1.10621 13.7102 0.912621C13.8316 0.517933 14.2001 0.215589 14.6107 0.17387ZM15.8365 2.34793C15.836 3.07215 15.8355 3.7959 15.8365 4.52012C17.8268 4.23231 19.8579 4.23043 21.8477 4.52246C21.8482 3.79778 21.8477 3.07309 21.8477 2.3484C19.8438 2.34746 17.8399 2.34793 15.8365 2.34793ZM27.1221 0.172933C28.3521 0.162152 29.583 0.171996 30.813 0.167777C31.8016 0.186058 32.7818 0.509496 33.5885 1.0809C34.8766 1.97903 35.7054 3.50528 35.7232 5.07934C35.7223 7.75168 35.7227 10.424 35.7227 13.0964C35.7199 13.2684 35.7377 13.4442 35.6909 13.612C35.6023 13.9584 35.3299 14.2532 34.9882 14.3611C34.6605 14.4759 34.279 14.4201 33.9991 14.2148C33.8051 14.0826 33.6893 13.8726 33.5426 13.6954C31.7637 11.4098 29.4471 9.54559 26.8305 8.3034C26.4279 8.13746 26.1509 7.71934 26.1602 7.28293C26.1612 5.26684 26.1588 3.25028 26.1616 1.23418C26.1602 0.704964 26.5957 0.223089 27.1221 0.172933ZM28.3399 2.34793C28.3394 3.76918 28.3409 5.18996 28.339 6.61075C30.2538 7.59981 32.0177 8.88043 33.5426 10.4039C33.544 8.69199 33.5421 6.98012 33.5435 5.26778C33.5646 4.60918 33.3382 3.94825 32.9276 3.43356C32.4049 2.76418 31.5696 2.34887 30.7193 2.347C29.9262 2.34887 29.133 2.347 28.3399 2.34793ZM18.5909 7.76809C22.2884 7.70481 25.9962 8.82184 29.0379 10.927C31.8105 12.8292 34.0357 15.5207 35.3716 18.6075C36.4887 21.1692 36.9846 23.9957 36.828 26.7848C36.6963 29.2425 36.0527 31.6725 34.9441 33.8704C33.4038 36.9464 30.9579 39.5578 27.9954 41.3048C26.4274 42.2325 24.7165 42.9178 22.9423 43.3312C20.2418 43.9584 17.3965 43.9565 14.6974 43.3223C11.7152 42.6262 8.92382 41.1417 6.66866 39.0707C4.29491 36.9009 2.5146 34.0851 1.58929 31.0036C0.900696 28.7329 0.677102 26.3259 0.912415 23.9662C1.13273 21.7392 1.77632 19.5553 2.79913 17.5654C4.16038 14.9067 6.1957 12.5976 8.66132 10.912C11.5629 8.91184 15.0668 7.80465 18.5909 7.76809ZM17.6215 9.99184C15.5412 10.1503 13.4918 10.7231 11.636 11.6779C9.39116 12.8222 7.43132 14.5167 5.96366 16.5637C4.68773 18.3375 3.78632 20.3798 3.3396 22.5187C2.86992 24.7542 2.89101 27.0904 3.39866 29.3175C4.17398 32.7539 6.14976 35.8992 8.89429 38.1051C11.3805 40.125 14.4944 41.3582 17.6913 41.5781C20.4935 41.7843 23.3482 41.2307 25.8644 39.9787C27.9035 38.9671 29.719 37.5098 31.1505 35.7403C32.7588 33.7612 33.8773 31.3861 34.3708 28.8839C34.9751 25.8637 34.6788 22.6682 33.5116 19.8164C32.2413 16.6795 29.9304 13.9795 27.034 12.2311C24.2337 10.522 20.8901 9.7345 17.6215 9.99184Z"
        fill="#0E1B47" />
    <path
        d="M17.5655 17.5217C18.039 17.0033 18.7744 16.7426 19.4691 16.8453C20.0733 16.9217 20.634 17.2714 20.9757 17.7748C21.1041 17.9525 21.1852 18.1573 21.279 18.3537C21.7697 19.3967 22.2577 20.4406 22.749 21.4831C23.9438 21.6664 25.1396 21.8473 26.3344 22.032C27.1557 22.1703 27.8579 22.8219 28.059 23.6295C28.2497 24.3486 28.0468 25.1605 27.5255 25.6944C26.6508 26.5972 25.7686 27.493 24.8935 28.3953C25.0782 29.5311 25.2638 30.6664 25.449 31.8022C25.4841 32.0501 25.5455 32.2958 25.5404 32.548C25.553 33.3017 25.1363 34.0456 24.4866 34.4276C23.8285 34.8312 22.9557 34.8462 22.2849 34.4647C21.2494 33.89 20.2093 33.3228 19.1771 32.743C18.2705 33.2342 17.3715 33.74 16.4677 34.2359C16.1991 34.3798 15.9408 34.5495 15.6474 34.6405C15.0193 34.8416 14.3026 34.7389 13.7569 34.3672C13.0772 33.9186 12.7004 33.0683 12.8161 32.263C13.0233 30.972 13.2385 29.682 13.4457 28.3911C12.6647 27.5956 11.8871 26.7969 11.1094 25.9981C10.9065 25.7937 10.6936 25.5936 10.5427 25.3456C10.261 24.8975 10.1504 24.3444 10.2408 23.8226C10.3505 23.1219 10.8286 22.4919 11.476 22.1998C11.8374 22.0217 12.2452 22.0016 12.6357 21.935C13.6233 21.7798 14.6133 21.6406 15.5991 21.4761C16.0313 20.532 16.4808 19.5959 16.9186 18.6547C17.1113 18.2651 17.2561 17.8391 17.5655 17.5217ZM19.1691 19.0344C18.4754 20.5128 17.7765 21.9889 17.0897 23.4706C15.5349 23.7176 13.9768 23.9483 12.4205 24.1873C13.5376 25.3503 14.6719 26.4969 15.7946 27.6542C15.5194 29.2822 15.2644 30.9134 14.9921 32.5419C16.3857 31.7712 17.7779 30.9987 19.1733 30.2319C20.5622 31.0034 21.954 31.7703 23.3447 32.5391C23.0776 30.9111 22.8179 29.2817 22.5451 27.6551C23.6677 26.4969 24.8002 25.3489 25.9205 24.1887C24.3661 23.9516 22.8122 23.7125 21.2574 23.4767C20.5594 21.9969 19.869 20.5137 19.1691 19.0344Z"
        fill="#597BE5" />
</svg>