<svg xmlns="http://www.w3.org/2000/svg" width="48" height="48" viewBox="0 0 48 48" fill="none">
    <path
        d="M45.7877 1.2002H2.17877C0.972067 1.2002 -5.75402e-10 2.17226 0 3.37897V33.8147C0 35.0214 0.972067 35.9935 2.17877 35.9935H19.0056V43.2337H10.8603C9.92179 43.2337 9.15084 44.0047 9.15084 44.9432C9.15084 45.8818 9.92179 46.6527 10.8603 46.6527H37.1061C38.0447 46.6527 38.8156 45.8818 38.8156 44.9432C38.8156 44.0047 38.0447 43.2337 37.1061 43.2337H28.9944V35.9935H45.8212C47.0279 35.9935 48 35.0214 48 33.8147V3.37897C47.9665 2.17226 46.9944 1.2002 45.7877 1.2002ZM14.8156 23.4572C15.486 24.1276 15.486 25.2002 14.8156 25.8706C14.4804 26.2058 14.0447 26.3734 13.6089 26.3734C13.1732 26.3734 12.7374 26.2058 12.4022 25.8706L6.30167 19.77C5.63128 19.0996 5.63128 18.027 6.30167 17.3566L12.4358 11.2225C13.1061 10.5522 14.1788 10.5522 14.8492 11.2225C15.5196 11.8929 15.5196 12.9656 14.8492 13.6359L9.92179 18.5633L14.8156 23.4572ZM25.5419 43.2337H22.4246V35.9935H25.5419V43.2337ZM29.8324 11.8259L21.2179 26.8762C20.9162 27.4125 20.3128 27.7477 19.743 27.7477C19.4413 27.7477 19.1732 27.6806 18.905 27.513C18.1006 27.0438 17.7989 26.0047 18.2682 25.1667L26.8827 10.1164C27.352 9.31193 28.3911 9.01025 29.229 9.47952C30.0335 9.98232 30.3017 11.0214 29.8324 11.8259ZM41.6313 19.77L35.5307 25.8706C35.1955 26.2058 34.7598 26.3734 34.324 26.3734C33.8883 26.3734 33.4525 26.2058 33.1173 25.8706C32.4469 25.2002 32.4469 24.1276 33.1173 23.4572L38.0112 18.5633L33.1173 13.6695C32.4469 12.9991 32.4469 11.9265 33.1173 11.2561C33.7877 10.5857 34.8603 10.5857 35.5307 11.2561L41.6648 17.3901C42 17.7253 42.1676 18.1611 42.1676 18.5968C42.1341 18.9991 41.9665 19.4348 41.6313 19.77Z"
        fill="white" />
</svg>