<svg xmlns="http://www.w3.org/2000/svg" width="24" height="25" viewBox="0 0 24 25" fill="none">
    <path
        d="M19.3602 6.72342C19.3615 6.14165 19.2469 5.56544 19.0231 5.02843C18.7993 4.49143 18.4708 4.00438 18.0567 3.59574C17.2663 2.8119 16.2118 2.35122 15.0997 2.30386C13.9875 2.25649 12.8977 2.62584 12.0435 3.33963C11.1893 2.62595 10.0996 2.25664 8.98756 2.30398C7.8755 2.35132 6.82111 2.8119 6.0307 3.59559C5.6177 4.00506 5.28988 4.49228 5.06617 5.02911C4.84245 5.56595 4.72727 6.14177 4.72727 6.72335C4.72727 7.30494 4.84245 7.88076 5.06617 8.4176C5.28988 8.95443 5.6177 9.44164 6.0307 9.85111L12.0435 15.8281L18.0563 9.85111C18.4704 9.44251 18.7991 8.95548 19.0229 8.41847C19.2468 7.88146 19.3615 7.30523 19.3602 6.72342ZM23.2911 8.5078L23.2821 8.50608C23.0713 8.47004 22.8547 8.51322 22.6738 8.62731C22.493 8.74139 22.3607 8.91832 22.3025 9.12406C21.6923 11.3049 20.23 13.147 18.9784 14.348C19.0014 14.1573 19.0173 13.9659 19.0258 13.774C19.0325 13.6185 18.9967 13.4641 18.9223 13.3274C18.848 13.1907 18.7378 13.0768 18.6037 12.9979L18.1554 12.7392L17.7178 12.9979C12.1694 16.2833 12.5162 21.2265 12.5337 21.4353L12.5696 21.8175L13.176 22.2767L13.5476 22.2107C17.7046 21.4734 20.6561 19.5784 22.3199 16.5783C23.6822 14.1219 23.8559 11.5086 23.96 9.94712C23.9726 9.75598 23.9844 9.58035 23.9966 9.42715C24.0156 9.21338 23.9537 9.00026 23.823 8.83C23.6924 8.65973 23.5025 8.54474 23.2911 8.5078ZM6.28479 13.0002C6.15056 12.9201 5.9972 12.8776 5.84087 12.8773C5.68454 12.877 5.53102 12.9189 5.39648 12.9985L4.95283 13.2664L4.97439 13.7737C4.98201 13.9558 4.99825 14.1491 5.02181 14.3486C3.77019 13.148 2.30875 11.3083 1.69996 9.1334C1.64444 8.92553 1.51322 8.74592 1.33205 8.62985C1.15089 8.51379 0.932876 8.46964 0.720828 8.50608L0.712636 8.50751C0.501559 8.54432 0.311807 8.65855 0.180502 8.82786C0.0491975 8.99718 -0.0142118 9.20939 0.0026794 9.42299C0.0153264 9.58107 0.0271111 9.75626 0.0397581 9.9474C0.143808 11.5084 0.317561 14.1218 1.67999 16.5783C3.34393 19.5784 6.29514 21.4734 10.4536 22.211L10.8404 22.2755L11.4458 21.7961L11.4676 21.4224C11.4941 21.0669 11.7436 16.2322 6.28479 13.0002Z"
        fill="white" />
</svg>