<svg xmlns="http://www.w3.org/2000/svg" width="48" height="48" viewBox="0 0 48 48" fill="none">
    <path
        d="M39.837 41.9058C39.4305 41.4994 38.8678 41.2493 38.2488 41.2493C37.6298 41.2493 37.0671 41.4994 36.6607 41.9058C36.2543 42.3122 36.0042 42.8749 36.0042 43.5002C36.0042 44.1192 36.2543 44.6819 36.6607 45.0883C37.0671 45.4947 37.6298 45.7511 38.2488 45.7511C38.8678 45.7511 39.4305 45.501 39.837 45.0883C40.2434 44.6819 40.4935 44.1192 40.4935 43.5002C40.4997 42.8749 40.2434 42.3122 39.837 41.9058ZM32.5591 26.8437L31.3461 32.8085H37.1234V29.1508C37.1234 27.8378 36.7232 26.7562 36.0542 25.8558C35.5478 25.1743 34.8913 24.5803 34.1347 24.0613C33.9597 24.374 33.7846 24.6928 33.6095 25.0055C33.2969 25.5682 32.9843 26.1309 32.5591 26.8437ZM25.969 47.9957L30.402 26.2122C30.4333 26.0621 30.4896 25.9246 30.5708 25.8058C30.9397 25.1993 31.2899 24.5615 31.64 23.93C31.9776 23.3236 32.309 22.7171 32.7905 21.923C33.1031 21.4041 33.7783 21.229 34.3035 21.5291C35.7041 22.3232 36.9483 23.2985 37.8549 24.5303C38.799 25.8058 39.3743 27.3251 39.3743 29.1571V39.1422C40.1621 39.3423 40.8686 39.755 41.4313 40.3177C42.2441 41.1305 42.7506 42.256 42.7506 43.5002C42.7506 44.7444 42.2441 45.8699 41.4313 46.6827C40.6185 47.4955 39.4931 48.0019 38.2488 48.0019C37.0046 48.0019 35.8792 47.4955 35.0663 46.6827C34.2535 45.8699 33.7471 44.7444 33.7471 43.5002C33.7471 42.256 34.2535 41.1305 35.0663 40.3177C35.6291 39.755 36.3356 39.3423 37.1234 39.1422V35.0594H30.8897L28.2574 47.9957H25.969ZM24.9311 0.00195312C22.4489 0.00195312 20.4294 2.02149 20.4294 4.51622C20.4294 7.01094 22.4427 9.03673 24.9311 9.03673C27.4196 9.03673 29.4329 7.01094 29.4329 4.51622C29.4329 2.02149 27.4196 0.00195312 24.9311 0.00195312ZM30.402 19.272C31.3837 19.8535 31.7025 21.1164 31.1273 22.0981C30.5458 23.0797 29.2891 23.4048 28.3075 22.8296L22.0112 19.0907C21.6611 18.8843 21.3985 18.5905 21.2234 18.2528L18.9976 14.5764C18.0347 16.0582 17.2781 17.5963 16.6842 19.1782C15.8213 21.4853 15.3086 23.8738 15.0335 26.281L18.1097 34.9218C18.5536 36.1786 18.7287 37.4291 18.6412 38.7608L18.1847 45.9324C18.1847 47.0766 17.2594 48.0019 16.1214 48.0019H15.2461C14.1082 48.0019 13.2453 46.939 13.3204 45.8011L13.8581 37.3853L11.157 29.8011L10.7568 30.0824L11.6947 35.2595C11.9198 36.51 11.9073 37.7229 11.6447 38.9672L10.1066 46.2388C9.95654 47.2391 9.09995 48.0019 8.0683 48.0019H7.31801C7.18045 48.0019 7.03665 47.9832 6.89284 47.9519C5.7799 47.7143 5.06713 46.6202 5.30472 45.501L7.09917 37.0414L5.73614 29.5197C5.33598 27.3064 5.24845 26.6061 5.61734 24.349C6.31761 20.0598 7.59937 16.3521 9.31879 13.3197C11.0757 10.2247 13.2891 7.81751 15.8213 6.18562C16.2027 5.93552 16.5341 5.73544 17.0093 5.67292C17.7846 5.57913 18.5849 5.93552 19.0163 6.65455L24.556 15.7956L30.402 19.272Z"
        fill="white" />
</svg>