<svg xmlns="http://www.w3.org/2000/svg" width="104" height="105" viewBox="0 0 104 105" fill="none">
    <path
        d="M52 102.5C38.6337 102.5 26.0924 97.302 16.6452 87.8548C7.19802 78.4076 2 65.8663 2 52.5C2 39.1337 7.19802 26.5924 16.6452 17.1452C26.0924 7.69802 38.6337 2.5 52 2.5H52.0413C65.3663 2.5 77.9488 7.69802 87.3548 17.1452C96.802 26.5924 102 39.1337 102 52.5C102 65.8663 96.802 78.4076 87.3548 87.8548C77.9076 97.302 65.3663 102.5 52 102.5Z"
        fill="white" fill-opacity="0.1" stroke="white" stroke-width="4" />
    <path
        d="M42 68.8378V36.1307C42 34.885 43.3037 34.0865 44.3345 34.7253L71.2269 51.0789C72.2577 51.7177 72.2577 53.2828 71.2269 53.9216L44.3345 70.2752C43.3037 70.914 42 70.1155 42 68.8378Z"
        stroke="white" stroke-width="3.55557" />
</svg>