<svg xmlns="http://www.w3.org/2000/svg" width="16" height="16" viewBox="0 0 16 16" fill="none">
    <path
        d="M7.23236 7.15434C7.35958 7.15434 7.46537 7.10077 7.54572 6.99096C7.62607 6.88115 7.66759 6.75259 7.66759 6.59859C7.66759 6.41379 7.58054 5.99732 7.40779 5.35186C7.12925 4.30867 6.98864 3.53733 6.98864 3.03649C6.98864 2.74188 7.06765 2.49682 7.22834 2.29863C7.38904 2.10177 7.63679 2 7.97425 2C8.30503 2 8.55277 2.09776 8.71481 2.29461C8.87818 2.49012 8.95853 2.74054 8.95853 3.04453C8.95853 3.54402 8.80855 4.31403 8.50724 5.35186C8.32243 5.99866 8.23137 6.40844 8.23137 6.58252C8.23137 6.75126 8.27556 6.88785 8.36261 6.99498C8.44965 7.10211 8.55009 7.15434 8.66392 7.15434C8.80989 7.15434 8.99067 7.07533 9.20494 6.91463C9.4192 6.75393 9.7406 6.44593 10.1691 5.99063C11.1132 4.98226 11.8431 4.4774 12.3587 4.4774C12.6184 4.4774 12.8421 4.56712 13.0256 4.74523C13.2104 4.92467 13.3028 5.14831 13.3028 5.42015C13.3028 5.61031 13.2586 5.77904 13.1688 5.92903C13.0791 6.07767 12.8997 6.23837 12.6278 6.40844C12.3546 6.57851 12.0814 6.71108 11.8042 6.80348C11.5257 6.89588 11.1159 7.01239 10.5722 7.153C9.88791 7.32575 9.46473 7.47171 9.3027 7.58822C9.14066 7.70472 9.06031 7.83997 9.06031 7.98996C9.06031 8.13191 9.12459 8.25778 9.25047 8.37161C9.37769 8.48544 9.7473 8.60998 10.358 8.74523C11.4132 8.9836 12.1752 9.23803 12.6452 9.50586C13.1153 9.77369 13.351 10.1152 13.351 10.5263C13.351 10.7914 13.2586 11.0164 13.0724 11.1985C12.8863 11.3806 12.6693 11.4717 12.4189 11.4717C12.1524 11.4717 11.8551 11.378 11.5284 11.1892C11.2016 11.0003 10.6673 10.529 9.92808 9.77502C9.54776 9.38534 9.27993 9.13626 9.12861 9.03047C8.97728 8.92601 8.83131 8.87245 8.69606 8.87245C8.45099 8.87245 8.32779 9.0077 8.32779 9.27821C8.32779 9.50586 8.42823 10.0228 8.63044 10.8276C8.84738 11.6887 8.95719 12.3314 8.95719 12.7586C8.95719 13.1537 8.87015 13.459 8.69606 13.6759C8.52197 13.8915 8.2836 14 7.98631 14C7.68098 14 7.44261 13.8915 7.27254 13.6746C7.10112 13.4576 7.01542 13.155 7.01542 12.764C7.01542 12.3944 7.05827 12.0261 7.1413 11.6538C7.22567 11.2816 7.3569 10.7352 7.53769 10.0147C7.60866 9.73753 7.64482 9.51657 7.64482 9.34784C7.64482 9.04921 7.52832 8.90057 7.2953 8.90057C7.13728 8.90057 6.96185 8.97288 6.76366 9.11885C6.5668 9.26481 6.20255 9.59424 5.67358 10.1071C5.08971 10.6696 4.65449 11.0378 4.36657 11.2119C4.07999 11.3873 3.80948 11.4744 3.55504 11.4744C3.31667 11.4744 3.11044 11.382 2.93501 11.1972C2.75958 11.0124 2.6712 10.7821 2.6712 10.5062C2.6712 10.3 2.72878 10.1205 2.84663 9.96518C2.96447 9.80984 3.19347 9.65049 3.53093 9.48041C3.8684 9.31302 4.32238 9.14429 4.89152 8.9769C5.45932 8.80951 5.85303 8.69702 6.07131 8.64346C6.6659 8.49213 6.96453 8.29394 6.96453 8.04888C6.96453 7.85872 6.87481 7.71008 6.6967 7.60161C6.51725 7.49314 6.16907 7.38199 5.6468 7.26816C4.85938 7.10077 4.16435 6.86776 3.55638 6.57181C2.9484 6.27586 2.64575 5.92367 2.64575 5.51791C2.64575 5.27419 2.72208 5.04787 2.87609 4.84165C3.03009 4.63542 3.24569 4.53231 3.52558 4.53231C3.82689 4.53231 4.15096 4.63274 4.49647 4.83495C4.84331 5.03716 5.26112 5.41614 5.74992 5.97188C6.44226 6.76063 6.93641 7.15434 7.23236 7.15434Z"
        fill="#0E1B47" />
</svg>