<svg xmlns="http://www.w3.org/2000/svg" width="293" height="293" viewBox="0 0 293 293" fill="none">
    <path
        d="M146.41 277.999C218.993 277.999 277.82 219.133 277.82 146.534C277.82 73.934 218.993 15.0684 146.41 15.0684C73.8277 15.0684 15 73.934 15 146.534C15 219.133 73.8277 277.999 146.41 277.999Z"
        fill="#DFE4F2" stroke="#597BE5" stroke-width="30" />
    <path
        d="M95.147 89.4801L95.1588 120.199C95.1654 138.144 109.709 152.688 127.645 152.688H145.776V89.4801H95.147ZM160.294 88.397V152.688H165.191C183.128 152.688 197.671 138.144 197.678 120.199L197.69 88.3965L160.294 88.397Z"
        fill="#5A2C42" />
    <path d="M164.403 108.729H128.418V191.537H164.403V108.729Z" fill="#FFC5B7" />
    <path
        d="M164.403 148.529V181.521H128.417V148.529C102.196 156.287 83.061 180.561 83.061 209.31V244.254C101.293 256.109 123.046 263.001 146.41 263.001C169.774 263.001 191.527 256.109 209.759 244.254V209.31C209.759 180.561 190.624 156.287 164.403 148.529Z"
        fill="#EF5350" />
    <path
        d="M162.194 173.427C153.546 182.056 139.487 181.849 131.096 172.97L143.946 262.97C144.766 262.987 145.586 263.002 146.411 263.002C147.575 263.002 148.733 262.98 149.889 262.946L162.746 172.877L162.194 173.427Z"
        fill="white" />
    <path
        d="M128.29 148.569C120.656 150.951 114.27 156.254 110.391 163.25L107.584 168.314C100.845 180.469 98.1615 194.46 99.9251 208.247C101.233 218.469 104.941 228.235 110.748 236.748L127.621 261.483C132.978 262.353 138.456 262.859 144.031 262.971L128.418 148.529C128.375 148.542 128.333 148.555 128.29 148.569Z"
        fill="#DD2C2C" />
    <path
        d="M193.898 208.31C195.666 194.485 192.944 180.458 186.134 168.299L183.456 163.518C179.822 157.03 174.016 152.01 167.039 149.446C166.121 149.108 165.234 148.8 164.402 148.527L149.696 262.95C155.354 262.793 160.911 262.229 166.339 261.292L183.121 236.691C188.903 228.215 192.596 218.489 193.898 208.31Z"
        fill="#DD2C2C" />
    <path
        d="M185.551 106.263C191.623 106.263 196.544 101.322 196.544 95.2254C196.544 89.1294 191.623 84.1875 185.551 84.1875C179.48 84.1875 174.559 89.1294 174.559 95.2254C174.559 101.322 179.48 106.263 185.551 106.263Z"
        fill="#EEA0A0" />
    <path
        d="M107.382 106.263C113.454 106.263 118.375 101.322 118.375 95.2254C118.375 89.1294 113.454 84.1875 107.382 84.1875C101.311 84.1875 96.3896 89.1294 96.3896 95.2254C96.3896 101.322 101.311 106.263 107.382 106.263Z"
        fill="#EEA0A0" />
    <path
        d="M148.397 140.313H144.423C124.766 140.313 108.83 124.378 108.83 104.72V70.8797C108.83 60.851 116.96 52.7207 126.989 52.7207H165.831C175.859 52.7207 183.99 60.851 183.99 70.8797V104.72C183.99 124.378 168.054 140.313 148.397 140.313Z"
        fill="#FED9C9" />
    <path
        d="M146.411 117.815C144.915 117.815 143.704 116.603 143.704 115.108V109.956C143.704 108.461 144.916 107.25 146.411 107.25C147.906 107.25 149.118 108.462 149.118 109.956V115.108C149.118 116.603 147.906 117.815 146.411 117.815Z"
        fill="#EEA0A0" />
    <path
        d="M166.986 101.834C168.78 101.834 170.234 100.015 170.234 97.7715C170.234 95.5279 168.78 93.709 166.986 93.709C165.191 93.709 163.737 95.5279 163.737 97.7715C163.737 100.015 165.191 101.834 166.986 101.834Z"
        fill="#5A2C42" />
    <path
        d="M173.29 88.0763C172.822 88.0763 172.35 87.9311 171.961 87.6342C169.078 85.4311 164.893 85.4311 162.011 87.6342C161.122 88.3127 159.807 88.1978 159.072 87.3778C158.337 86.5578 158.462 85.3429 159.35 84.6645C163.774 81.2835 170.197 81.284 174.621 84.6645C176.125 85.8127 175.022 88.0763 173.29 88.0763Z"
        fill="#5A2C42" />
    <path
        d="M125.836 101.564C127.63 101.564 129.084 99.8664 129.084 97.7723C129.084 95.6781 127.63 93.9805 125.836 93.9805C124.041 93.9805 122.587 95.6781 122.587 97.7723C122.587 99.8664 124.041 101.564 125.836 101.564Z"
        fill="#5A2C42" />
    <path
        d="M132.14 88.0763C131.672 88.0763 131.2 87.9311 130.811 87.6342C127.929 85.4311 123.743 85.4311 120.861 87.6342C119.972 88.3127 118.657 88.1978 117.922 87.3778C117.188 86.5578 117.312 85.3429 118.2 84.6645C122.624 81.2835 129.048 81.284 133.471 84.6645C134.975 85.8127 133.872 88.0763 132.14 88.0763Z"
        fill="#5A2C42" />
    <path
        d="M167.798 121.714C170.788 121.714 173.212 118.804 173.212 115.213C173.212 111.623 170.788 108.713 167.798 108.713C164.807 108.713 162.383 111.623 162.383 115.213C162.383 118.804 164.807 121.714 167.798 121.714Z"
        fill="#FFC5B7" />
    <path
        d="M125.023 121.714C128.014 121.714 130.438 118.804 130.438 115.213C130.438 111.623 128.014 108.713 125.023 108.713C122.033 108.713 119.609 111.623 119.609 115.213C119.609 118.804 122.033 121.714 125.023 121.714Z"
        fill="#FFC5B7" />
    <path
        d="M140.106 125.854C140.575 125.854 141.046 125.998 141.435 126.295C144.318 128.495 148.503 128.495 151.386 126.295C152.274 125.617 153.589 125.733 154.324 126.551C155.059 127.37 154.934 128.583 154.047 129.261C149.622 132.637 143.199 132.636 138.775 129.261C137.27 128.113 138.377 125.854 140.106 125.854Z"
        fill="#BF5377" />
    <path
        d="M197.69 89.301V69.0594C197.69 48.0302 182.959 29.8789 162.388 25.56L151.342 23.241C148.017 22.543 144.555 23.3789 141.914 25.5174L139.398 27.5548C136.554 24.2461 132.06 22.8718 127.853 24.0225C108.54 29.3071 95.147 46.863 95.147 66.8948V90.6794C108.092 87.5707 119.205 79.3041 125.908 67.7964L130.617 59.7118C145.962 78.1666 168.625 88.9605 192.617 89.2415L197.69 89.301Z"
        fill="#804F67" />
    <path d="M186.266 252.857V255.992C188.884 255.038 191.457 253.991 193.984 252.857H186.266Z" fill="#BDBDBD" />
    <path
        d="M252.207 195.172H196.663C193.847 195.172 191.5 197.332 191.267 200.14L186.635 255.857C215.716 245.143 239.337 223.145 252.207 195.172Z"
        fill="#E0E0E0" />
    <path
        d="M233.161 224.187C232.265 223.309 231.04 222.766 229.686 222.766C226.943 222.766 224.719 224.991 224.719 227.735C224.719 229.135 225.3 230.397 226.231 231.3C228.64 229.029 230.952 226.655 233.161 224.187Z"
        fill="white" />
    <path
        d="M158.652 252.858V254.882C158.652 257.874 161.076 260.299 164.067 260.299H171.407C176.492 259.186 181.454 257.747 186.266 255.992V252.857H158.652V252.858Z"
        fill="#D6D6D6" />
    <path d="M46.1968 197.09V205.819C55.2542 221.111 67.707 234.15 82.5193 243.899V197.09H46.1968V197.09Z"
        fill="#E3597B" />
    <path d="M41.5093 197.09C42.9488 200.074 44.5175 202.983 46.197 205.819V197.09H41.5093Z" fill="#BF5377" />
    <path d="M65.1475 197.09V229.918C75.5557 240.072 87.8541 248.295 101.47 254.001V197.09H65.1475Z" fill="#EEEEEE" />
    <path d="M58.1543 197.09V222.48C60.3753 225.062 62.7107 227.541 65.1471 229.918V197.09H58.1543V197.09Z"
        fill="#E0E0E0" />
    <path d="M79.2256 197.09V241.655C90.1015 249.359 102.357 255.236 115.548 258.855V197.09H79.2256Z" fill="#3CD9CF" />
    <path d="M72.2319 197.09V236.297C74.4924 238.169 76.8253 239.957 79.2248 241.656V197.09H72.2319V197.09Z"
        fill="#00A99E" />
</svg>