<svg xmlns="http://www.w3.org/2000/svg" width="16" height="16" viewBox="0 0 16 16" fill="none">
    <g clip-path="url(#clip0_918_1686)">
        <path
            d="M14.6738 12.451L11.1387 11.0754C11.1387 11.0754 10.4636 10.8138 10.2027 10.558C10.0347 10.3914 10.0464 10.0033 10.1954 9.5045C10.3443 9.00618 12.1558 6.98168 12.1558 5.14236C12.1558 2.30294 10.2856 0 7.98089 0C5.67571 0 3.80768 2.30294 3.80768 5.14236C3.80768 6.90448 5.42262 9.00445 5.62144 9.3848C5.8207 9.76732 5.77252 10.3493 5.6158 10.5246C5.37964 10.7895 4.5153 11.0541 4.5153 11.0541L1.32841 12.4723C0.583894 12.7386 0 13.4399 0 14.2327V14.6074C0 15.4709 0.701975 16 1.56458 16H14.4341C15.2967 16 16 15.4709 16 14.6074V14.2327C16.0022 13.4394 15.4183 12.7169 14.6738 12.451Z"
            fill="#0E1B47" />
    </g>
    <defs>
        <clipPath id="clip0_918_1686">
            <rect width="16" height="16" fill="white" />
        </clipPath>
    </defs>
</svg>