<svg xmlns="http://www.w3.org/2000/svg" width="16" height="16" viewBox="0 0 16 16" fill="none">
    <g clip-path="url(#clip0_918_1276)">
        <path
            d="M3.0026 4.13203C3.44748 4.37473 3.93766 4.58336 4.4614 4.75541C4.19335 5.75467 4.04031 6.85648 4.01537 8.00047H0.694336C0.760242 6.42918 1.3114 4.9169 2.272 3.67167C2.50519 3.84095 2.74925 3.99474 3.0026 4.13203ZM8.00135 8.66582H4.68052C4.70493 9.74633 4.84852 10.7853 5.09901 11.7236C6.00052 11.4886 6.98348 11.3537 8.00135 11.3296V8.66582ZM3.0026 12.5347C3.44748 12.292 3.93766 12.0834 4.4614 11.9113C4.19335 10.912 4.04031 9.81023 4.01537 8.66624H0.694336C0.760158 10.2377 1.31132 11.7501 2.272 12.9955C2.50518 12.826 2.74924 12.6721 3.0026 12.5347ZM8.66628 1.05029V4.67208C9.61942 4.6485 10.5372 4.52341 11.3772 4.30658C11.2369 3.88514 11.064 3.47525 10.8602 3.08061C10.2493 1.9094 9.48041 1.20208 8.66628 1.05029ZM8.00135 8.00089V5.33712C6.98317 5.31301 6.00052 5.17816 5.09901 4.94315C4.84852 5.88142 4.70493 6.92038 4.68052 8.00089H8.00135ZM11.5686 4.94315C10.6671 5.17816 9.68446 5.31301 8.66628 5.33712V8.00089H11.9871C11.9627 6.92038 11.8191 5.88142 11.5686 4.94315ZM8.00135 15.6164V11.9946C7.0482 12.0182 6.13039 12.1433 5.29039 12.3601C5.43068 12.7818 5.60357 13.1918 5.80748 13.5866C6.41828 14.7573 7.18722 15.4646 8.00135 15.6164ZM5.80748 3.08009C5.60357 3.47489 5.43068 3.88496 5.29039 4.30658C6.13039 4.52341 7.0482 4.6485 8.00135 4.67208V1.05029C7.18722 1.20208 6.41828 1.9094 5.80748 3.08009ZM13.665 4.13203C13.2202 4.37473 12.73 4.58336 12.2062 4.75541C12.4743 5.75467 12.6273 6.85648 12.6523 8.00047H15.9733C15.9075 6.42903 15.3563 4.9166 14.3956 3.67126C14.1624 3.84068 13.9184 3.9946 13.665 4.13203ZM3.32104 3.54835C3.72623 3.76954 4.1735 3.9604 4.65247 4.11915C4.81288 3.63812 5.00197 3.18669 5.21797 2.77256C5.6055 2.02971 6.06088 1.44322 6.57153 1.02951C6.65894 0.958515 6.74739 0.893096 6.83688 0.833252C5.21475 1.15533 3.77745 1.99013 2.70109 3.16196C2.89975 3.30316 3.10677 3.43219 3.32104 3.54835ZM6.57153 15.6372C6.06088 15.2233 5.6053 14.6368 5.21797 13.8939C5.00197 13.4799 4.81278 13.0284 4.65247 12.5474C4.1735 12.7061 3.72654 12.897 3.32104 13.1182C3.10677 13.2343 2.89975 13.3633 2.70109 13.5045C3.77745 14.6764 5.21475 15.5113 6.83688 15.8333C6.74739 15.7735 6.65894 15.7082 6.57153 15.6372ZM13.3466 13.1182C12.9414 12.897 12.4946 12.7061 12.0152 12.5474C11.8547 13.0284 11.6657 13.4799 11.4497 13.8939C11.0621 14.6368 10.6067 15.2238 10.0961 15.6372C10.0086 15.7081 9.92017 15.7734 9.83075 15.8333C11.4529 15.5112 12.8902 14.6764 13.9665 13.5045C13.7679 13.3634 13.5609 13.2345 13.3466 13.1184V13.1182ZM10.8602 13.5864C11.0641 13.1916 11.2369 12.7815 11.3772 12.3599C10.5372 12.1431 9.61942 12.018 8.66628 11.9944V15.6164C9.48041 15.4646 10.2493 14.7573 10.8602 13.5866V13.5864ZM8.66628 8.66582V11.3296C9.68446 11.3537 10.6671 11.4886 11.5686 11.7236C11.8191 10.7849 11.9627 9.74685 11.9871 8.66582H8.66628ZM10.0961 1.02951C10.6067 1.44343 11.0623 2.02992 11.4497 2.77277C11.6657 3.1869 11.8549 3.63832 12.0152 4.11936C12.4941 3.96061 12.9411 3.76975 13.3466 3.54856C13.5609 3.4324 13.7679 3.30337 13.9665 3.16217C12.8902 1.99013 11.4529 1.15522 9.83075 0.833252C9.92024 0.893096 10.0087 0.958515 10.0961 1.02951ZM14.3956 12.9952C15.3563 11.7498 15.9075 10.2373 15.9733 8.66582H12.6523C12.6273 9.80981 12.4743 10.9116 12.2062 11.9109C12.7304 12.0834 13.2202 12.292 13.665 12.5343C13.9184 12.6717 14.1624 12.8256 14.3956 12.995V12.9952Z"
            fill="#0E1B47" />
    </g>
    <defs>
        <clipPath id="clip0_918_1276">
            <rect width="16" height="16" fill="white" />
        </clipPath>
    </defs>
</svg>