<svg xmlns="http://www.w3.org/2000/svg" width="42" height="42" viewBox="0 0 42 42" fill="none">
    <path
        d="M1.41739 1.76128C2.4368 0.6361 3.94541 -0.0226978 5.46381 0.000597788C9.09836 0.00199552 12.7324 0.000597987 16.367 0.00152981C17.5937 0.0206322 18.8084 0.475361 19.7453 1.26741C20.9408 2.2626 21.6737 3.79125 21.6788 5.34879C21.6779 5.74808 21.6779 6.14783 21.6788 6.54711C26.275 6.54665 30.8717 6.54758 35.4679 6.54711C36.0106 6.54059 36.5581 6.57553 37.086 6.70972C38.4287 7.03585 39.6242 7.90664 40.3604 9.07421C40.9073 9.93102 41.1948 10.9458 41.1999 11.961V22.3093C41.2013 22.5954 41.2228 22.9025 41.0713 23.1592C40.8696 23.564 40.3906 23.7984 39.9471 23.722C39.7286 23.6926 39.5278 23.5869 39.3661 23.4401C38.3625 22.5591 37.1959 21.8616 35.9412 21.4032C34.0999 20.7262 32.0732 20.5701 30.1495 20.9508C28.565 21.2569 27.0545 21.931 25.7625 22.8973C24.3783 23.9275 23.2457 25.293 22.49 26.8445C21.6672 28.5209 21.2986 30.4148 21.4184 32.278C21.5223 33.9506 22.0301 35.5943 22.8771 37.0396C23.0332 37.3196 23.261 37.5805 23.2718 37.9178C23.3337 38.5049 22.8301 39.0742 22.2388 39.0789C16.6004 39.0803 10.9615 39.0784 5.3231 39.0798C3.79399 39.0668 2.29283 38.3563 1.30278 37.1929C0.653299 36.4381 0.216742 35.5016 0.06439 34.5172C-0.0334509 33.9618 0.0122084 33.3966 0.00195837 32.8361V5.4881C-0.0311211 4.12484 0.493958 2.76205 1.41739 1.76128ZM2.6595 3.70412C2.32544 4.23433 2.14887 4.86378 2.16797 5.49089C2.1689 14.8534 2.1689 24.2163 2.16797 33.5793C2.14421 34.2851 2.36831 34.9952 2.78483 35.565C3.28102 36.2564 4.05956 36.7391 4.90052 36.8728C5.20989 36.9292 5.52484 36.9101 5.83746 36.9129C10.682 36.9133 15.5265 36.9119 20.371 36.9133C19.5422 35.0725 19.1494 33.0374 19.2421 31.0205C19.3237 29.0557 19.8599 27.1115 20.8011 25.3848C22.3786 22.4598 25.12 20.1881 28.291 19.1901C30.4202 18.5136 32.7246 18.3966 34.9106 18.8579C36.3666 19.1603 37.7653 19.7254 39.033 20.5016C39.0335 17.6563 39.0335 14.8105 39.033 11.9647C39.0297 11.0394 38.6123 10.1262 37.9111 9.52242C37.3212 9.00153 36.539 8.7164 35.7539 8.715C30.6751 8.71127 25.5962 8.71593 20.5173 8.71267C19.9894 8.69496 19.537 8.22579 19.5151 7.70211C19.5063 7.10434 19.5147 6.50658 19.5119 5.90882C19.5072 5.5673 19.5319 5.22253 19.4681 4.88474C19.3246 4.01023 18.8014 3.20979 18.0638 2.71919C17.5388 2.36323 16.9065 2.17221 16.2729 2.16708C12.6397 2.16802 9.00657 2.16755 5.37342 2.16755C4.28599 2.17733 3.22744 2.77696 2.6595 3.70412Z"
        fill="#0E1B47" />
    <path
        d="M9.67565 13.5767C9.74554 13.5585 9.81729 13.5492 9.8895 13.5478C17.0188 13.5464 24.1486 13.5483 31.2784 13.5469C31.6558 13.5455 32.0211 13.7738 32.1972 14.1064C32.3491 14.3771 32.3649 14.714 32.2671 15.0056C32.1171 15.4329 31.6819 15.7367 31.2286 15.7255C24.1463 15.7255 17.064 15.725 9.98176 15.7259C9.6244 15.7343 9.26612 15.5573 9.06485 15.2605C8.86916 14.9861 8.81652 14.6194 8.91948 14.2993C9.02571 13.9504 9.32249 13.6671 9.67565 13.5767ZM9.63093 21.7246C9.81962 21.6621 10.0209 21.678 10.217 21.677C12.3136 21.678 14.4102 21.677 16.5068 21.6775C16.8134 21.6831 17.1111 21.8312 17.3058 22.0675C17.5723 22.3796 17.6315 22.8465 17.461 23.2187C17.2979 23.5882 16.9131 23.8519 16.5073 23.8556C14.3175 23.8561 12.1282 23.8552 9.93842 23.8561C9.59738 23.8594 9.26425 23.6809 9.06904 23.4032C8.83143 23.0729 8.80161 22.6065 8.99775 22.2496C9.12681 21.9985 9.36256 21.8084 9.63093 21.7246ZM31.3027 21.8774C33.0447 21.7096 34.8324 22.0139 36.4142 22.7668C38.439 23.7196 40.113 25.3936 41.0658 27.4185C41.924 29.2197 42.1975 31.2883 41.8588 33.2531C41.555 35.0566 40.721 36.7642 39.4961 38.1209C38.3915 39.3514 36.969 40.2944 35.4031 40.8274C33.5325 41.4703 31.4648 41.522 29.563 40.9797C27.6765 40.4481 25.9652 39.3243 24.7189 37.8134C23.8528 36.7684 23.207 35.5411 22.8427 34.2333C22.3041 32.3175 22.3684 30.2363 23.0295 28.3587C23.5635 26.8314 24.4874 25.443 25.6875 24.3583C27.2274 22.955 29.2275 22.0675 31.3027 21.8774ZM32.1283 24.0001C30.6928 24.021 29.2643 24.4557 28.0683 25.252C26.7144 26.1395 25.6573 27.473 25.1056 28.9956C24.4999 30.6463 24.4971 32.5076 25.0949 34.1611C25.5426 35.4088 26.3282 36.5312 27.3401 37.3871C28.3763 38.2686 29.6547 38.8645 30.9989 39.0816C32.8294 39.3919 34.7695 38.9963 36.3289 37.9876C37.7625 37.0726 38.8755 35.6641 39.4225 34.053C40.1051 32.0901 39.9276 29.8477 38.9389 28.019C38.3784 26.9702 37.5673 26.0575 36.594 25.3745C35.3006 24.4585 33.7119 23.9754 32.1283 24.0001Z"
        fill="#0E1B47" />
    <path
        d="M29.2409 26.2382C31.1762 26.2223 33.1121 26.2368 35.0475 26.2312C35.218 26.2316 35.3923 26.2209 35.5586 26.2689C35.9159 26.3649 36.2164 26.6542 36.3152 27.0125C36.9009 28.8603 37.4842 30.7091 38.0703 32.5569C38.198 32.8811 38.2385 33.2585 38.0694 33.5763C37.9613 33.813 37.7451 33.9662 37.5406 34.113C36.0203 35.248 34.4996 36.3825 32.9793 37.5174C32.6061 37.8081 32.0433 37.8086 31.6701 37.5179C30.0772 36.3303 28.4842 35.1431 26.8922 33.9551C26.6327 33.7589 26.4603 33.4435 26.4631 33.1155C26.4501 32.9207 26.5148 32.7353 26.5754 32.5536C27.1648 30.6909 27.7537 28.8282 28.3431 26.9659C28.4689 26.5764 28.8346 26.2815 29.2409 26.2382ZM30.1666 28.3972C29.7133 29.8243 29.2623 31.2518 28.8113 32.6799C29.9835 33.5497 31.1516 34.4252 32.3233 35.2964C33.4955 34.4275 34.6598 33.5483 35.833 32.6817C35.3825 31.2537 34.9301 29.8262 34.4781 28.3986C33.0413 28.3967 31.604 28.3995 30.1666 28.3972Z"
        fill="#597BE5" />
    <path
        d="M9.76231 29.8234C9.97384 29.7941 10.1882 29.8132 10.4011 29.8085C12.4208 29.808 14.44 29.8094 16.4598 29.808C16.7756 29.8011 17.0901 29.9432 17.2942 30.185C17.5751 30.5004 17.6352 30.9854 17.4535 31.3651C17.2877 31.7253 16.9098 31.9815 16.5115 31.9866H10.2156C9.9948 31.9862 9.76511 32.0067 9.55778 31.9154C9.17201 31.7705 8.89572 31.3893 8.87103 30.9793C8.81838 30.4403 9.22652 29.9073 9.76231 29.8234Z"
        fill="#0E1B47" />
    <path
        d="M30.8276 29.4143C31.034 29.363 31.2488 29.377 31.4598 29.3761H33.1846C33.3859 29.3765 33.5895 29.3654 33.7884 29.4078C34.2026 29.4986 34.5446 29.8578 34.6089 30.2781C34.6313 30.4612 34.6289 30.6531 34.5633 30.8278C34.4212 31.243 34.0028 31.5528 33.5602 31.5435C32.7374 31.5421 31.9141 31.5421 31.0913 31.5435C30.7484 31.5509 30.4148 31.3706 30.2191 31.0925C30.0141 30.8078 29.9619 30.422 30.0835 30.0936C30.1982 29.7614 30.4889 29.5028 30.8276 29.4143Z"
        fill="#597BE5" />
</svg>