<svg xmlns="http://www.w3.org/2000/svg" width="43" height="40" viewBox="0 0 43 40" fill="none">
    <path
        d="M22.9476 0.522916C26.6294 0.45343 30.3225 1.45556 33.4634 3.37814C35.284 4.48856 36.9214 5.89993 38.2827 7.54232C38.4253 7.71604 38.5868 7.88479 38.6586 8.10362C38.7425 8.34637 38.7335 8.6189 38.6347 8.85623C37.2445 12.1121 35.3021 15.133 32.9066 17.7405C30.5567 20.3056 27.7701 22.4668 24.7109 24.1214C21.325 25.9574 17.5999 27.1666 13.7786 27.6544C11.2158 27.9837 8.61232 27.9928 6.04676 27.6855C5.66053 27.6512 5.31355 27.3805 5.17774 27.0191C4.51401 25.3054 4.09168 23.4979 3.93557 21.6669C3.6865 18.804 4.08131 15.8874 5.08298 13.1937C6.07473 10.5108 7.66704 8.05083 9.71642 6.05515C11.8511 3.97058 14.4726 2.38955 17.3098 1.46729C19.1281 0.874405 21.0354 0.55811 22.9476 0.522916ZM19.9439 2.94769C20.2841 3.75851 20.4339 4.63881 20.4538 5.5146C20.4605 5.69554 20.4321 5.87918 20.3464 6.04026C20.1921 6.33128 20.0711 6.66879 20.1411 7.00087C20.2101 7.29145 20.4854 7.45795 20.7317 7.58654C21.959 7.24904 23.2327 7.0293 24.5092 7.09292C25.3254 7.14436 26.1669 7.34379 26.8243 7.85365C27.373 8.26921 27.7457 8.8991 27.8702 9.5741C27.9109 9.85024 28.0255 10.1065 28.0868 10.3777C28.3972 11.6212 28.4406 12.9595 28.0426 14.189C27.7881 14.9633 27.3586 15.6848 26.7747 16.256C26.25 16.7934 25.6083 17.2053 24.9297 17.5216C24.6044 18.2215 24.3296 18.9456 24.1225 19.6897C23.8929 20.5185 23.7435 21.3767 23.7692 22.2394C26.2991 20.8646 28.6287 19.1194 30.6461 17.0646C33.0587 14.6244 35.0237 11.7467 36.4409 8.62251C33.9895 5.77224 30.5806 3.77385 26.9047 2.99868C24.6193 2.51228 22.236 2.49107 19.9439 2.94769ZM14.7059 4.90818C12.0469 6.41927 9.8017 8.64913 8.28203 11.3036C6.72808 13.9977 5.92042 17.1146 5.96374 20.2239C5.98765 22.0752 6.31252 23.922 6.92074 25.6709C11.9724 26.1721 17.1514 25.3284 21.7749 23.2298C21.5412 21.8979 21.7235 20.528 22.0695 19.2322C22.3498 18.2053 22.7313 17.2089 23.2084 16.2574C23.327 16.0114 23.5427 15.8152 23.7981 15.7191C24.3062 15.5129 24.7921 15.2381 25.1964 14.8645C25.7216 14.3781 26.0659 13.7089 26.1746 13.0028C26.3131 12.1175 26.1868 11.2025 25.884 10.3633C25.8155 10.1656 25.8371 9.94409 25.7374 9.75594C25.6309 9.54612 25.4184 9.41618 25.2032 9.33947C24.7041 9.16711 24.1681 9.16847 23.647 9.18877C22.7202 9.25149 21.8065 9.45182 20.919 9.72074C20.5354 9.8173 20.1645 9.63185 19.8243 9.47754C19.1277 9.15357 18.5082 8.60446 18.2226 7.87847C17.8981 7.08976 17.992 6.18374 18.3173 5.41128C18.3399 5.35849 18.3471 5.30344 18.3394 5.24614C18.2925 4.64107 18.1671 4.03104 17.8778 3.4923C16.7769 3.85642 15.712 4.33154 14.7059 4.90818Z"
        fill="#0E1B47" />
    <path
        d="M38.3807 3.82815C38.7236 3.69865 39.0859 3.81687 39.4162 3.92606C40.1806 4.1846 40.8817 4.68634 41.2887 5.39293C41.7715 6.20555 41.8568 7.19414 41.7237 8.11415C41.661 8.64567 41.4886 9.15418 41.3415 9.6663C40.1246 12.8581 38.3798 15.8451 36.2172 18.4883C31.9519 23.7132 26.0614 27.5733 19.5943 29.4715C14.9171 30.8459 9.92629 31.1739 5.11778 30.3487C4.57228 30.3175 4.04933 30.1501 3.52187 30.0224C3.09232 29.7986 2.63796 29.61 2.24721 29.3177C1.68546 28.9107 1.21982 28.3534 0.989249 27.6938C0.714013 26.9312 0.758231 26.0821 1.00549 25.3186C1.13995 24.904 1.56363 24.6125 1.99724 24.622C2.48274 24.6116 2.93981 24.9852 3.02283 25.4639C3.11443 25.8312 2.89198 26.1737 2.90011 26.5387C2.8807 26.8748 3.02374 27.2069 3.26829 27.4357C3.60985 27.7592 4.04978 27.9618 4.49738 28.0931C8.70171 28.9707 13.0938 28.88 17.2742 27.909C23.8938 26.3726 29.9941 22.6502 34.3586 17.437C36.4256 14.9698 38.1018 12.1727 39.2777 9.17584C39.3535 8.88391 39.4744 8.60642 39.5466 8.31358C39.6757 7.78522 39.7578 7.21445 39.5823 6.68699C39.478 6.35986 39.2087 6.10493 38.8942 5.97769C38.6419 5.85722 38.3432 5.84865 38.1154 5.67629C37.7815 5.44708 37.6127 5.0085 37.6971 4.6137C37.7625 4.25364 38.0351 3.94456 38.3807 3.82815Z"
        fill="#597BE5" />
    <path
        d="M40.5866 13.2883C41.092 13.148 41.6704 13.4503 41.8347 13.9498C42.7754 16.8046 43.0317 19.8795 42.5922 22.8521C42.0413 26.639 40.3466 30.2523 37.7725 33.0854C35.3472 35.7683 32.1559 37.7459 28.6798 38.7381C25.9712 39.5146 23.0929 39.6838 20.3108 39.2426C17.5544 38.8085 14.8936 37.7761 12.5681 36.233C11.1955 35.3252 9.94027 34.2405 8.84158 33.0155C8.58575 32.7263 8.51536 32.2913 8.662 31.9348C8.8276 31.5035 9.30091 31.2215 9.75934 31.286C13.7778 31.7431 17.8901 31.3546 21.7497 30.1454C25.2718 29.0453 28.5814 27.2734 31.452 24.9556C35.0896 22.0259 37.9999 18.2047 39.8665 13.9236C39.9892 13.6145 40.2609 13.365 40.5866 13.2883ZM37.943 21.2914C34.4805 25.8215 29.7473 29.3598 24.4357 31.4281C20.6375 32.914 16.5446 33.6458 12.467 33.5628C14.9478 35.549 17.979 36.8363 21.1311 37.2397C23.9868 37.6142 26.9345 37.2559 29.6174 36.2078C29.3796 35.7836 29.1598 35.3338 29.0858 34.8496C29.0768 33.991 29.2014 33.1287 29.459 32.3089C29.8163 31.1642 30.4787 30.1016 31.415 29.3422C31.9388 28.9154 32.5349 28.5661 33.1832 28.3685C33.4156 28.2873 33.666 28.3595 33.9011 28.2941C34.1885 28.2237 34.4566 28.0915 34.711 27.943C35.3531 27.5523 35.9144 27.0451 36.4432 26.515C36.9657 25.9821 37.4521 25.4149 37.9096 24.8256C38.2034 24.4665 38.4254 24.0559 38.7304 23.7058C39.229 23.1129 39.8548 22.6305 40.551 22.2912C40.768 20.661 40.75 19.0006 40.5036 17.3744C39.7519 18.7429 38.8919 20.0514 37.943 21.2914ZM38.1749 27.7481C37.4963 28.4601 36.764 29.131 35.9311 29.6585C35.2791 30.0691 34.545 30.3926 33.7653 30.4219C33.6164 30.4179 33.4865 30.4968 33.3588 30.5618C32.9671 30.7658 32.6183 31.0478 32.3264 31.3785C31.5463 32.2484 31.2313 33.4369 31.1912 34.5821C31.239 34.8523 31.4019 35.0888 31.5427 35.3202C33.2013 34.4296 34.7174 33.2731 36.0055 31.9001C37.583 30.2212 38.8175 28.2223 39.6138 26.061C39.1608 26.6454 38.6835 27.2112 38.1749 27.7481Z"
        fill="#0E1B47" />
</svg>