<?xml version="1.0" encoding="UTF-8"?>
<!DOCTYPE svg PUBLIC "-//W3C//DTD SVG 1.1//EN" "http://www.w3.org/Graphics/SVG/1.1/DTD/svg11.dtd">
<svg xmlns="http://www.w3.org/2000/svg" version="1.1" width="149px" height="95px" style="shape-rendering:geometricPrecision; text-rendering:geometricPrecision; image-rendering:optimizeQuality; fill-rule:evenodd; clip-rule:evenodd" xmlns:xlink="http://www.w3.org/1999/xlink">
<g><path style="opacity:0.957" fill="#003f96" d="M 59.5,-0.5 C 63.1667,-0.5 66.8333,-0.5 70.5,-0.5C 70.3337,6.8409 70.5003,14.1742 71,21.5C 72.5188,30.1015 74.5188,30.4348 77,22.5C 78.0689,14.8686 78.5689,7.20193 78.5,-0.5C 81.5,-0.5 84.5,-0.5 87.5,-0.5C 93.7765,0.66005 100.11,2.16005 106.5,4C 88.9244,32.7113 89.2577,61.2113 107.5,89.5C 101.521,91.687 95.521,93.3536 89.5,94.5C 85.1667,94.5 80.8333,94.5 76.5,94.5C 76.6662,88.4908 76.4995,82.4908 76,76.5C 73.5068,61.9171 71.1734,61.9171 69,76.5C 68.5005,82.4908 68.3338,88.4908 68.5,94.5C 65.1667,94.5 61.8333,94.5 58.5,94.5C 52.6179,93.1995 46.6179,91.8661 40.5,90.5C 44.2395,82.6797 47.7395,74.6797 51,66.5C 56.9407,44.3077 53.774,23.4743 41.5,4C 47.5814,2.29 53.5814,0.79 59.5,-0.5 Z"/></g>
<g><path style="opacity:0.95" fill="#003f96" d="M -0.5,55.5 C -0.5,53.8333 -0.5,52.1667 -0.5,50.5C 1.92006,50.2924 4.2534,50.6258 6.5,51.5C 8.77594,50.7868 11.1093,50.2868 13.5,50C 17.8661,48.2376 18.5327,45.571 15.5,42C 10.2529,40.7969 4.91961,40.6302 -0.5,41.5C -0.5,40.5 -0.5,39.5 -0.5,38.5C 7.00246,22.1148 19.5025,11.1148 37,5.5C 41.5703,10.2875 44.9036,15.9542 47,22.5C 54.6753,46.6122 50.8419,68.6122 35.5,88.5C 18.6736,82.4755 6.67357,71.4755 -0.5,55.5 Z M 29.5,28.5 C 33.3241,31.05 33.4907,34.05 30,37.5C 26.8777,34.6443 26.7111,31.6443 29.5,28.5 Z M 29.5,55.5 C 31.7142,56.3915 32.7142,58.0582 32.5,60.5C 32.6578,62.3186 31.9911,63.6519 30.5,64.5C 28.215,61.8222 27.8817,58.8222 29.5,55.5 Z"/></g>
<g><path style="opacity:0.961" fill="#003f96" d="M 148.5,41.5 C 148.5,42.1667 148.5,42.8333 148.5,43.5C 145.367,42.7349 142.2,42.0683 139,41.5C 131.657,41.4822 128.99,44.8155 131,51.5C 135.919,54.1791 141.086,54.8458 146.5,53.5C 147.372,55.4658 147.205,57.4658 146,59.5C 138.728,73.6019 127.561,83.2685 112.5,88.5C 102.269,76.315 97.2694,62.1484 97.5,46C 97.4574,33.004 100.624,20.8373 107,9.5C 107.899,7.67337 109.233,6.34004 111,5.5C 129.661,11.3319 142.161,23.3319 148.5,41.5 Z"/></g>
</svg>
