<svg xmlns="http://www.w3.org/2000/svg" width="68" height="68" viewBox="0 0 68 68" fill="none">
    <path
        d="M24 43C25.6569 43 27 41.6569 27 40C27 38.3431 25.6569 37 24 37C22.3431 37 21 38.3431 21 40C21 41.6569 22.3431 43 24 43Z"
        fill="white" />
    <path
        d="M38 43C39.6569 43 41 41.6569 41 40C41 38.3431 39.6569 37 38 37C36.3431 37 35 38.3431 35 40C35 41.6569 36.3431 43 38 43Z"
        fill="white" />
    <path
        d="M45 9C40.22 9 36.02 11.4 33.5 15.04C32.68 15.02 31.86 15 31 15C22.16 15 15 16 15 23V43C15 44.76 15.78 46.34 17 47.44V51C17 52.1 17.9 53 19 53H21C22.1 53 23 52.1 23 51V49H39V51C39 52.1 39.9 53 41 53H43C44.1 53 45 52.1 45 51V47.44C46.22 46.34 47 44.76 47 43V36.84C53.78 35.86 59 30.06 59 23C59 15.26 52.74 9 45 9ZM31 19H31.58C31.4 19.64 31.26 20.32 31.16 20.98H19.68C20.78 19.92 23.62 19 31 19ZM19 24.98H31.16C31.48 27.2 32.3 29.24 33.52 31H19V24.98ZM43 43C43 43.74 42.58 44.24 42.32 44.46L41.74 45H20.26L19.68 44.46C19.42 44.24 19 43.74 19 43V35H37.82C39.38 35.94 41.12 36.58 43 36.84V43ZM45 33C39.48 33 35 28.52 35 23C35 17.48 39.48 13 45 13C50.52 13 55 17.48 55 23C55 28.52 50.52 33 45 33ZM46 15H43V25L50.24 29.32L51.74 26.86L46 23.5V15Z"
        fill="white" />
</svg>