<svg xmlns="http://www.w3.org/2000/svg" width="16" height="16" viewBox="0 0 16 16" fill="none">
    <g clip-path="url(#clip0_168_1686)">
        <path
            d="M13.7074 12.8536C13.7294 12.8287 13.7513 12.8023 13.7718 12.7774C13.7894 12.7569 13.8055 12.7364 13.8231 12.7159C13.8421 12.6925 13.8612 12.669 13.8802 12.6442C13.8978 12.6222 13.9139 12.6002 13.9315 12.5782C13.949 12.5548 13.9681 12.5314 13.9856 12.5079C14.0032 12.486 14.0193 12.4625 14.0354 12.4406C14.053 12.4171 14.0706 12.3937 14.0882 12.3688C14.1043 12.3454 14.1204 12.3234 14.1365 12.3C14.1541 12.2751 14.1702 12.2516 14.1878 12.2268C14.2039 12.2033 14.2185 12.1813 14.2346 12.1579C14.2507 12.133 14.2683 12.1081 14.2844 12.0832C14.2991 12.0598 14.3152 12.0364 14.3298 12.0129C14.3459 11.988 14.362 11.9617 14.3781 11.9353C14.3928 11.9119 14.4074 11.8884 14.4206 11.865C14.4367 11.8386 14.4528 11.8108 14.469 11.783C14.4821 11.761 14.4953 11.7376 14.5085 11.7156C14.5261 11.6849 14.5436 11.6541 14.5612 11.6219C14.5715 11.6028 14.5832 11.5838 14.5934 11.5633L14.6725 11.4139C14.6828 11.3949 14.6916 11.3758 14.7018 11.3553C14.7179 11.3231 14.734 11.2909 14.7501 11.2572C14.7604 11.2352 14.7721 11.2118 14.7824 11.1898C14.797 11.1605 14.8102 11.1298 14.8248 11.1005C14.8351 11.0771 14.8468 11.0522 14.8571 11.0287C14.8702 10.9994 14.8834 10.9702 14.8951 10.9409C14.9054 10.916 14.9156 10.8911 14.9259 10.8676C14.9376 10.8383 14.9508 10.8091 14.9625 10.7798C14.9728 10.7549 14.9815 10.73 14.9918 10.7051C15.0035 10.6758 15.0152 10.645 15.0255 10.6157C15.0343 10.5908 15.0445 10.5659 15.0533 10.541C15.065 10.5103 15.0753 10.4795 15.0855 10.4488C15.0943 10.4239 15.1031 10.399 15.1104 10.3741L15.1412 10.2774C15.1485 10.254 15.1558 10.2306 15.1646 10.2057C15.1749 10.1705 15.1851 10.1368 15.1954 10.1017C15.2012 10.0797 15.2086 10.0592 15.2144 10.0372C15.2276 9.99183 15.2393 9.94789 15.251 9.90249C15.254 9.89077 15.2569 9.87906 15.2613 9.86734C15.2759 9.81022 15.2906 9.7531 15.3037 9.69599C15.3081 9.67695 15.3125 9.65937 15.3155 9.64033L15.3418 9.5217C15.3462 9.49827 15.3506 9.47484 15.355 9.45287C15.3623 9.41772 15.3697 9.38257 15.3755 9.34596L15.3887 9.27126C15.3946 9.23758 15.4004 9.20243 15.4063 9.16874C15.4107 9.14385 15.4136 9.11748 15.418 9.09259C15.4224 9.0589 15.4282 9.02375 15.4326 8.99007C15.4356 8.96371 15.44 8.93881 15.4429 8.91245C15.4473 8.87876 15.4517 8.84361 15.4546 8.80993C15.4575 8.78356 15.4605 8.75867 15.4634 8.7323L15.4722 8.62686C15.4736 8.60196 15.4766 8.5756 15.478 8.5507C15.481 8.51408 15.4824 8.47747 15.4854 8.44086C15.4868 8.41742 15.4883 8.39253 15.4897 8.36909L15.4941 8.24607C15.4941 8.22557 15.4956 8.20506 15.4956 8.18602C15.4971 8.12451 15.4985 8.063 15.4985 8.00149C15.4985 5.82076 14.5627 3.85531 13.0718 2.48448L13.0659 2.47862C13.0264 2.44201 12.9854 2.40686 12.9458 2.37025C12.9414 2.36732 12.9385 2.36292 12.9341 2.35999L12.8155 2.25894C12.8096 2.25455 12.8038 2.24869 12.7979 2.24429C12.7598 2.21207 12.7203 2.17985 12.6807 2.1491C12.6734 2.14324 12.6661 2.13738 12.6602 2.13152C12.6221 2.10077 12.5841 2.07148 12.5445 2.04218C12.5357 2.03633 12.5284 2.029 12.5196 2.02314C12.4815 1.99532 12.4435 1.96603 12.4054 1.9382C12.3951 1.93088 12.3864 1.92355 12.3761 1.91623C12.3395 1.88987 12.3014 1.86351 12.2633 1.83715C12.2516 1.82982 12.2414 1.82104 12.2296 1.81371C12.193 1.78881 12.155 1.76392 12.1183 1.73902C12.1066 1.73023 12.0934 1.72291 12.0817 1.71412C12.0451 1.69069 12.0085 1.66726 11.9704 1.64382C11.9572 1.63504 11.9441 1.62771 11.9309 1.61893C11.8943 1.59696 11.8576 1.57352 11.821 1.55156L11.7771 1.52519C11.7405 1.50469 11.7053 1.48272 11.6687 1.46222C11.6526 1.45343 11.638 1.44464 11.6219 1.43586C11.5867 1.41535 11.5501 1.39631 11.5135 1.37727C11.4974 1.36849 11.4798 1.3597 11.4637 1.35091C11.4285 1.33187 11.3919 1.3143 11.3568 1.29672C11.3392 1.28793 11.3216 1.27915 11.3026 1.27036C11.2674 1.25278 11.2323 1.23521 11.1971 1.2191L11.14 1.19274L11.0346 1.14441C11.0141 1.13562 10.995 1.12683 10.9745 1.11804C10.9394 1.1034 10.9057 1.08875 10.8705 1.07411C10.85 1.06532 10.8281 1.05653 10.8076 1.04775C10.7739 1.0331 10.7387 1.01992 10.705 1.00674C10.6831 0.997951 10.6611 0.990628 10.6391 0.981841C10.6054 0.96866 10.5703 0.956943 10.5366 0.943762C10.5132 0.934975 10.4912 0.927652 10.4678 0.918865L10.3667 0.883715C10.3433 0.876392 10.3184 0.867605 10.295 0.860282C10.2613 0.85003 10.2276 0.838314 10.1954 0.828062L10.1207 0.806093C10.087 0.795841 10.0548 0.787054 10.0211 0.776802C9.99473 0.769479 9.96983 0.762156 9.94347 0.756298C9.91125 0.747511 9.87756 0.738723 9.84534 0.729936C9.81898 0.722613 9.79115 0.716755 9.76479 0.709432C9.73257 0.702109 9.70035 0.693322 9.66813 0.685999C9.6403 0.680141 9.61248 0.674283 9.58465 0.66696C9.55243 0.659637 9.52168 0.653779 9.48946 0.646456C9.46016 0.640598 9.43087 0.634739 9.40158 0.630346C9.37083 0.624488 9.33861 0.618629 9.30785 0.612771C9.27856 0.606913 9.2478 0.602519 9.21705 0.598125C9.18629 0.593732 9.15554 0.587873 9.12478 0.58348C9.09402 0.579086 9.0618 0.574692 9.03105 0.570299C9.00029 0.565905 8.971 0.561511 8.94025 0.558582C8.90803 0.554189 8.87581 0.551259 8.84212 0.546866C8.81283 0.543937 8.78354 0.539543 8.75425 0.536614L8.65319 0.527826C8.62537 0.524897 8.59608 0.521968 8.56825 0.520504C8.53163 0.517574 8.49502 0.51611 8.45987 0.513181L8.38079 0.508787C8.33831 0.507323 8.29731 0.505858 8.25483 0.504393C8.23286 0.504393 8.21236 0.502929 8.19039 0.501464C8.12742 0.5 8.06298 0.498535 8 0.498535C7.93556 0.498535 7.87258 0.5 7.80961 0.501464C7.78764 0.501464 7.76714 0.502929 7.74517 0.504393C7.70269 0.505858 7.66169 0.507323 7.61922 0.508787L7.54013 0.513181C7.50352 0.51611 7.4669 0.517574 7.43175 0.520504C7.40246 0.521968 7.37463 0.524897 7.34681 0.527826L7.24575 0.536614C7.21646 0.539543 7.18717 0.542472 7.15788 0.546866C7.12566 0.551259 7.09344 0.554189 7.05975 0.558582C7.029 0.562976 6.99971 0.56737 6.96895 0.570299C6.9382 0.574692 6.90598 0.579086 6.87522 0.58348C6.84446 0.587873 6.81371 0.593732 6.78295 0.598125C6.7522 0.602519 6.72291 0.608377 6.69215 0.612771C6.66139 0.618629 6.62917 0.624488 6.59842 0.630346C6.56913 0.636204 6.53984 0.640598 6.51054 0.646456C6.47832 0.652314 6.44757 0.659637 6.41535 0.66696C6.38752 0.672818 6.3597 0.678676 6.33187 0.685999C6.29965 0.693322 6.26743 0.700645 6.23521 0.709432C6.20885 0.71529 6.18102 0.722613 6.15466 0.729936C6.12244 0.738723 6.08875 0.747511 6.05653 0.756298C6.03017 0.763621 6.00527 0.769479 5.97891 0.776802C5.94523 0.785589 5.913 0.795841 5.87932 0.806093L5.80463 0.828062C5.77094 0.838314 5.73726 0.848566 5.70504 0.860282C5.6816 0.867605 5.65671 0.876392 5.63327 0.883715L5.53222 0.918865C5.50879 0.926187 5.48682 0.934975 5.46339 0.943762C5.4297 0.955479 5.39455 0.96866 5.36087 0.981841C5.3389 0.990628 5.31693 0.997951 5.29496 1.00674C5.25981 1.01992 5.22613 1.03456 5.19244 1.04775C5.17194 1.05653 5.14997 1.06532 5.12947 1.07411C5.09432 1.08875 5.06063 1.1034 5.02548 1.11804C5.00498 1.12683 4.98594 1.13562 4.96544 1.14441L4.85999 1.19274L4.80287 1.2191C4.76772 1.23521 4.73257 1.25278 4.69742 1.27036C4.67985 1.27915 4.66227 1.28793 4.64323 1.29672C4.60808 1.3143 4.57147 1.33334 4.53632 1.35091C4.51875 1.3597 4.50264 1.36849 4.48653 1.37727C4.44991 1.39631 4.41476 1.41682 4.37815 1.43586C4.36204 1.44464 4.34739 1.45343 4.33128 1.46222C4.29467 1.48272 4.25805 1.50322 4.22144 1.52519C4.2068 1.53398 4.19215 1.54277 4.1775 1.55009C4.14089 1.57206 4.10428 1.59403 4.06766 1.61746C4.05448 1.62625 4.0413 1.63357 4.02812 1.64236C3.99151 1.66579 3.95343 1.68922 3.91681 1.71266C3.9051 1.71998 3.89192 1.72877 3.8802 1.73755C3.84212 1.76245 3.80551 1.78735 3.76889 1.81225C3.75718 1.81957 3.74692 1.82689 3.73521 1.83568C3.69713 1.86204 3.66052 1.8884 3.62244 1.91477C3.61218 1.92209 3.6034 1.92941 3.59315 1.93674C3.55507 1.96456 3.51699 1.99239 3.47891 2.02168C3.47012 2.02754 3.4628 2.03486 3.45401 2.04072C3.41593 2.07001 3.37639 2.10077 3.33831 2.13006C3.33099 2.13592 3.32367 2.14177 3.31781 2.14763C3.27827 2.17839 3.24019 2.21061 3.20064 2.24283C3.19479 2.24722 3.18893 2.25308 3.18307 2.25747L3.06444 2.35853C3.06005 2.36146 3.05712 2.36585 3.05272 2.36878C3.01172 2.40393 2.97217 2.44054 2.93263 2.47716L2.92677 2.48302C1.43439 3.85385 0.498535 5.81929 0.498535 8.00002C0.498535 8.06153 0.5 8.12305 0.501464 8.18456C0.501464 8.20506 0.502929 8.22557 0.502929 8.24461L0.507323 8.36763C0.508787 8.39106 0.510252 8.41596 0.511716 8.43939C0.513181 8.47601 0.51611 8.51262 0.519039 8.54923C0.520504 8.57413 0.523433 8.60049 0.524897 8.62539L0.533685 8.73084C0.536614 8.7572 0.539543 8.7821 0.542472 8.80846C0.546866 8.84361 0.549795 8.8773 0.554188 8.91098C0.557117 8.93734 0.560047 8.96224 0.56444 8.9886C0.568834 9.02229 0.573228 9.05744 0.579086 9.09112C0.58348 9.11602 0.586409 9.14238 0.590802 9.16728C0.596661 9.20243 0.602519 9.23611 0.608377 9.27126L0.621558 9.34596C0.627416 9.38111 0.634739 9.41625 0.642062 9.45287C0.646455 9.4763 0.650849 9.49973 0.655243 9.5217L0.681605 9.64033C0.685999 9.65937 0.688928 9.67695 0.693321 9.69599C0.706502 9.7531 0.721148 9.81022 0.735794 9.86734C0.738723 9.87906 0.741652 9.89077 0.746045 9.90249C0.757762 9.94789 0.769478 9.99329 0.782659 10.0372C0.788518 10.0592 0.79584 10.0797 0.801699 10.1017C0.811951 10.1368 0.822202 10.172 0.832454 10.2057C0.839777 10.2291 0.8471 10.2525 0.854423 10.2774L0.885178 10.3741C0.893966 10.399 0.902753 10.4239 0.910076 10.4473C0.920328 10.4781 0.932044 10.5088 0.942296 10.5396C0.951084 10.5645 0.959871 10.5894 0.970123 10.6143C0.981839 10.6436 0.992091 10.6743 1.00381 10.7036C1.01406 10.7285 1.02285 10.7534 1.0331 10.7783C1.04482 10.8076 1.05653 10.8369 1.06971 10.8662C1.07996 10.8911 1.09022 10.916 1.10047 10.9394C1.11365 10.9687 1.12537 10.998 1.13855 11.0273C1.1488 11.0507 1.16052 11.0756 1.17077 11.099C1.18395 11.1283 1.19859 11.1591 1.21177 11.1884C1.22203 11.2118 1.23374 11.2338 1.244 11.2572C1.26011 11.2894 1.27622 11.3217 1.29233 11.3553C1.30258 11.3744 1.31136 11.3934 1.32162 11.4139L1.4007 11.5633C1.41095 11.5823 1.42267 11.6014 1.43292 11.6219C1.4505 11.6526 1.46661 11.6834 1.48565 11.7142C1.49883 11.7361 1.51201 11.7596 1.52519 11.7815C1.5413 11.8094 1.55741 11.8357 1.57352 11.8635C1.58817 11.887 1.60281 11.9104 1.61599 11.9338C1.6321 11.9602 1.64821 11.9851 1.66432 12.0115C1.67897 12.0349 1.69508 12.0583 1.70972 12.0818C1.72583 12.1067 1.74194 12.1316 1.75952 12.1565C1.77563 12.1799 1.79028 12.2033 1.80639 12.2253C1.8225 12.2502 1.84007 12.2736 1.85764 12.2985C1.87375 12.3219 1.88987 12.3439 1.90598 12.3673C1.92355 12.3908 1.94112 12.4157 1.9587 12.4391C1.97481 12.4611 1.99238 12.4845 2.00849 12.5065C2.02607 12.5299 2.04511 12.5533 2.06268 12.5768C2.08026 12.5987 2.09637 12.6207 2.11394 12.6427C2.13298 12.6661 2.15202 12.691 2.17106 12.7144C2.18863 12.735 2.20474 12.7555 2.22232 12.7774C2.24429 12.8038 2.26479 12.8287 2.28676 12.8536C2.44933 13.044 2.62068 13.227 2.80228 13.4013C2.84329 13.4394 2.88284 13.479 2.92531 13.517C2.92824 13.5185 2.9297 13.5214 2.93263 13.5229C2.97217 13.5595 3.01172 13.5947 3.05272 13.6313C3.05712 13.6342 3.06005 13.6386 3.06444 13.6415C3.10398 13.6752 3.14206 13.7089 3.1816 13.7426C3.18746 13.747 3.19332 13.7528 3.19918 13.7572C3.23726 13.7894 3.2768 13.8202 3.31488 13.8524C3.3222 13.8583 3.32953 13.8641 3.33538 13.87C3.37346 13.9007 3.41154 13.93 3.44962 13.9593C3.45841 13.9652 3.46719 13.9725 3.47598 13.9784C3.51406 14.0062 3.55214 14.0355 3.59022 14.0633C3.60047 14.0706 3.60926 14.078 3.61951 14.0853C3.65612 14.1116 3.6942 14.138 3.73228 14.1644C3.744 14.1717 3.75425 14.1805 3.76596 14.1878C3.80258 14.2127 3.84066 14.2376 3.87727 14.2625C3.88899 14.2713 3.90217 14.2786 3.91388 14.2874L4.02373 14.3577C4.03691 14.3665 4.05009 14.3753 4.06473 14.3826L4.17458 14.4485L4.21851 14.4749C4.25513 14.4954 4.29028 14.5173 4.32689 14.5378C4.343 14.5466 4.35764 14.5554 4.37375 14.5642C4.4089 14.5847 4.44552 14.6037 4.48213 14.6228C4.49971 14.6316 4.51582 14.6403 4.53339 14.6491C4.56854 14.6682 4.60369 14.6858 4.6403 14.7033C4.65788 14.7121 4.67545 14.7209 4.69449 14.7297C4.72964 14.7473 4.76479 14.7634 4.79994 14.7809L4.85706 14.8073L4.96251 14.8556C4.98301 14.8644 5.00205 14.8732 5.02255 14.882C5.0577 14.8966 5.09139 14.9113 5.12654 14.9259C5.14704 14.9347 5.16901 14.9435 5.18951 14.9523C5.2232 14.9669 5.25835 14.9801 5.2935 14.9933C5.31547 15.0021 5.33743 15.0094 5.3594 15.0182C5.39309 15.0314 5.42824 15.0446 5.46192 15.0563C5.48535 15.0651 5.50732 15.0724 5.53076 15.0812L5.63181 15.1163C5.65524 15.1237 5.68014 15.1324 5.70357 15.1398C5.73726 15.15 5.76948 15.1617 5.80316 15.172L5.87786 15.194C5.91008 15.2042 5.94376 15.213 5.97745 15.2232C6.00381 15.2306 6.02871 15.2379 6.05507 15.2437C6.08729 15.2525 6.12097 15.2613 6.15319 15.2701C6.17955 15.2774 6.20738 15.2833 6.23374 15.2906C6.26596 15.2979 6.29818 15.3067 6.3304 15.314C6.35823 15.3199 6.38606 15.3258 6.41388 15.3331C6.4461 15.3404 6.47686 15.3463 6.50908 15.3536C6.53837 15.3594 6.56766 15.3653 6.59549 15.3697C6.62625 15.3756 6.65846 15.3814 6.68922 15.3873C6.71851 15.3931 6.74927 15.3975 6.78002 15.4019C6.81078 15.4063 6.84153 15.4122 6.87229 15.4166C6.90305 15.421 6.93527 15.4254 6.96602 15.4297C6.99678 15.4341 7.02607 15.4385 7.05682 15.4415C7.08905 15.4459 7.12127 15.4488 7.15495 15.4532C7.18424 15.4561 7.21353 15.4605 7.24282 15.4634L7.34388 15.4722C7.3717 15.4752 7.401 15.4781 7.42882 15.4795C7.46544 15.4825 7.50205 15.4839 7.5372 15.4869L7.61629 15.4913C7.65876 15.4927 7.69977 15.4942 7.74224 15.4957C7.76421 15.4957 7.78471 15.4971 7.80668 15.4986C7.86965 15.5 7.93409 15.5015 7.99707 15.5015C8.06151 15.5015 8.12449 15.5 8.18746 15.4986C8.20943 15.4986 8.22994 15.4971 8.2519 15.4957C8.29438 15.4942 8.33538 15.4927 8.37786 15.4913L8.45694 15.4869C8.49356 15.4839 8.53017 15.4825 8.56532 15.4795C8.59461 15.4781 8.62244 15.4752 8.65026 15.4722L8.75132 15.4634C8.78061 15.4605 8.8099 15.4576 8.83919 15.4532C8.87141 15.4488 8.90363 15.4459 8.93732 15.4415C8.96807 15.4371 8.99736 15.4327 9.02812 15.4297C9.05888 15.4254 9.09109 15.421 9.12185 15.4166C9.15261 15.4122 9.18336 15.4063 9.21412 15.4019C9.24487 15.3975 9.27417 15.3917 9.30492 15.3873C9.33568 15.3814 9.3679 15.3756 9.39865 15.3697C9.42794 15.3638 9.45724 15.3594 9.48506 15.3536C9.51728 15.3477 9.54804 15.3404 9.58026 15.3331C9.60808 15.3272 9.63591 15.3214 9.66374 15.314C9.69596 15.3067 9.72818 15.2994 9.7604 15.2906C9.78676 15.2848 9.81459 15.2774 9.84095 15.2701C9.87317 15.2613 9.90685 15.2525 9.93907 15.2437C9.96544 15.2364 9.99033 15.2306 10.0167 15.2232C10.0504 15.2145 10.0826 15.2042 10.1163 15.194L10.191 15.172C10.2247 15.1617 10.2583 15.1515 10.2906 15.1398C10.314 15.1324 10.3389 15.1237 10.3623 15.1163L10.4634 15.0812C10.4868 15.0739 10.5088 15.0651 10.5322 15.0563C10.5659 15.0446 10.6011 15.0314 10.6347 15.0182C10.6567 15.0094 10.6787 15.0021 10.7006 14.9933C10.7358 14.9801 10.7695 14.9655 10.8046 14.9523C10.8251 14.9435 10.8471 14.9347 10.8676 14.9259C10.9028 14.9113 10.9379 14.8966 10.9716 14.882C10.9921 14.8732 11.0111 14.8644 11.0316 14.8556L11.1371 14.8073L11.1942 14.7809C11.2294 14.7648 11.2645 14.7473 11.2996 14.7297C11.3172 14.7209 11.3363 14.7121 11.3538 14.7033C11.389 14.6858 11.4256 14.6667 11.4607 14.6491C11.4783 14.6403 11.4944 14.6316 11.512 14.6228C11.5486 14.6037 11.5838 14.5847 11.6204 14.5642C11.6365 14.5554 11.6511 14.5466 11.6673 14.5378C11.7039 14.5173 11.7405 14.4968 11.7756 14.4749L11.8196 14.4485L11.9294 14.3826C11.9426 14.3738 11.9558 14.365 11.9704 14.3577L12.0803 14.2874C12.092 14.2801 12.1052 14.2713 12.1169 14.2625C12.1535 14.2376 12.1916 14.2127 12.2282 14.1878C12.2399 14.1805 12.2501 14.1717 12.2619 14.1644C12.2999 14.138 12.3366 14.1116 12.3746 14.0853C12.3849 14.078 12.3937 14.0706 12.4039 14.0633C12.442 14.0355 12.4801 14.0077 12.5182 13.9784C12.5269 13.9725 12.5357 13.9652 12.5445 13.9593C12.5826 13.93 12.6221 13.9007 12.6588 13.87C12.6661 13.8641 12.6734 13.8583 12.6793 13.8524C12.7188 13.8217 12.7569 13.7894 12.795 13.7572C12.8008 13.7528 12.8067 13.747 12.8125 13.7426C12.8521 13.7089 12.8916 13.6752 12.9297 13.6415C12.9341 13.6386 12.937 13.6342 12.9414 13.6313C12.9824 13.5961 13.022 13.5595 13.0615 13.5229C13.0644 13.5214 13.0659 13.5185 13.0688 13.517C13.1098 13.479 13.1508 13.4409 13.1919 13.4013C13.3735 13.2285 13.5448 13.0454 13.7074 12.8536ZM14.8248 8.50969C14.8234 8.53312 14.8204 8.55802 14.819 8.58146L14.8102 8.67812C14.8073 8.70301 14.8043 8.72791 14.8029 8.75281C14.7999 8.78356 14.7955 8.81432 14.7926 8.84508C14.7897 8.86997 14.7868 8.89487 14.7824 8.91977C14.778 8.95052 14.7736 8.97982 14.7692 9.00911C14.7648 9.034 14.7619 9.06037 14.7575 9.08526C14.7531 9.11456 14.7472 9.14385 14.7428 9.17314C14.7384 9.19804 14.734 9.2244 14.7296 9.24929C14.7238 9.27859 14.7194 9.30788 14.7135 9.3357C14.7091 9.3606 14.7033 9.38696 14.6974 9.41186C14.6916 9.44115 14.6857 9.46898 14.6784 9.49681C14.6725 9.5217 14.6667 9.5466 14.6608 9.57296C14.6535 9.60079 14.6476 9.63008 14.6403 9.65791C14.6344 9.68281 14.6286 9.7077 14.6213 9.7326C14.6139 9.76043 14.6066 9.78825 14.5978 9.81754C14.5905 9.84244 14.5847 9.86734 14.5773 9.89077C14.5685 9.9186 14.5612 9.94643 14.5524 9.97425C14.5451 9.99915 14.5378 10.0226 14.5305 10.0475C14.5217 10.0753 14.5129 10.1031 14.5026 10.131C14.4953 10.1544 14.488 10.1778 14.4792 10.2027C14.469 10.232 14.4587 10.2613 14.4484 10.2891C14.4411 10.3111 14.4323 10.3331 14.425 10.355C14.4074 10.4048 14.3884 10.4532 14.3694 10.503C14.3606 10.5264 14.3503 10.5513 14.3401 10.5747C14.3298 10.6011 14.3196 10.626 14.3078 10.6523C14.2976 10.6772 14.2859 10.7021 14.2756 10.727C14.2654 10.7505 14.2551 10.7754 14.2434 10.7988C14.2317 10.8237 14.22 10.8501 14.2083 10.875C14.198 10.8984 14.1863 10.9218 14.176 10.9453C14.1643 10.9702 14.1511 10.9965 14.1394 11.0214C14.1277 11.0434 14.1175 11.0668 14.1057 11.0888C14.0926 11.1137 14.0794 11.1386 14.0662 11.1649L14.031 11.2308C14.0179 11.2557 14.0032 11.2806 13.99 11.307C13.9783 11.329 13.9666 11.3495 13.9534 11.3714L13.9095 11.4461C13.8978 11.4666 13.8846 11.4886 13.8729 11.5091C13.8582 11.534 13.8436 11.5589 13.8275 11.5838C13.8143 11.6043 13.8026 11.6248 13.7894 11.6453C13.7733 11.6702 13.7586 11.6951 13.7425 11.72C13.7294 11.7405 13.7162 11.7596 13.703 11.7786C13.6869 11.8035 13.6708 11.8284 13.6532 11.8518L13.6137 11.9089L13.5609 11.9836C13.5477 12.0012 13.5346 12.0188 13.5214 12.0378C13.5038 12.0627 13.4848 12.0876 13.4657 12.1125C13.4525 12.1286 13.4394 12.1462 13.4277 12.1623C13.4086 12.1872 13.3881 12.2136 13.3691 12.2385C13.3574 12.2531 13.3456 12.2678 13.3339 12.2809C13.312 12.3073 13.29 12.3351 13.268 12.3615C13.2636 12.3673 13.2592 12.3732 13.2534 12.3776C13.1919 12.4508 13.1289 12.5226 13.0659 12.5944C12.5489 12.3498 11.9646 12.1433 11.326 11.9822C11.6643 10.9291 11.8694 9.69452 11.9016 8.36031H14.8307C14.8292 8.37642 14.8292 8.39399 14.8278 8.4101C14.8292 8.44232 14.8278 8.47601 14.8248 8.50969ZM11.7156 13.7455C11.6775 13.7704 11.6394 13.7938 11.6013 13.8173C11.594 13.8217 11.5882 13.8261 11.5808 13.8304C11.5457 13.8524 11.5091 13.8744 11.4725 13.8949C11.4637 13.9007 11.4534 13.9066 11.4446 13.911C11.4095 13.9315 11.3758 13.9505 11.3407 13.971C11.3289 13.9769 11.3187 13.9842 11.307 13.9901C11.2733 14.0091 11.2381 14.0282 11.2045 14.0457C11.1927 14.0531 11.1796 14.0589 11.1678 14.0648L11.0668 14.1175C11.0536 14.1248 11.0404 14.1307 11.0272 14.138C10.9936 14.1541 10.9599 14.1717 10.9262 14.1878C10.913 14.1937 10.8984 14.201 10.8852 14.2068C10.8515 14.2229 10.8178 14.2391 10.7827 14.2537C10.7695 14.2596 10.7548 14.2654 10.7417 14.2713C10.7065 14.2859 10.6728 14.302 10.6377 14.3167C10.6245 14.3225 10.6128 14.3269 10.5996 14.3328L10.4897 14.3767C10.481 14.3797 10.4722 14.3841 10.4634 14.387C10.3345 14.4368 10.2042 14.4822 10.0709 14.5246L10.0445 14.5334C10.0123 14.5437 9.98008 14.5525 9.94933 14.5627C9.93615 14.5671 9.9215 14.5715 9.90832 14.5744C10.377 14.0824 10.7841 13.4116 11.1078 12.6061C11.6365 12.7379 12.1286 12.9019 12.5694 13.0923C12.3058 13.3296 12.0231 13.5463 11.7244 13.7396C11.72 13.7426 11.717 13.744 11.7156 13.7455ZM5.95255 14.5349L5.92619 14.5261C5.79291 14.4836 5.66257 14.4382 5.53368 14.3884C5.5249 14.3855 5.51611 14.3826 5.50879 14.3782L5.39895 14.3343C5.38576 14.3284 5.37405 14.324 5.36087 14.3196C5.32572 14.305 5.29057 14.2903 5.25688 14.2742C5.2437 14.2684 5.22906 14.2625 5.21588 14.2566C5.18219 14.242 5.14704 14.2259 5.11336 14.2098C5.10018 14.2039 5.08553 14.1966 5.07235 14.1907C5.03866 14.1746 5.00498 14.1585 4.97129 14.1409C4.95811 14.1336 4.94493 14.1278 4.93175 14.1204L4.8307 14.0677C4.81898 14.0618 4.8058 14.0545 4.79408 14.0487C4.75893 14.0296 4.72525 14.0121 4.69156 13.993C4.67985 13.9872 4.6696 13.9813 4.65788 13.974C4.62273 13.9549 4.58758 13.9344 4.5539 13.9139C4.54511 13.9081 4.53486 13.9022 4.52607 13.8978C4.48945 13.8758 4.45431 13.8553 4.41769 13.8334C4.41037 13.829 4.40451 13.8246 4.39719 13.8217C4.35911 13.7982 4.32103 13.7733 4.28295 13.7499C4.28149 13.7484 4.27856 13.747 4.27709 13.7455C3.97832 13.5507 3.69713 13.3354 3.43351 13.0982C3.87434 12.9078 4.36643 12.7437 4.89514 12.6119C5.21734 13.4174 5.62595 14.0882 6.09461 14.5803C6.08143 14.5759 6.06678 14.5715 6.0536 14.5686C6.01552 14.5539 5.9833 14.5437 5.95255 14.5349ZM2.7232 12.36C2.70123 12.3337 2.67926 12.3058 2.65729 12.2795C2.64558 12.2648 2.63386 12.2516 2.62361 12.237C2.6031 12.2121 2.58407 12.1857 2.56503 12.1608C2.55185 12.1447 2.54013 12.1286 2.52695 12.111C2.50791 12.0862 2.49033 12.0613 2.47129 12.0364C2.45811 12.0188 2.44493 12.0012 2.43175 11.9822L2.37903 11.9075L2.33948 11.8504C2.32337 11.8255 2.3058 11.8006 2.28969 11.7757C2.27651 11.7566 2.26333 11.7361 2.25161 11.7171C2.2355 11.6922 2.21939 11.6673 2.20475 11.6424C2.19156 11.6219 2.17985 11.6014 2.16667 11.5809C2.15202 11.556 2.13591 11.5311 2.12127 11.5062C2.10808 11.4857 2.09637 11.4637 2.08465 11.4432C2.07001 11.4183 2.05536 11.3934 2.04218 11.3685C2.03046 11.3465 2.01875 11.326 2.00557 11.3041C1.99238 11.2792 1.97774 11.2543 1.96456 11.2294L1.92941 11.1635C1.91623 11.1386 1.90305 11.1137 1.88987 11.0873C1.87815 11.0654 1.8679 11.0419 1.85618 11.02C1.843 10.9951 1.83128 10.9687 1.81957 10.9438C1.80785 10.9204 1.7976 10.8969 1.78735 10.8735C1.77563 10.8486 1.76391 10.8237 1.7522 10.7973C1.74194 10.7739 1.73169 10.749 1.71998 10.7256C1.70972 10.7007 1.69801 10.6758 1.68776 10.6509C1.6775 10.6245 1.66579 10.5982 1.65554 10.5718C1.64528 10.5484 1.6365 10.5249 1.62624 10.5015C1.60721 10.4532 1.58817 10.4034 1.57059 10.3536C1.56327 10.3316 1.55448 10.3096 1.54716 10.2877L1.5164 10.1998C1.50908 10.1764 1.50029 10.1529 1.49297 10.128C1.48418 10.1002 1.47393 10.0724 1.46514 10.0446C1.45782 10.0197 1.4505 9.99622 1.44317 9.97132C1.43439 9.9435 1.4256 9.91567 1.41828 9.88784C1.41095 9.86295 1.4051 9.83805 1.39777 9.81315C1.39045 9.78533 1.38166 9.7575 1.37434 9.72821C1.36848 9.70331 1.36116 9.67841 1.3553 9.65351C1.34798 9.62569 1.34066 9.5964 1.3348 9.56857L1.31722 9.49388C1.31136 9.46459 1.30404 9.43676 1.29818 9.40747C1.29233 9.38257 1.28793 9.35767 1.28207 9.33131C1.27622 9.30202 1.27036 9.27273 1.26596 9.2449C1.26157 9.22 1.25718 9.19364 1.25278 9.16874C1.24839 9.13945 1.24253 9.11016 1.23814 9.08087C1.23374 9.05597 1.23081 9.02961 1.22642 9.00471C1.22203 8.97542 1.21763 8.94467 1.21324 8.91537C1.21031 8.89048 1.20592 8.86558 1.20299 8.84068C1.19859 8.80993 1.19566 8.77917 1.19274 8.74841C1.18981 8.72352 1.18688 8.69862 1.18541 8.67372L1.17663 8.57706C1.17516 8.55363 1.17223 8.52873 1.17077 8.5053C1.16784 8.47161 1.16637 8.43793 1.16491 8.40424C1.16344 8.38813 1.16344 8.37056 1.16198 8.35445H4.0911C4.12185 9.69013 4.32835 10.9233 4.66667 11.9763C4.02958 12.1374 3.44376 12.3439 2.92677 12.5885C2.86233 12.5167 2.79936 12.4435 2.73638 12.3703C2.73052 12.3703 2.72613 12.3659 2.7232 12.36ZM4.27856 2.25455C4.31664 2.22965 4.35472 2.20621 4.39279 2.18278C4.40012 2.17839 4.40598 2.17399 4.4133 2.1696C4.44845 2.14763 4.48506 2.12566 4.52168 2.10516C4.53046 2.0993 4.54071 2.09344 4.5495 2.08905C4.58465 2.06855 4.6198 2.04951 4.65349 2.029C4.6652 2.02314 4.67545 2.01582 4.68717 2.00996C4.72086 1.99092 4.756 1.97188 4.78969 1.95431C4.80141 1.94699 4.81459 1.94113 4.8263 1.93527L4.92736 1.88255C4.94054 1.87522 4.95372 1.86937 4.9669 1.86204C5.00059 1.84593 5.03427 1.82836 5.06796 1.81225C5.08114 1.80639 5.09578 1.79907 5.10896 1.79321C5.14265 1.7771 5.17633 1.76099 5.21148 1.74634C5.22466 1.74048 5.23931 1.73463 5.25249 1.72877C5.28764 1.71412 5.32279 1.69801 5.35647 1.68337C5.36965 1.67751 5.38137 1.67311 5.39455 1.66726C5.43117 1.65261 5.46778 1.6365 5.50439 1.62332C5.51318 1.62039 5.52197 1.616 5.53076 1.61307C5.65964 1.56327 5.78998 1.51787 5.92179 1.4754L5.94815 1.46661C5.98037 1.45636 6.0126 1.44757 6.04482 1.43732C6.058 1.43293 6.07118 1.42853 6.08582 1.4256C5.61716 1.9177 5.21002 2.58847 4.88635 3.39397C4.35764 3.26216 3.86555 3.09813 3.42472 2.90774C3.68834 2.67048 3.971 2.45373 4.26831 2.2604C4.27417 2.25747 4.27709 2.25601 4.27856 2.25455ZM10.0431 1.46515L10.0694 1.47393C10.2012 1.51641 10.333 1.56181 10.4619 1.6116C10.4707 1.61453 10.4795 1.61893 10.4883 1.62185L10.5981 1.66579C10.6113 1.67165 10.6245 1.67604 10.6362 1.6819C10.6714 1.69655 10.7065 1.71119 10.7402 1.7273C10.7534 1.73316 10.768 1.73902 10.7812 1.74488C10.8149 1.75952 10.85 1.77563 10.8837 1.79174C10.8969 1.7976 10.9115 1.80492 10.9247 1.81078C10.9584 1.82689 10.9921 1.843 11.0272 1.86058C11.0404 1.86644 11.0536 1.87376 11.0668 1.87962C11.1005 1.89719 11.1356 1.91477 11.1693 1.93234C11.181 1.9382 11.1942 1.94552 11.2059 1.95138C11.2396 1.97042 11.2748 1.988 11.3084 2.00703C11.3202 2.01289 11.3304 2.02022 11.3421 2.02607C11.3773 2.04511 11.4124 2.06562 11.4461 2.08612C11.4549 2.09198 11.4651 2.09784 11.4739 2.10223C11.5105 2.1242 11.5457 2.1447 11.5823 2.16667C11.5896 2.17107 11.5955 2.17546 11.6028 2.17985C11.6409 2.20329 11.679 2.22818 11.717 2.25162C11.7185 2.25308 11.7214 2.25455 11.7229 2.25601C12.0217 2.4508 12.3029 2.66755 12.568 2.90335C12.1271 3.09374 11.635 3.25777 11.1063 3.38958C10.7841 2.58407 10.3755 1.9133 9.90685 1.42121C9.92004 1.4256 9.93322 1.42853 9.9464 1.43293C9.97862 1.44611 10.0108 1.45489 10.0431 1.46515ZM11.9045 7.64121C11.8738 6.30552 11.6673 5.07236 11.3289 4.01934C11.966 3.85824 12.5518 3.65174 13.0688 3.40716C14.0955 4.53926 14.7487 6.01701 14.8336 7.64267H11.9045V7.64121ZM7.63825 3.75719C6.9089 3.73815 6.20445 3.66199 5.54687 3.5375C6.07411 2.26919 6.81517 1.39631 7.63825 1.19713V3.75719ZM7.63825 4.40892V7.64121H4.74136C4.77504 6.36704 4.98301 5.17195 5.31547 4.16433C6.03896 4.30493 6.81957 4.38988 7.63825 4.40892ZM7.63825 8.35884V11.5911C6.81957 11.6102 6.03896 11.6951 5.31547 11.8357C4.98301 10.8266 4.77504 9.63301 4.74136 8.35884H7.63825ZM7.63825 12.2429V14.8029C6.81517 14.6037 6.07411 13.7309 5.54687 12.4625C6.20592 12.3381 6.9089 12.2619 7.63825 12.2429ZM8.35589 12.2429C9.08524 12.2619 9.78969 12.3381 10.4473 12.4625C9.92004 13.7309 9.17897 14.6037 8.35589 14.8029V12.2429ZM8.35589 11.5911V8.35884H11.2528C11.2191 9.63301 11.0111 10.8281 10.6787 11.8357C9.95518 11.6951 9.17458 11.6102 8.35589 11.5911ZM8.35589 7.64121V4.40892C9.17458 4.38988 9.95518 4.30493 10.6787 4.16433C11.0111 5.17342 11.2191 6.36704 11.2528 7.64121H8.35589ZM8.35589 3.75719V1.19713C9.17897 1.39631 9.92004 2.26919 10.4473 3.5375C9.78822 3.66199 9.08524 3.73815 8.35589 3.75719ZM2.92531 3.40569C3.4423 3.65027 4.02665 3.85678 4.6652 4.01788C4.32689 5.0709 4.12185 6.30552 4.08963 7.63974H1.16052C1.244 6.01554 1.89719 4.53926 2.92531 3.40569Z"
            fill="#0E1B47" stroke="#0E1B47" stroke-width="0.187537" />
    </g>
    <defs>
        <clipPath id="clip0_168_1686">
            <rect width="16" height="16" fill="white" />
        </clipPath>
    </defs>
</svg>