<svg xmlns="http://www.w3.org/2000/svg" width="16" height="16" viewBox="0 0 16 16" fill="none">
    <g clip-path="url(#clip0_168_1218)">
        <path
            d="M9.85444 8.487C9.68425 8.31584 9.68424 8.03936 9.85443 7.86818C10.026 7.69562 10.3052 7.69561 10.4768 7.86816L11.1555 8.55069C11.1946 8.59001 11.2582 8.59001 11.2973 8.5507L14.6923 5.13692C14.7311 5.09791 14.7311 5.03489 14.6923 4.99588L11.1205 1.4045C11.0814 1.36518 11.0178 1.36518 10.9787 1.4045L7.58373 4.81828C7.54493 4.85729 7.54493 4.92031 7.58373 4.95932L8.00153 5.37943C8.17173 5.55057 8.17175 5.82705 8.00158 5.99821C7.83001 6.17078 7.55079 6.17077 7.37923 5.99821L6.88893 5.50504C6.50116 5.11499 6.50115 4.48501 6.88893 4.09496L10.251 0.713139C10.6419 0.319929 11.2781 0.319841 11.6692 0.712944L15.2986 4.36165C15.6866 4.75171 15.6866 5.38193 15.2986 5.77203L11.9355 9.15376C11.5445 9.54691 10.9083 9.54688 10.5173 9.15369L9.85444 8.487ZM5.95427 7.33989C6.13066 7.50684 6.13491 7.78631 5.96367 7.95855C5.79469 8.12851 5.51969 8.12853 5.35068 7.95859L4.93251 7.5381C4.89341 7.49879 4.82979 7.49879 4.79069 7.5381L1.39573 10.9519C1.35694 10.9909 1.35694 11.0539 1.39573 11.0929L4.96749 14.6843C5.00659 14.7236 5.07021 14.7236 5.1093 14.6843L8.50428 11.2705C8.54307 11.2315 8.54307 11.1685 8.50428 11.1295L7.82129 10.4426C7.65107 10.2714 7.65106 9.99494 7.82126 9.82375C7.99282 9.65119 8.27202 9.65115 8.44363 9.82366L9.11104 10.4946C9.49902 10.8846 9.49911 11.5147 9.11126 11.9049L5.74271 15.2932C5.35424 15.6839 4.72288 15.6868 4.33085 15.2996L0.713972 11.7275C0.320058 11.3385 0.317204 10.7034 0.707606 10.3109L4.08567 6.91413C4.46832 6.52936 5.08802 6.51999 5.48213 6.89302L5.95427 7.33989ZM10.3905 5.3817C10.5589 5.55193 10.5586 5.82617 10.3898 5.99603L5.30853 11.1075C5.15723 11.2597 4.91403 11.2691 4.75145 11.129C4.57256 10.9748 4.56099 10.7016 4.7262 10.5329L9.76882 5.38336C9.93923 5.20934 10.2191 5.20859 10.3905 5.3817Z"
            fill="#0E1B47" />
    </g>
    <defs>
        <clipPath id="clip0_168_1218">
            <rect width="16" height="16" fill="white" />
        </clipPath>
    </defs>
</svg>