<svg xmlns="http://www.w3.org/2000/svg" width="16" height="12" viewBox="0 0 16 12" fill="none">
    <path
        d="M0 1C0 0.447716 0.447715 0 1 0H15C15.5523 0 16 0.447715 16 1V11C16 11.5523 15.5523 12 15 12H1C0.447715 12 0 11.5523 0 11V1ZM1.1 1C1.04477 1 1 1.04477 1 1.1V10.9C1 10.9553 1.04477 11 1.1 11H14.9C14.9552 11 15 10.9553 15 10.9V1.1C15 1.04477 14.9552 1 14.9 1H1.1Z"
        fill="#0E1B47" />
    <path
        d="M8.70721 8.99301C8.31668 9.38354 7.68351 9.38354 7.29299 8.99301L0.100098 1.8001L0.800098 1.1001L7.64654 7.94656C7.8418 8.14183 8.15839 8.14183 8.35365 7.94656L15.2001 1.1001L15.9001 1.8001L8.70721 8.99301Z"
        fill="#0E1B47" />
    <path
        d="M5.00205 6.22399L5.70905 6.93099L0.829047 11.81L0.123047 11.103L5.00205 6.22399ZM10.889 6.16699L15.839 11.117L15.132 11.824L10.182 6.87399L10.889 6.16699Z"
        fill="#0E1B47" />
</svg>