<svg xmlns="http://www.w3.org/2000/svg" width="16" height="16" viewBox="0 0 16 16" fill="none">
    <path fill-rule="evenodd" clip-rule="evenodd"
        d="M1.99491 9.16561C2.32162 9.96987 2.80036 10.6998 3.40353 11.3134L7.99984 16L12.5961 11.314C13.1994 10.7005 13.6782 9.97049 14.005 9.16616C14.3318 8.36184 14.5 7.49911 14.5 6.62776C14.5 5.75642 14.3318 4.89369 14.005 4.08937C13.6782 3.28504 13.1994 2.55504 12.5961 1.94148C10.0578 -0.64716 5.94186 -0.64716 3.40353 1.94148C2.80036 2.55503 2.32162 3.28499 1.99491 4.08925C1.66821 4.89351 1.5 5.75616 1.5 6.62743C1.5 7.4987 1.66821 8.36135 1.99491 9.16561ZM8.76534 8.5145C8.52269 8.61501 8.26262 8.66674 7.99998 8.66674C7.46955 8.66674 6.96085 8.45603 6.58578 8.08096C6.21071 7.70589 6 7.19719 6 6.66676C6 6.13633 6.21071 5.62763 6.58578 5.25256C6.96085 4.87749 7.46955 4.66678 7.99998 4.66678C8.26262 4.66678 8.52269 4.71851 8.76534 4.81902C9.00799 4.91953 9.22846 5.06684 9.41418 5.25256C9.59989 5.43827 9.74721 5.65875 9.84772 5.9014C9.94823 6.14405 9.99996 6.40412 9.99996 6.66676C9.99996 6.9294 9.94823 7.18947 9.84772 7.43212C9.74721 7.67477 9.59989 7.89524 9.41418 8.08096C9.22846 8.26667 9.00799 8.41399 8.76534 8.5145Z"
        fill="#0E1B47" />
</svg>