<svg xmlns="http://www.w3.org/2000/svg" width="83" height="61" viewBox="0 0 83 61" fill="none">
    <path fill-rule="evenodd" clip-rule="evenodd"
        d="M1.5 16.3169H52.9864V2.5L81.5 30.5L52.9864 58.5V44.6831H1.5V16.3169Z" fill="#FFF2F0" />
    <path
        d="M1.5 16.3169V15.3169H0.5V16.3169H1.5ZM52.9864 16.3169V17.3169H53.9864V16.3169H52.9864ZM52.9864 2.5L53.6871 1.7865L51.9864 0.116477V2.5H52.9864ZM81.5 30.5L82.2007 31.2135L82.9272 30.5L82.2007 29.7865L81.5 30.5ZM52.9864 58.5H51.9864V60.8835L53.6871 59.2135L52.9864 58.5ZM52.9864 44.6831H53.9864V43.6831H52.9864V44.6831ZM1.5 44.6831H0.5V45.6831H1.5V44.6831ZM52.9864 15.3169H1.5V17.3169H52.9864V15.3169ZM51.9864 2.5V16.3169H53.9864V2.5H51.9864ZM82.2007 29.7865L53.6871 1.7865L52.2858 3.2135L80.7993 31.2135L82.2007 29.7865ZM53.6871 59.2135L82.2007 31.2135L80.7993 29.7865L52.2858 57.7865L53.6871 59.2135ZM51.9864 44.6831V58.5H53.9864V44.6831H51.9864ZM1.5 45.6831H52.9864V43.6831H1.5V45.6831ZM0.5 16.3169V44.6831H2.5V16.3169H0.5Z"
        fill="#D2331D" />
</svg>