<svg xmlns="http://www.w3.org/2000/svg" width="83" height="61" viewBox="0 0 83 61" fill="none">
    <path fill-rule="evenodd" clip-rule="evenodd" d="M1 16.3169H52.4864V2.5L81 30.5L52.4864 58.5V44.6831H1V16.3169Z"
        fill="#DFE4F2" />
    <path
        d="M1 16.3169V15.3169H0V16.3169H1ZM52.4864 16.3169V17.3169H53.4864V16.3169H52.4864ZM52.4864 2.5L53.1871 1.7865L51.4864 0.116477V2.5H52.4864ZM81 30.5L81.7007 31.2135L82.4272 30.5L81.7007 29.7865L81 30.5ZM52.4864 58.5H51.4864V60.8835L53.1871 59.2135L52.4864 58.5ZM52.4864 44.6831H53.4864V43.6831H52.4864V44.6831ZM1 44.6831H0V45.6831H1V44.6831ZM52.4864 15.3169H1V17.3169H52.4864V15.3169ZM51.4864 2.5V16.3169H53.4864V2.5H51.4864ZM81.7007 29.7865L53.1871 1.7865L51.7858 3.2135L80.2993 31.2135L81.7007 29.7865ZM53.1871 59.2135L81.7007 31.2135L80.2993 29.7865L51.7858 57.7865L53.1871 59.2135ZM51.4864 44.6831V58.5H53.4864V44.6831H51.4864ZM1 45.6831H52.4864V43.6831H1V45.6831ZM0 16.3169V44.6831H2V16.3169H0Z"
        fill="#6785C1" />
</svg>