<svg xmlns="http://www.w3.org/2000/svg" width="48" height="48" viewBox="0 0 48 48" fill="none">
    <path
        d="M24 5C15.16 5 8 6 8 13V33C8 34.76 8.78 36.34 10 37.44V41C10 42.1 10.9 43 12 43H14C15.1 43 16 42.1 16 41V39H32V41C32 42.1 32.9 43 34 43H36C37.1 43 38 42.1 38 41V37.44C39.22 36.34 40 34.76 40 33V13C40 6 32.84 5 24 5ZM35.32 10.98H12.68C13.78 9.92 16.62 9 24 9C31.38 9 34.22 9.92 35.32 10.98ZM36 14.98V21H12V14.98H36ZM35.32 34.46L34.74 35H13.26L12.68 34.46C12.42 34.24 12 33.74 12 33V25H36V33C36 33.74 35.58 34.24 35.32 34.46Z"
        fill="white" />
    <path
        d="M17 33C18.6569 33 20 31.6569 20 30C20 28.3431 18.6569 27 17 27C15.3431 27 14 28.3431 14 30C14 31.6569 15.3431 33 17 33Z"
        fill="white" />
    <path
        d="M31 33C32.6569 33 34 31.6569 34 30C34 28.3431 32.6569 27 31 27C29.3431 27 28 28.3431 28 30C28 31.6569 29.3431 33 31 33Z"
        fill="white" />
</svg>