<svg xmlns="http://www.w3.org/2000/svg" width="24" height="24" viewBox="0 0 24 24" fill="none">
    <path
        d="M4.80017 11.2C3.47537 11.2 2.40017 9.768 2.40017 8C2.40017 6.3952 3.28657 5.0656 4.44177 4.8352C5.52977 2.0192 8.50257 0 12.0002 0C15.4978 0 18.4722 2.0208 19.5586 4.8352C20.7138 5.0656 21.6002 6.3952 21.6002 8C21.6002 9.768 20.525 11.2 19.2002 11.2H18.4002V7.2C18.4002 4.1472 15.5698 1.6 12.0002 1.6C8.43057 1.6 5.60017 4.1472 5.60017 7.2V11.2H4.80017ZM0.844967 24C0.813513 23.7345 0.798551 23.4673 0.800167 23.2C0.800167 19.68 3.01137 16.6016 6.30737 14.9312C7.95558 16.1483 9.9513 16.8034 12.0002 16.8C14.049 16.8034 16.0447 16.1483 17.693 14.9312C20.989 16.6016 23.2002 19.68 23.2002 23.2C23.2002 23.4928 23.1842 23.76 23.1554 24H0.844967ZM12.0002 14.4C11.2648 14.4 10.5366 14.2552 9.85714 13.9737C9.17772 13.6923 8.56038 13.2798 8.04037 12.7598C7.52036 12.2398 7.10787 11.6224 6.82644 10.943C6.54502 10.2636 6.40017 9.5354 6.40017 8.8C6.40017 8.0646 6.54502 7.3364 6.82644 6.65697C7.10787 5.97755 7.52036 5.36021 8.04037 4.8402C8.56038 4.32019 9.17772 3.9077 9.85714 3.62627C10.5366 3.34485 11.2648 3.2 12.0002 3.2C13.4854 3.2 14.9098 3.79 15.96 4.8402C17.0102 5.89041 17.6002 7.31479 17.6002 8.8C17.6002 10.2852 17.0102 11.7096 15.96 12.7598C14.9098 13.81 13.4854 14.4 12.0002 14.4Z"
        fill="#597BE5" />
</svg>