<svg xmlns="http://www.w3.org/2000/svg" width="25" height="25" viewBox="0 0 25 25" fill="none">
    <path fill-rule="evenodd" clip-rule="evenodd"
        d="M5.00668 6.12656C9.37903 2.61908 15.6252 2.61908 19.9976 6.12656C20.5021 6.53497 21.2468 6.51095 21.7273 6.05449C22.2558 5.52597 22.2318 4.63708 21.6312 4.15661C16.3219 -0.0956222 8.73038 -0.0715985 3.44513 4.22868C2.89258 4.68513 2.84453 5.50194 3.32501 6.03047C3.75744 6.48692 4.50218 6.53497 5.00668 6.12656ZM2.46018 13.0697H22.5442C22.8805 13.0697 23.2168 13.2139 23.4571 13.4301C23.6733 13.6703 23.8174 13.9826 23.8174 14.3189V23.7363C23.8174 24.0726 23.6973 24.385 23.4571 24.6252C23.2168 24.8414 22.9045 24.9856 22.5682 24.9856H2.46018C1.76349 24.9856 1.21094 24.433 1.21094 23.7363V14.3189C1.21094 13.9826 1.33106 13.6703 1.5713 13.4301C1.81153 13.2139 2.12385 13.0697 2.46018 13.0697ZM4.33404 20.6132H8.10579V16.8415H4.33404V20.6132ZM10.6283 18.7393H20.6703V16.8415H10.6283V18.7393ZM7.45715 10.4031C10.4361 8.16884 14.5682 8.16884 17.5472 10.4031C18.0517 10.7874 18.7724 10.7634 19.2048 10.2829C19.7574 9.73039 19.6613 8.8415 19.0607 8.38505C15.1688 5.47816 9.81149 5.47816 5.94364 8.38505C5.34305 8.8415 5.27098 9.73039 5.7995 10.2829C6.23193 10.7394 6.95265 10.7874 7.45715 10.4031Z"
        fill="#597BE5" />
</svg>