<svg xmlns="http://www.w3.org/2000/svg" width="24" height="24" viewBox="0 0 24 24" fill="none">
    <path
        d="M23.028 4.38675H6.16412L5.80812 3.05661C5.76175 2.90123 5.68297 2.75744 5.57698 2.63471C5.47099 2.51199 5.3402 2.41312 5.19322 2.34462L1.45168 0.687936C1.32756 0.633033 1.19384 0.603118 1.05816 0.5999C0.922478 0.596682 0.787491 0.620223 0.660907 0.669179C0.534324 0.718136 0.418624 0.791548 0.320416 0.885224C0.222208 0.978901 0.143414 1.09101 0.0885361 1.21514C0.0335691 1.33921 0.00358708 1.4729 0.000302631 1.60856C-0.00298181 1.74423 0.0204957 1.87921 0.0693941 2.0058C0.118293 2.13239 0.191654 2.2481 0.285286 2.34633C0.378918 2.44456 0.490987 2.52338 0.615089 2.57828L3.93428 4.04888L6.86802 14.9977C6.87385 15.0191 6.88032 15.0398 6.88744 15.0605L5.28578 16.9237C5.14084 17.0176 5.02168 17.1463 4.93916 17.298C4.85663 17.4497 4.81336 17.6196 4.81327 17.7923C4.81672 17.9485 4.85212 18.1024 4.9173 18.2443C4.98248 18.3863 5.07605 18.5135 5.19225 18.6179C5.32239 18.7299 5.47843 18.8077 5.64621 18.8441C5.814 18.8806 5.98823 18.8746 6.15312 18.8267H6.88485C6.33552 18.8267 5.80869 19.0449 5.42025 19.4333C5.03182 19.8217 4.81359 20.3486 4.81359 20.8979C4.81359 21.4472 5.03182 21.9741 5.42025 22.3625C5.80869 22.7509 6.33552 22.9692 6.88485 22.9692C7.43418 22.9692 7.96102 22.7509 8.34945 22.3625C8.73789 21.9741 8.95611 21.4472 8.95611 20.8979C8.95611 20.3486 8.73789 19.8217 8.34945 19.4333C7.96102 19.0449 7.43418 18.8267 6.88485 18.8267H19.315C18.7657 18.8267 18.2388 19.0449 17.8504 19.4333C17.462 19.8217 17.2437 20.3486 17.2437 20.8979C17.2437 21.4472 17.462 21.9741 17.8504 22.3625C18.2388 22.7509 18.7657 22.9692 19.315 22.9692C19.8643 22.9692 20.3912 22.7509 20.7796 22.3625C21.168 21.9741 21.3862 21.4472 21.3862 20.8979C21.3862 20.3486 21.168 19.8217 20.7796 19.4333C20.3912 19.0449 19.8643 18.8267 19.315 18.8267H20.3522C20.6269 18.8267 20.8903 18.7175 21.0845 18.5233C21.2788 18.3291 21.3879 18.0657 21.3879 17.791C21.3879 17.5164 21.2788 17.2529 21.0845 17.0587C20.8903 16.8645 20.6269 16.7554 20.3522 16.7554H8.15317L8.99074 15.7809H20.3827C20.6157 15.7773 20.8415 15.6991 21.0269 15.5577C21.2122 15.4164 21.3474 15.2193 21.4125 14.9955L22.8326 9.69597L23.9653 5.61494C24.0049 5.47075 24.0107 5.31935 23.9822 5.17256C23.9537 5.02576 23.8917 4.88753 23.8009 4.76865C23.7102 4.64978 23.5933 4.55346 23.4592 4.48721C23.3251 4.42097 23.1776 4.38659 23.028 4.38675Z"
        fill="#597BE5" />
</svg>