<svg xmlns="http://www.w3.org/2000/svg" width="24" height="24" viewBox="0 0 24 24" fill="none">
    <path
        d="M7.08458 19.2625C9.7203 18.9605 12.356 18.5212 15.0466 18.6585C15.2663 18.6585 15.5683 18.7683 15.5683 18.329C15.5683 17.9721 15.5683 17.725 15.1016 17.6426C13.0699 17.2583 11.0382 16.819 9.00646 16.4346C8.70445 16.3797 8.51226 16.2424 8.34753 15.9953C7.49642 14.7873 6.6453 13.6067 5.82164 12.4261C5.38235 11.8221 4.80579 11.4926 4.09195 11.4652C3.40557 11.4652 2.71918 11.4652 2.0328 11.4926C0.824762 11.5201 0.00110182 12.3438 0.00110182 13.5243V21.7609C0.00110182 22.1179 0.0834678 22.2277 0.467843 22.2277C2.08771 22.2002 3.70758 22.2277 5.3549 22.2277C6.04128 22.2277 6.04128 22.2277 5.87655 21.5413C5.57454 20.2234 5.24508 18.9056 4.91561 17.5603C4.94307 17.5603 4.97052 17.5328 4.99798 17.5328L6.26092 18.9605C6.48057 19.2076 6.70021 19.3174 7.08458 19.2625ZM4.50378 10.971C6.97476 10.9435 9.11628 9.10402 9.11628 6.4683C9.19865 4.05223 7.22186 1.8558 4.64106 1.80089C2.14262 1.74598 0.0560125 3.77768 0.00110182 6.27612C-0.0538089 8.85692 1.95043 10.9984 4.50378 10.971ZM23.9971 13.9362V6.19375C23.9971 5.47991 23.8598 5.37009 23.2009 5.53482C21.883 5.80937 20.5926 6.05647 19.2748 6.33103L12.0265 7.89598C11.6422 7.97835 11.3676 8.08817 11.3676 8.55491C11.3676 10.9435 11.3676 13.3047 11.3402 15.6658C11.3402 15.9953 11.3951 16.215 11.7245 16.1875C12.054 16.16 11.9167 15.8855 11.9167 15.7208V8.9942C11.9442 8.93929 11.9716 8.88437 11.9991 8.85692V8.82946L22.4596 6.85268C22.6518 6.88013 22.7067 6.98995 22.7067 7.29196V17.3681C22.7067 17.7525 22.5969 17.8623 22.2125 17.8897C20.4004 17.9446 18.5884 18.027 16.7763 18.1094C16.5292 18.1094 16.3096 18.1094 16.3096 18.4663C16.3096 18.8781 16.5841 18.7958 16.8038 18.7958C18.3138 18.7958 19.8513 18.7958 21.3614 18.7683C21.7732 18.7683 21.8556 18.9605 21.7732 19.2625C21.6908 19.5645 21.4163 19.4272 21.2516 19.4272C17.5725 19.5371 13.8661 19.2076 10.187 19.6743C9.03391 19.8116 7.88079 19.9214 6.72766 20.0587C6.42566 20.0862 6.31583 20.1685 6.3982 20.498C6.6453 21.5688 6.6453 21.5688 7.71606 21.6786L8.04552 21.7335C9.52811 21.8982 10.9832 22.1728 12.4658 22.2002C16.1174 22.2551 19.769 22.2002 23.4205 22.2277C23.8598 22.2277 24.0245 22.1179 23.9971 21.6511V13.9362ZM7.71606 21.1569C7.49642 21.0471 7.08458 21.2942 7.1395 20.8C7.16695 20.2509 7.66115 20.5529 7.9357 20.4705C8.23771 20.3882 8.29262 20.5804 8.29262 20.8549C8.29262 21.3491 7.9357 21.0746 7.71606 21.1569ZM10.9558 21.2942C10.7361 21.2393 10.544 21.2667 10.3243 21.2667V21.2118H9.66539C9.39083 21.2393 9.2261 21.1844 9.2261 20.8549C9.2261 20.5254 9.33592 20.3882 9.66539 20.3882C10.1047 20.3882 10.544 20.3882 10.9832 20.3333C11.4774 20.2783 11.3402 20.6078 11.3676 20.8549C11.3951 21.1844 11.3127 21.3491 10.9558 21.2942ZM14.4426 13.0576C14.4426 13.085 14.4426 13.085 14.4152 13.1125C14.223 13.14 14.0308 13.1674 13.8111 13.1949V13.7165L14.3877 13.8263C14.4152 13.8263 14.4426 13.8538 14.4426 13.8813C14.4975 13.9911 14.525 14.1009 14.5799 14.2107C14.6074 14.2382 14.6074 14.2656 14.5799 14.2931L14.2779 14.7324C14.2504 14.7598 14.2504 14.7598 14.2779 14.7873L14.5799 15.0893C14.6074 15.1167 14.6348 15.1167 14.6623 15.1167L15.1016 14.8147C15.129 14.7873 15.1565 14.7873 15.1839 14.7873C15.2663 14.8696 15.3761 14.8971 15.5134 14.9246C15.5408 14.9246 15.5408 14.952 15.5683 15.0069C15.5957 15.1717 15.6232 15.3638 15.6507 15.556H16.1723C16.2272 15.3638 16.2547 15.1717 16.2821 15.0069C16.2821 14.952 16.3096 14.9246 16.337 14.9246C16.4469 14.8971 16.5567 14.8696 16.6391 14.7873C16.694 14.7873 16.7214 14.7873 16.7489 14.8147C16.8861 14.8971 17.0234 15.0069 17.1607 15.0893C17.2156 15.1167 17.2156 15.1442 17.2705 15.0893L17.5451 14.8147C17.5725 14.7598 17.5725 14.7598 17.5451 14.7049C17.4518 14.5592 17.3492 14.4196 17.2379 14.2871L17.2431 14.2931C17.2431 14.2656 17.2156 14.2382 17.2431 14.2107C17.298 14.1009 17.3529 13.9911 17.3803 13.8813C17.3803 13.8538 17.4078 13.8263 17.4353 13.8263L17.9569 13.744C18.0118 13.744 18.0118 13.7165 18.0118 13.6616V13.2772C18.0118 13.2223 17.9844 13.1949 17.9295 13.1949L17.4353 13.1125C17.421 13.1115 17.4076 13.1054 17.3975 13.0953C17.3874 13.0852 17.3813 13.0718 17.3803 13.0576C17.3529 12.9478 17.298 12.8379 17.2431 12.7281C17.2156 12.7007 17.2156 12.6732 17.2431 12.6458C17.3529 12.5085 17.4627 12.3712 17.5451 12.2065C17.5725 12.179 17.5725 12.179 17.5451 12.1516C17.4353 12.0417 17.3529 11.9319 17.2431 11.8496C17.2156 11.8221 17.2156 11.8221 17.1607 11.8496L16.7489 12.1516C16.7214 12.179 16.694 12.179 16.6665 12.1516C16.5567 12.0967 16.4469 12.0417 16.337 12.0143C16.3228 12.0133 16.3094 12.0072 16.2993 11.9971C16.2892 11.987 16.2831 11.9736 16.2821 11.9594L16.1998 11.4377C16.1998 11.4103 16.1723 11.3828 16.1174 11.3828H15.7056C15.6913 11.3838 15.6779 11.3899 15.6679 11.4C15.6578 11.4101 15.6517 11.4235 15.6507 11.4377L15.5683 11.9319C15.5683 11.9868 15.5408 12.0143 15.5134 12.0143C15.4036 12.0417 15.2937 12.0967 15.1839 12.1516C15.1565 12.179 15.129 12.1516 15.1016 12.1516C14.9643 12.0417 14.7995 11.9319 14.6623 11.8221C14.6348 11.8221 14.6348 11.8221 14.6074 11.8496C14.4924 11.9371 14.3929 12.0366 14.3079 12.1481L14.3053 12.1516C14.2779 12.179 14.2779 12.179 14.2779 12.2339C14.3877 12.3712 14.4975 12.5085 14.5799 12.6458C14.6074 12.6732 14.6074 12.7007 14.6074 12.7281C14.525 12.8105 14.4975 12.9478 14.4426 13.0576ZM15.9252 12.7281C16.337 12.7281 16.6665 13.0576 16.6665 13.4694C16.6665 13.8812 16.337 14.2107 15.9252 14.2107C15.5134 14.1833 15.1839 13.8538 15.1839 13.4694C15.1839 13.0576 15.5408 12.7281 15.9252 12.7281ZM17.4627 10.9435L17.1332 11.1357C17.1058 11.1632 17.0783 11.1632 17.1058 11.2181C17.1581 11.3005 17.1951 11.3918 17.2148 11.4875L17.2156 11.4926C17.2431 11.5201 17.2705 11.5201 17.298 11.5201L17.6549 11.4377C17.6824 11.4377 17.7098 11.4377 17.7373 11.4652C17.7922 11.5475 17.8471 11.6025 17.9295 11.6574C17.9569 11.6574 17.9569 11.6848 17.9569 11.7123C17.9295 11.8496 17.902 11.9594 17.8471 12.0967C17.8471 12.1241 17.8471 12.1516 17.902 12.179C17.9844 12.2065 18.0942 12.2339 18.1766 12.2888C18.204 12.2888 18.2315 12.2888 18.2315 12.2614L18.4511 11.9319C18.4786 11.9045 18.4786 11.877 18.5335 11.9045H18.7806C18.808 11.9045 18.8355 11.9045 18.8355 11.9319L19.0551 12.2614C19.0826 12.2888 19.0826 12.2888 19.1375 12.2888C19.2199 12.2365 19.3112 12.1996 19.4069 12.1799L19.412 12.179C19.4395 12.1516 19.4395 12.1516 19.4395 12.0967L19.3571 11.7397C19.3297 11.6848 19.3571 11.6574 19.3846 11.6574C19.4395 11.6025 19.4944 11.5475 19.5493 11.4652C19.5768 11.4377 19.6042 11.4377 19.6317 11.4377C19.7415 11.4652 19.8788 11.4926 20.0161 11.5475C20.0303 11.5465 20.0437 11.5404 20.0538 11.5304C20.0639 11.5203 20.07 11.5069 20.071 11.4926C20.0984 11.4103 20.1533 11.3004 20.1808 11.2181C20.2082 11.1906 20.2082 11.1632 20.1533 11.1357C20.0435 11.0808 19.9611 10.9984 19.8513 10.9435C19.8239 10.9161 19.7964 10.9161 19.7964 10.8886C19.8245 10.798 19.8242 10.701 19.7956 10.6106L19.7964 10.6141C19.7964 10.5866 19.8239 10.5592 19.8513 10.5592C19.9611 10.4768 20.071 10.4219 20.1808 10.3395C20.2082 10.3121 20.2082 10.3121 20.2082 10.2846C20.1533 10.1748 20.1259 10.0924 20.071 9.98259C20.071 9.95513 20.0435 9.95513 20.0161 9.95513L19.6317 10.0375C19.6042 10.065 19.5768 10.065 19.5768 10.01C19.5219 9.95513 19.4395 9.90022 19.3846 9.84531C19.3571 9.81786 19.3571 9.7904 19.3571 9.76295L19.4395 9.40603C19.467 9.35112 19.4395 9.35112 19.412 9.32366C19.3022 9.29621 19.2199 9.24129 19.1375 9.21384C19.11 9.18638 19.0826 9.18638 19.0551 9.21384L18.8629 9.5433C18.8355 9.59821 18.808 9.59821 18.7806 9.59821C18.6997 9.57017 18.6116 9.57048 18.5309 9.59907L18.5335 9.59821C18.506 9.59821 18.4786 9.59821 18.4786 9.5433C18.3962 9.46094 18.3413 9.35112 18.2589 9.24129C18.2315 9.18638 18.2315 9.18638 18.1766 9.21384C18.0942 9.24129 18.0118 9.29621 17.9295 9.32366C17.8745 9.32366 17.8745 9.35112 17.8745 9.40603C17.902 9.5433 17.9295 9.65312 17.9569 9.7904C17.9844 9.81786 17.9569 9.81786 17.9295 9.84531L17.7647 10.01C17.7373 10.0375 17.7098 10.0375 17.6549 10.0375C17.5451 10.01 17.4353 9.98259 17.298 9.95513C17.2705 9.92768 17.2431 9.95513 17.2431 9.98259C17.1882 10.065 17.1607 10.1748 17.1332 10.2571C17.1058 10.3121 17.1058 10.3121 17.1607 10.3395C17.2705 10.3944 17.3529 10.4768 17.4627 10.5317C17.4902 10.5592 17.5176 10.5866 17.4902 10.6141V10.8612C17.4902 10.8886 17.4902 10.9161 17.4627 10.9435ZM18.6707 10.1748C18.9728 10.2022 19.2199 10.4493 19.2199 10.7513C19.1924 11.0533 18.9728 11.3004 18.6433 11.3004C18.4978 11.3 18.3584 11.242 18.2555 11.1391C18.1526 11.0362 18.0946 10.8968 18.0942 10.7513C18.0942 10.4219 18.3413 10.1748 18.6707 10.1748Z"
        fill="white" />
</svg>