<svg width="278" height="76" viewBox="0 0 278 76" fill="none" xmlns="http://www.w3.org/2000/svg">
    <g opacity="0.8">
        <path
            d="M216.313 47.5701C216.319 43.9844 216.325 40.3946 216.307 36.8169C216.28 33.9079 216.228 33.8904 213.559 33.0102L213.435 32.9693C213.247 32.9044 213.018 32.8663 212.783 32.8276C212.138 32.7207 211.459 32.6084 211.538 31.9126C211.612 31.3008 212.194 31.3739 212.771 31.4464C213.037 31.4799 213.302 31.5133 213.516 31.479C214.585 31.3096 215.666 31.2969 216.75 31.2841C217.921 31.2703 219.096 31.2565 220.263 31.0455C221.239 30.8558 221.51 31.2623 221.455 32.2106C221.12 38.277 221.135 44.3618 221.151 50.4346C221.154 51.7125 221.157 52.9902 221.157 54.2668V68.6277C221.157 71.4728 221.455 71.7979 224.057 72.7463C224.235 72.8081 224.461 72.8438 224.694 72.8807C225.381 72.9895 226.135 73.109 225.953 73.9385C225.817 74.5602 225.18 74.374 224.58 74.1988C224.344 74.1297 224.113 74.0622 223.921 74.0469C219.992 73.7217 216.09 73.6947 212.189 74.2637C211.863 74.3179 211.538 74.3721 211.457 73.9114C211.403 73.5321 211.62 73.3695 211.972 73.234C212.423 73.0895 212.875 72.921 213.326 72.7524C213.552 72.6681 213.778 72.5837 214.004 72.5024C215.928 71.7979 216.334 71.2831 216.334 69.1967C216.334 63.7775 216.334 58.3583 216.307 52.9391C216.307 51.1547 216.31 49.3674 216.313 47.5791V47.5701Z"
            fill="white" />
        <path fill-rule="evenodd" clip-rule="evenodd"
            d="M112.394 69.0883C112.219 69.2912 112.049 69.4917 111.881 69.6893C110.769 70.9959 109.767 72.1735 108.519 73.0443C105.403 75.212 102.016 75.5101 98.629 73.9927C93.7789 71.825 93.3182 64.4549 97.7349 60.9053C100.363 58.7918 103.506 58.0331 106.731 57.5454C108.248 57.3286 109.793 57.2202 111.31 57.2744C112.204 57.3015 112.502 56.9493 112.475 56.0822C112.46 55.7343 112.453 55.3864 112.446 55.0392C112.43 54.1693 112.413 53.3034 112.258 52.4513C111.879 50.1482 110.389 48.685 108.058 48.3327C104.211 47.7366 101.176 49.1185 98.7103 51.9907C98.6541 52.0594 98.6036 52.1369 98.5529 52.2146C98.3838 52.4739 98.2122 52.7369 97.8162 52.6952C97.0033 52.641 96.5968 51.8823 97.0575 51.2049C100.851 45.4064 106.379 43.8348 112.448 45.7044C115.32 46.5986 116.838 48.7663 116.865 51.8281C116.905 55.6892 116.9 59.5502 116.895 63.4113C116.893 64.6983 116.892 65.9858 116.892 67.2729V68.7631C116.946 72.0689 117.325 72.5295 120.496 73.2611C120.576 73.2772 120.666 73.2859 120.758 73.2947C121.129 73.3303 121.525 73.3684 121.417 73.9114C121.317 74.3927 120.994 74.2803 120.701 74.1784C120.598 74.1426 120.499 74.1081 120.414 74.1011C118.084 73.7488 115.727 73.6404 113.423 74.1282C112.34 74.3449 112.231 73.9385 112.285 73.0443C112.301 72.684 112.336 72.3236 112.372 71.9555C112.457 71.0782 112.547 70.1572 112.394 69.0883ZM112.231 62.7478C112.231 62.3291 112.224 61.9559 112.218 61.6118C112.206 60.9985 112.197 60.4776 112.231 59.9569C112.285 59.1441 112.042 58.7918 111.175 58.8731C110.689 58.9271 110.203 58.9552 109.719 58.9833C108.988 59.0257 108.261 59.0679 107.544 59.1982C104.942 59.686 102.395 60.3905 100.824 62.7749C98.5749 66.189 100.065 70.7953 103.669 71.4998C106.053 71.9605 108.221 71.3915 110.036 69.6573C112.15 67.6522 112.367 65.0781 112.231 62.7478Z"
            fill="white" />
        <path
            d="M266.841 74.8327C271.637 74.4263 275.946 73.2069 277.517 67.8419C277.517 66.8394 277.517 65.8639 277.544 64.9156C276.677 61.5014 274.266 59.5776 271.231 58.1957C270.437 57.8277 269.656 57.432 268.88 57.0383L268.877 57.0365C268.568 56.8801 268.26 56.7239 267.952 56.57C266.977 56.0822 266.056 55.5132 265.297 54.7274C262.858 52.2617 263.644 48.2244 266.868 47.0593C269.361 46.1651 273.29 46.409 274.428 50.1753C274.564 50.6087 274.753 51.0151 274.943 51.4214C274.968 51.4758 274.99 51.5358 275.012 51.5967C275.113 51.8697 275.222 52.1656 275.62 52.0991C275.938 52.0395 275.936 51.7902 275.933 51.5547C275.932 51.4692 275.931 51.3855 275.946 51.3133C276.108 50.4031 276.124 49.4832 276.141 48.5651C276.152 47.953 276.162 47.3411 276.217 46.7341C276.298 45.8941 275.973 45.569 275.214 45.4877C274.797 45.4438 274.381 45.3979 273.968 45.3521C272.85 45.2286 271.742 45.1062 270.635 45.0271C267.735 44.8103 264.972 45.3251 262.56 47.0322C257.954 50.2837 258.035 55.9468 262.669 59.0899C263.988 59.9615 265.389 60.6693 266.783 61.3734C266.992 61.4792 267.202 61.585 267.41 61.6911C268.901 62.4498 270.337 63.2898 271.475 64.5633C274.076 67.4626 272.884 71.8521 269.144 72.8547C265.974 73.6947 262.696 73.4237 261.341 69.0612C261.287 68.8851 261.232 68.7158 261.178 68.5464C261.124 68.3771 261.07 68.2077 261.016 68.0316C260.992 67.9561 260.977 67.8708 260.961 67.7839C260.902 67.4654 260.84 67.1277 260.392 67.1916C260.009 67.2367 260.001 67.5818 259.994 67.8993C259.992 67.9635 259.991 68.0266 259.986 68.0858C259.96 68.6545 259.953 69.226 259.947 69.7984V69.7997C259.933 71.0267 259.918 72.2589 259.715 73.4779C259.607 74.1282 259.932 74.3179 260.528 74.4263C262.614 74.7785 264.728 75.0224 266.841 74.8327Z"
            fill="white" />
        <path fill-rule="evenodd" clip-rule="evenodd"
            d="M246.007 69.7124C246.166 69.5249 246.327 69.3348 246.492 69.1425C246.704 70.3274 246.568 71.3471 246.434 72.3563C246.397 72.6395 246.359 72.922 246.33 73.2069C246.275 73.9927 246.384 74.372 247.332 74.1824C248.741 73.9114 250.177 73.7217 251.64 73.8572C252.724 73.9656 253.781 74.074 254.865 74.2095C254.893 74.2123 254.922 74.2158 254.951 74.2192C255.196 74.2486 255.44 74.2778 255.488 73.9385C255.542 73.6133 255.407 73.3966 255.082 73.3424C254.951 73.3134 254.813 73.2921 254.671 73.2703C254.547 73.2514 254.422 73.2321 254.296 73.2069C251.424 72.5024 251.098 72.096 251.098 69.1425C251.098 67.3812 251.101 65.62 251.104 63.8588C251.111 60.3363 251.117 56.8138 251.098 53.2913C251.071 50.1482 250.421 47.3573 247.142 45.9483C245.815 45.3793 244.406 45.1625 242.943 45.0541C237.307 44.5664 233.594 47.547 231.047 51.3404C230.722 51.8281 230.831 52.1262 231.291 52.4513C232.023 52.9391 232.375 52.5868 232.836 52.0178C235.247 49.0643 238.309 47.7366 242.157 48.3327C244.487 48.685 245.977 50.1211 246.357 52.4513C246.512 53.3034 246.528 54.1692 246.545 55.039C246.551 55.3863 246.558 55.7343 246.573 56.0822C246.601 56.9764 246.302 57.3015 245.408 57.2744C243.891 57.2202 242.346 57.3286 240.829 57.5454C237.605 58.0331 234.462 58.7918 231.833 60.9053C227.444 64.4278 227.904 71.8521 232.754 73.9927C236.169 75.5101 239.528 75.212 242.645 73.0443C243.922 72.1688 244.911 71.0041 246.007 69.7124ZM246.384 59.686V62.9104C246.411 64.1568 246.411 65.7555 245.788 67.3C244.433 70.687 240.504 72.5295 237.09 71.3373C236.087 70.985 235.274 70.3889 234.732 69.4406C233.296 66.9748 234.028 63.0459 236.331 61.3388C239.122 59.2795 242.401 58.9815 245.706 58.9002C246.275 58.9002 246.384 59.2253 246.384 59.686Z"
            fill="white" />
        <path fill-rule="evenodd" clip-rule="evenodd"
            d="M182.302 56.3803C183.521 56.3803 184.74 56.3871 185.96 56.3938C187.179 56.4006 188.398 56.4074 189.618 56.4074C190.187 56.4074 190.783 56.3261 191.352 56.2448C192.029 56.1635 192.408 55.7571 192.463 55.0797C192.679 51.8824 191.812 49.0915 189.157 47.0864C186.583 45.1354 183.575 44.9187 180.513 45.0812C176.991 45.2709 174.064 46.707 171.734 49.3082C168.591 52.8578 167.48 57.0848 167.805 61.7182C168.293 68.5193 172.222 73.9385 178.915 74.7514C183.385 75.2933 187.531 74.4263 190.918 71.1747C191.379 70.7412 191.568 70.3348 191.081 69.7928C190.651 69.3222 190.422 69.5933 190.208 69.8476C190.138 69.93 190.07 70.0107 189.997 70.0638C186.095 72.9902 180.811 72.936 177.343 69.549C173.929 66.2162 173.116 61.8537 173.36 57.2203C173.413 56.3788 173.924 56.3795 174.524 56.3803L182.302 56.3803ZM181.689 54.5649C179.544 54.5649 177.442 54.5649 175.473 54.7816L175.472 54.7816C174.41 54.7956 173.903 54.8023 173.725 54.5635C173.562 54.3456 173.673 53.9233 173.884 53.1154L173.902 53.0475C174.308 51.6385 174.85 50.3108 175.69 49.1186C177.451 46.6528 180.053 45.6774 182.925 46.4902C185.282 47.1676 186.827 49.3895 186.989 52.3159L186.989 52.3199C187.044 53.4149 187.07 53.956 186.813 54.2299C186.562 54.4972 186.04 54.5102 185.008 54.5358L184.93 54.5378C183.846 54.5649 182.762 54.5649 181.689 54.5649Z"
            fill="white" />
        <path
            d="M204.072 57.6904C204.035 49.6939 203.999 41.6974 204.358 33.7009C204.358 33.6242 204.357 33.5485 204.356 33.4738C204.351 33.179 204.347 32.8981 204.412 32.6171L204.412 32.6132C204.425 31.7465 204.432 31.327 204.227 31.144C204.035 30.9723 203.657 31.0085 202.925 31.0788C202.855 31.0855 202.782 31.0925 202.705 31.0997C201.597 31.2163 200.481 31.2781 199.365 31.3398C198.408 31.3927 197.451 31.4456 196.5 31.5332C196.29 31.5493 196.04 31.5103 195.788 31.4711C195.193 31.3784 194.59 31.2843 194.495 31.9126C194.393 32.5626 195.068 32.6796 195.698 32.7888C195.908 32.8253 196.114 32.8609 196.283 32.9151L196.43 32.9645C199.185 33.8906 199.264 33.917 199.264 36.9795C199.291 47.6524 199.291 58.2981 199.291 68.9439V68.9529C199.291 69.2545 199.267 69.5329 199.242 69.8312L199.237 69.9012C199.155 71.0664 198.641 71.9605 197.448 72.3399C197.015 72.4753 196.595 72.6311 196.175 72.787C195.755 72.9428 195.335 73.0986 194.901 73.234C194.549 73.3424 194.332 73.505 194.386 73.8843C194.464 74.3213 194.76 74.2706 195.068 74.218L195.118 74.2095C199.21 73.6676 203.301 73.7218 207.393 74.074C207.542 74.0819 207.719 74.14 207.9 74.1994C208.34 74.3443 208.802 74.4961 208.937 73.9385C209.1 73.2036 208.51 73.1147 207.977 73.0344C207.803 73.0081 207.635 72.9827 207.501 72.936C204.222 71.7979 204.06 71.6354 204.087 68.0858C204.103 64.6206 204.087 61.1555 204.072 57.6904Z"
            fill="white" />
        <path
            d="M131.171 74.8869C129.808 74.9096 128.463 74.7226 127.105 74.5337L127.104 74.5336C126.844 74.4974 126.583 74.4611 126.321 74.4262C125.698 74.3449 125.481 74.074 125.535 73.4779C125.59 72.5566 125.637 71.6353 125.684 70.714C125.732 69.7927 125.779 68.8715 125.834 67.9503C125.837 67.9137 125.839 67.8764 125.841 67.8389C125.86 67.5438 125.879 67.2397 126.24 67.1916C126.608 67.1456 126.683 67.4505 126.747 67.7095C126.758 67.7558 126.77 67.8007 126.782 67.8419C126.944 68.5125 127.198 69.1374 127.453 69.7623C127.537 69.9706 127.622 70.1789 127.703 70.3889C128.381 72.0147 129.627 72.7463 131.28 73.0985C132.58 73.3695 133.8 73.234 135.019 72.8818C138.731 71.7979 139.869 67.4354 137.214 64.5091C136.119 63.298 134.724 62.5473 133.321 61.7925C133.093 61.6692 132.863 61.5456 132.635 61.4201C132.203 61.1829 131.765 60.9563 131.328 60.7296C130.365 60.231 129.402 59.7316 128.489 59.117C123.53 55.73 123.828 49.525 129.112 46.5444C132.282 44.7561 135.669 44.8373 139.111 45.2167C139.148 45.2167 139.186 45.2284 139.226 45.2409C139.273 45.2553 139.323 45.2709 139.382 45.2709C142.281 45.7857 142.281 45.7857 141.983 48.685C141.942 49.1321 141.908 49.5792 141.874 50.0262C141.841 50.4733 141.807 50.9204 141.766 51.3675C141.761 51.4248 141.761 51.4851 141.76 51.5456C141.76 51.7994 141.759 52.0553 141.387 52.0991C141.034 52.1262 140.926 51.8552 140.845 51.6114C140.709 51.3075 140.58 50.9996 140.453 50.6923C140.25 50.205 140.048 49.7193 139.815 49.254C138.758 47.1676 136.835 46.3818 133.773 46.707C131.795 46.9237 130.277 48.3327 129.762 50.392C129.41 51.8552 129.817 53.1558 130.738 54.2939C131.659 55.4319 132.933 56.1364 134.233 56.7867C134.728 57.0376 135.227 57.2784 135.725 57.5187C137.215 58.2386 138.698 58.9548 140.059 59.9298C144.828 63.371 144.367 70.4431 139.165 73.2069C136.645 74.5346 133.935 74.8598 131.171 74.8869Z"
            fill="white" />
        <path
            d="M151.566 56.5751C151.57 57.5683 151.575 58.5605 151.575 59.5505C151.548 59.5505 151.521 59.5505 151.493 59.5234C151.493 60.6976 151.487 61.8718 151.481 63.0459C151.469 65.3943 151.457 67.7426 151.493 70.0909C151.548 72.8276 153.038 74.643 155.639 74.9411C159.216 75.3746 161.871 73.3424 164.472 71.256C164.828 70.9672 164.619 70.7148 164.427 70.4839C164.385 70.4332 164.344 70.3836 164.31 70.3348C164.066 69.9825 163.768 69.9012 163.416 70.2264C162.82 70.7683 162.169 71.256 161.438 71.6354C158.782 72.9631 156.371 71.6083 156.344 68.6548C156.313 64.8614 156.317 61.068 156.321 57.2746C156.325 54.4295 156.328 51.5843 156.317 48.7392C156.317 47.8722 156.669 47.6554 157.455 47.6825C158.384 47.7134 159.313 47.709 160.242 47.7046C160.938 47.7013 161.635 47.698 162.332 47.7096C163.036 47.7096 163.443 47.6012 163.416 46.7612C163.416 45.9754 163.009 45.9212 162.386 45.9212C161.689 45.9328 160.993 45.9295 160.296 45.9262C159.367 45.9218 158.438 45.9174 157.509 45.9483C156.642 45.9754 156.317 45.7316 156.344 44.8103C156.38 43.6713 156.368 42.5202 156.356 41.3731C156.35 40.8011 156.344 40.2301 156.344 39.662C156.344 39.6201 156.345 39.5765 156.347 39.5323C156.357 39.2625 156.368 38.9694 156.018 38.8763C155.585 38.7679 155.368 39.0117 155.206 39.3911C153.607 42.8594 150.87 45.0813 147.321 46.3548C146.941 46.4903 146.67 46.6257 146.697 47.0864C146.752 47.6554 147.131 47.7096 147.564 47.7096C147.71 47.7141 147.855 47.7194 148.001 47.7247C148.722 47.751 149.439 47.7772 150.139 47.7096C151.222 47.6012 151.629 47.9534 151.602 49.1186C151.544 51.5968 151.555 54.0889 151.566 56.5751Z"
            fill="white" />
    </g>
    <path fill-rule="evenodd" clip-rule="evenodd"
        d="M58.4833 46.3089C32.9678 59.6759 28.5269 69.1354 28.5269 69.1354C28.5269 69.1354 29.2545 55.6802 47.5833 34.6488C47.5833 34.6488 31.9586 12.7515 0 7.35543C0 7.35543 12.9435 4.18007 41.3464 11.1691C60.1187 15.7883 80.3414 23.6332 90.3092 20.4307C89.5729 21.8279 88.0207 30.8349 58.4833 46.3089Z"
        fill="#C62B3F" />
    <g opacity="0.8">
        <path fill-rule="evenodd" clip-rule="evenodd"
            d="M58.2114 42.4956C53.114 71.74 47.3308 76.001 47.3308 76.001C47.3308 76.001 59.0541 73.1674 72.9003 46.0368C72.9003 46.0368 78.5663 46.2372 86.7731 53.3917C86.7731 53.3917 87.6617 39.1534 79.9727 24.7895C72.2836 10.4257 72.4813 4.18196 72.9003 0.000976562C71.8519 1.18141 64.8589 4.35851 58.2114 42.4956Z"
            fill="white" style="mix-blend-mode:darken" />
    </g>
</svg>