<svg xmlns="http://www.w3.org/2000/svg" width="186" height="163" viewBox="0 0 186 163" fill="none">
    <path
        d="M185.17 145.786C182.246 146.919 179.323 147.993 176.369 149.038C171.864 150.619 167.33 152.021 162.735 153.333C148.058 157.51 133.052 160.344 117.897 161.806C104.114 163.148 90.2116 163.328 76.3691 162.373C75.3847 162.313 74.4001 162.224 73.4455 162.164C72.9085 162.104 72.3417 162.075 71.8047 162.015C70.492 161.896 69.1794 161.776 67.8668 161.627C45.6412 159.3 23.7438 153.99 2.80111 145.816L26.9956 87.4027C28.1591 84.5685 27.2641 81.3764 24.9968 79.5566C24.5195 79.1688 23.9527 78.8406 23.356 78.5721C21.5362 77.8263 19.2092 78.0351 17.1209 79.1091C13.2725 81.1079 8.55887 80.8096 4.91925 78.1246C1.1603 75.3502 -0.510343 70.4874 0.682974 65.9826C2.53262 59.1509 9.87152 55.6604 16.1961 58.2857C19.3584 59.5984 21.745 62.1938 22.7593 65.4456C23.4753 67.7129 24.967 69.5029 26.7868 70.2487C27.4133 70.4874 28.0398 70.6664 28.6364 70.726C31.5302 71.0244 34.424 69.4433 35.5875 66.6091L63.0338 0.320312C72.1925 3.5721 81.5601 5.30243 90.8381 5.60076C91.0469 5.60076 91.2558 5.63059 91.4646 5.63059C92.0016 5.63059 92.5684 5.66042 93.1054 5.66042C93.6424 5.66042 94.2092 5.66042 94.7462 5.66042C95.0147 5.66042 95.2534 5.66042 95.5219 5.66042C95.9992 5.66042 96.4467 5.63059 96.924 5.63059C97.2522 5.63059 97.5803 5.60076 97.9085 5.60076C98.2963 5.60076 98.714 5.57091 99.1018 5.54108C99.4598 5.51124 99.8178 5.48143 100.176 5.48143C100.892 5.45159 101.608 5.39193 102.324 5.30243C108.082 4.76544 113.78 3.69143 119.299 2.11029C120.343 1.81196 121.357 1.48381 122.401 1.15565C122.73 1.03632 123.088 0.946826 123.416 0.827494C123.893 0.67833 124.37 0.529172 124.848 0.350175L148.326 57.0029C148.953 58.4945 147.849 60.1652 146.238 60.1652C143.434 60.1354 140.629 60.7022 137.974 61.806C132.634 64.0137 128.487 68.2201 126.369 73.6199C124.221 79.0196 124.37 84.8967 126.757 90.1771C130.963 99.4254 141.166 104.437 151.011 102.051C152.085 101.782 153.159 101.424 154.173 101.006C156.829 99.9027 159.215 98.3215 161.184 96.2929C162.318 95.1294 164.287 95.5471 164.883 97.0387L185.17 145.786Z"
        fill="#0E1B47" />
</svg>