<svg xmlns="http://www.w3.org/2000/svg" width="42" height="42" viewBox="0 0 42 42" fill="none">
    <path
        d="M1.9556 2.14254C2.9138 1.32205 4.16212 0.852449 5.42325 0.832981C15.7906 0.832031 26.158 0.832981 36.5253 0.832031C37.5082 0.839628 38.4873 1.1155 39.3273 1.62546C40.5286 2.34624 41.4355 3.54137 41.8002 4.89462C41.9616 5.46916 42.0077 6.06886 41.9996 6.66381V26.6031C41.9968 27.2507 42.0053 27.8984 41.9953 28.546C41.9811 29.4985 41.7185 30.4463 41.2323 31.2663C40.7788 32.0346 40.1359 32.6898 39.3781 33.1604C38.5272 33.6912 37.5286 33.9737 36.5268 33.9866C31.7191 33.988 26.9115 33.9861 22.1039 33.9875C22.1049 35.6451 22.1039 37.3027 22.1044 38.9603C26.2938 38.9613 30.4827 38.9608 34.6721 38.9608C34.862 38.9622 35.0572 38.9461 35.2428 38.9993C35.6075 39.0952 35.9142 39.3924 36.013 39.7576C36.1151 40.1165 36.0301 40.5301 35.7723 40.805C35.5695 41.0334 35.2675 41.1678 34.9627 41.1687C25.6547 41.1687 16.3466 41.1687 7.03861 41.1683C6.73283 41.1683 6.43084 41.0329 6.22808 40.8046C5.909 40.4655 5.85724 39.9162 6.08801 39.5159C6.27842 39.1816 6.65115 38.9594 7.03719 38.9613C11.3234 38.9603 15.6102 38.9618 19.8964 38.9603V33.9875C15.4369 33.9866 10.9773 33.9875 6.51773 33.987C5.80264 33.9818 5.07853 34.0255 4.37579 33.8641C2.86631 33.5535 1.51923 32.5664 0.749538 31.2345C0.250495 30.3827 0.00026131 29.396 0.00121096 28.4107C0.000736136 21.3662 0.00121096 14.3218 0.00121096 7.27728C0.0054844 6.67473 -0.0230052 6.06791 0.0757587 5.47153C0.27756 4.18428 0.960361 2.98203 1.9556 2.14254ZM4.97692 3.08792C4.09801 3.23701 3.28891 3.75599 2.79082 4.49577C2.40288 5.05748 2.20725 5.7398 2.20963 6.42023C2.2082 13.6546 2.2101 20.8895 2.20915 28.1239C2.20631 28.4112 2.212 28.7004 2.25711 28.9848C2.38626 29.7977 2.83308 30.555 3.48169 31.0617C4.05623 31.5218 4.78794 31.772 5.52297 31.7786C15.8262 31.7801 26.13 31.7786 36.4337 31.7796C37.1607 31.781 37.8881 31.5469 38.466 31.103C39.1302 30.6049 39.5941 29.848 39.7361 29.0299C39.824 28.5104 39.7812 27.982 39.7917 27.4577C39.7912 20.446 39.7921 13.4338 39.7912 6.42213C39.8026 5.45871 39.3843 4.49814 38.654 3.8671C38.059 3.34242 37.2718 3.04186 36.4783 3.03996C26.1437 3.04091 15.8091 3.03996 5.47454 3.04043C5.3074 3.04376 5.14121 3.06085 4.97692 3.08792Z"
        fill="#0E1B47" />
    <path
        d="M15.7418 7.57476C17.8367 6.68162 20.2265 6.51258 22.4297 7.08237C24.2388 7.54437 25.9112 8.51206 27.2245 9.83777C29.0702 11.6896 30.1794 14.256 30.2368 16.8723C30.2573 17.3414 30.244 17.8115 30.2478 18.2811C27.3489 18.282 24.4501 18.2797 21.5513 18.282C22.9872 20.7715 24.4254 23.2591 25.8618 25.7477C25.1063 26.1655 24.3647 26.619 23.5518 26.9205C21.548 27.6964 19.3025 27.8203 17.2223 27.2875C15.6535 26.8896 14.1839 26.1142 12.965 25.0506C11.5956 23.8603 10.5425 22.3071 9.95272 20.5906C9.24523 18.5517 9.19727 16.2935 9.80743 14.2242C10.221 12.8149 10.9418 11.4973 11.8995 10.3838C12.9418 9.16874 14.2675 8.19821 15.7418 7.57476ZM15.6801 10.0747C14.3358 10.8577 13.2191 12.0291 12.5073 13.4132C11.8416 14.6895 11.5291 16.1458 11.6023 17.5831C11.6754 19.2122 12.2556 20.8124 13.2385 22.1139C14.211 23.413 15.5761 24.4134 17.1093 24.9471C18.9336 25.5867 20.9858 25.5535 22.7859 24.846C21.0988 21.9215 19.4079 18.999 17.7214 16.0741C21.1349 16.0717 24.5479 16.0746 27.9615 16.0727C27.7639 14.6102 27.1623 13.2052 26.2378 12.0547C25.1538 10.6934 23.6292 9.68583 21.9449 9.24092C19.8562 8.67303 17.5461 8.97597 15.6801 10.0747Z"
        fill="#0E1B47" />
    <path
        d="M24.0872 19.6715C27.6683 19.6686 31.249 19.6705 34.8296 19.6705C34.8197 20.4602 34.8709 21.256 34.7432 22.0399C34.4284 24.2787 33.1848 26.3627 31.3767 27.7178C30.7703 28.1889 30.078 28.526 29.4157 28.9078C27.6379 25.8295 25.8611 22.7517 24.0872 19.6715ZM27.9133 21.8789C28.6749 23.1966 29.4323 24.5175 30.1977 25.8333C31.4185 24.8532 32.2736 23.425 32.5319 21.8785C30.9926 21.878 29.4527 21.8775 27.9133 21.8789Z"
        fill="#597BE5" />
</svg>