<svg xmlns="http://www.w3.org/2000/svg" width="34" height="42" viewBox="0 0 34 42" fill="none">
    <path
        d="M27.5 0C29.0913 0 30.6174 0.632141 31.7426 1.75736C32.8679 2.88258 33.5 4.4087 33.5 6V36C33.5 37.5913 32.8679 39.1174 31.7426 40.2426C30.6174 41.3679 29.0913 42 27.5 42H6.5C4.9087 42 3.38258 41.3679 2.25736 40.2426C1.13214 39.1174 0.5 37.5913 0.5 36V6C0.5 4.4087 1.13214 2.88258 2.25736 1.75736C3.38258 0.632141 4.9087 0 6.5 0H27.5ZM30.5 31.5H3.5V36C3.49976 36.7569 3.78561 37.4858 4.30025 38.0408C4.81488 38.5958 5.52027 38.9357 6.275 38.9925L6.5 39H27.5C28.2569 39.0002 28.9858 38.7144 29.5408 38.1998C30.0958 37.6851 30.4357 36.9797 30.4925 36.225L30.5 36V31.5ZM27.5 3H6.5C5.74314 2.99976 5.01415 3.28561 4.45918 3.80025C3.90421 4.31488 3.56427 5.02027 3.5075 5.775L3.5 6V28.5H30.5V6C30.5002 5.24314 30.2144 4.51415 29.6998 3.95918C29.1851 3.40421 28.4797 3.06427 27.725 3.0075L27.5 3Z"
        fill="#0E1B47" />
    <path
        d="M17 33.75C17.3978 33.75 17.7794 33.908 18.0607 34.1893C18.342 34.4706 18.5 34.8522 18.5 35.25C18.5 35.6478 18.342 36.0294 18.0607 36.3107C17.7794 36.592 17.3978 36.75 17 36.75C16.6022 36.75 16.2206 36.592 15.9393 36.3107C15.658 36.0294 15.5 35.6478 15.5 35.25C15.5 34.8522 15.658 34.4706 15.9393 34.1893C16.2206 33.908 16.6022 33.75 17 33.75Z"
        fill="#597BE5" />
    <path d="M3.5 31.5H30.5V28.5H3.5V31.5Z" fill="#597BE5" />
</svg>