<svg xmlns="http://www.w3.org/2000/svg" width="16" height="16" viewBox="0 0 16 16" fill="none">
    <path
        d="M3.74618 14.1179C3.74618 14.5981 4.16632 14.9909 4.67968 14.9909H11.3331C11.8467 14.9909 12.2668 14.5981 12.2668 14.1179L12.2669 13.4036C12.2669 12.9234 11.8467 12.5306 11.3331 12.5306H4.67964C4.16636 12.5306 3.74615 12.9234 3.74615 13.4036L3.74618 14.1179ZM12.2603 2.23352C12.2603 1.72016 11.8402 1.29999 11.3266 1.29999H4.67332C4.15974 1.29999 3.7397 1.72013 3.7397 2.23352V6.14573C3.7397 6.65921 4.15974 7.07922 4.67332 7.07922H11.3266C11.8401 7.07922 12.2603 6.65918 12.2603 6.14573L12.2603 2.23352ZM15.5 5.23046C15.5 4.55382 14.9399 4.00029 14.2553 4.00029H13.6969C13.2286 4.00029 12.8373 4.26912 12.8373 4.93821V6.65205C12.8373 7.15949 12.4171 7.57467 11.9037 7.57467H4.10925C3.5958 7.57467 3.17562 7.15946 3.17562 6.65205V4.94547C3.17562 4.38669 2.94713 4.00029 2.32679 4.00029H1.74468C1.06014 4.00029 0.5 4.55382 0.5 5.23046V12.9192C0.5 13.5958 1.06014 14.1494 1.74468 14.1494H2.61962C3.02576 14.1494 3.17137 13.9217 3.17137 13.5167V12.9112C3.17137 12.4037 3.59144 11.9885 4.10489 11.9885H11.8951C12.4087 11.9885 12.8288 12.4037 12.8288 12.9112V13.6469C12.8288 13.9905 12.9578 14.1494 13.3237 14.1494H14.2553C14.9399 14.1494 15.5 13.5958 15.5 12.9192V5.23046Z"
        fill="#0E1B47" />
</svg>