<svg xmlns="http://www.w3.org/2000/svg" width="46" height="42" viewBox="0 0 46 42" fill="none">
    <path
        d="M34.3567 21.9274C33.8082 21.9274 33.2935 21.6869 32.9375 21.2683L26.9434 15.0144C25.6974 13.4269 25.0431 11.7095 24.9902 9.96799C24.971 9.40514 25.0094 8.83266 25.096 8.265C25.7214 4.25287 29.1082 1.04895 33.1492 0.654468C35.7373 0.394691 38.2389 1.21732 40.1584 2.95879C42.0538 4.67622 43.141 7.12967 43.141 9.68416V9.72264C43.1314 11.4834 42.5445 13.2296 41.4332 14.7787L35.7951 21.2443C35.4824 21.6484 34.9628 21.913 34.4 21.9274C34.3855 21.9226 34.3711 21.9274 34.3567 21.9274ZM34.2749 20.0897C34.3374 20.0897 34.4625 20.0993 34.4721 20.0897L40.0573 13.6963C40.8992 12.508 41.3803 11.1081 41.3851 9.72264L42.2607 9.68897H41.3851C41.3851 7.62518 40.5096 5.64798 38.9798 4.2625C37.4307 2.85777 35.415 2.19389 33.3224 2.40075C30.0703 2.71826 27.3378 5.30161 26.8327 8.53921C26.7605 9.00104 26.7317 9.46286 26.7461 9.91507C26.7894 11.2765 27.3138 12.6475 28.2711 13.8695L34.2412 20.0945C34.2412 20.0897 34.2556 20.0897 34.2749 20.0897Z"
        fill="white" />
    <path
        d="M31.1816 9.45778C31.1816 9.8362 31.2562 10.2109 31.401 10.5605C31.5458 10.9101 31.7581 11.2278 32.0256 11.4954C32.2932 11.763 32.6109 11.9752 32.9605 12.12C33.3101 12.2649 33.6848 12.3394 34.0633 12.3394C34.4417 12.3394 34.8164 12.2649 35.166 12.12C35.5156 11.9752 35.8333 11.763 36.1009 11.4954C36.3684 11.2278 36.5807 10.9101 36.7255 10.5605C36.8703 10.2109 36.9449 9.8362 36.9449 9.45778C36.9449 9.07936 36.8703 8.70465 36.7255 8.35504C36.5807 8.00542 36.3684 7.68776 36.1009 7.42018C35.8333 7.15259 35.5156 6.94034 35.166 6.79552C34.8164 6.65071 34.4417 6.57617 34.0633 6.57617C33.6848 6.57617 33.3101 6.65071 32.9605 6.79552C32.6109 6.94034 32.2932 7.15259 32.0256 7.42018C31.7581 7.68776 31.5458 8.00542 31.401 8.35504C31.2562 8.70465 31.1816 9.07936 31.1816 9.45778Z"
        fill="white" />
    <path
        d="M9.37912 41.907C8.8307 41.907 8.31595 41.6664 7.95996 41.2479L1.96582 34.994C0.724654 33.4113 0.0703972 31.689 0.0126687 29.9524C-0.00657413 29.3895 0.0319116 28.817 0.118504 28.2494C0.748707 24.2324 4.13545 21.0333 8.17163 20.6388C10.7742 20.3791 13.2614 21.2017 15.1808 22.9432C17.0763 24.6606 18.1635 27.114 18.1635 29.6685V29.707C18.1539 31.4677 17.5669 33.214 16.4557 34.7631L10.8175 41.2238C10.5096 41.6279 9.98527 41.8925 9.42242 41.907H9.37912ZM9.09529 22.3466C8.84513 22.3466 8.59497 22.3563 8.34482 22.3851C5.08797 22.7026 2.36029 25.2812 1.85517 28.5188C1.78301 28.9806 1.75415 29.4424 1.76858 29.8946C1.81187 31.2609 2.33624 32.6271 3.29357 33.849L9.26366 40.0741C9.27328 40.0597 9.39355 40.0741 9.4609 40.0741C9.48015 40.0741 9.49458 40.0741 9.49939 40.0693L15.0846 33.6758C15.9265 32.4876 16.4076 31.0877 16.4124 29.7022L17.2879 29.6685H16.4076C16.4076 27.6047 15.532 25.6275 14.0022 24.2421C12.6408 23.0057 10.9185 22.3466 9.09529 22.3466Z"
        fill="white" />
    <path
        d="M5.87695 29.4412C5.87695 29.8625 5.95995 30.2798 6.1212 30.6691C6.28246 31.0584 6.51881 31.4121 6.81677 31.7101C7.11473 32.008 7.46846 32.2444 7.85776 32.4056C8.24707 32.5669 8.66432 32.6499 9.0857 32.6499C9.50707 32.6499 9.92433 32.5669 10.3136 32.4056C10.7029 32.2444 11.0567 32.008 11.3546 31.7101C11.6526 31.4121 11.8889 31.0584 12.0502 30.6691C12.2114 30.2798 12.2944 29.8625 12.2944 29.4412C12.2944 28.5901 11.9564 27.774 11.3546 27.1722C10.7529 26.5705 9.93671 26.2324 9.0857 26.2324C8.23468 26.2324 7.41853 26.5705 6.81677 27.1722C6.21502 27.774 5.87695 28.5901 5.87695 29.4412Z"
        fill="white" />
    <path
        d="M40.6295 32.087H27.145C24.1817 32.087 21.7715 29.6768 21.7715 26.7134C21.7715 23.75 24.1817 21.3398 27.145 21.3398C27.6309 21.3398 28.0206 21.7343 28.0206 22.2154C28.0206 22.6965 27.6261 23.0909 27.145 23.0909C25.1486 23.0909 23.5274 24.7121 23.5274 26.7086C23.5274 28.705 25.1486 30.3262 27.145 30.3262H40.6343C41.1202 30.3262 41.5098 30.7207 41.5098 31.2018C41.5098 31.6829 41.1153 32.087 40.6295 32.087Z"
        fill="white" />
    <path
        d="M40.6292 41.0793H15.6568C15.1709 41.0793 14.7812 40.6848 14.7812 40.2037C14.7812 39.7227 15.1757 39.3282 15.6568 39.3282H40.634C42.6304 39.3282 44.2517 37.707 44.2517 35.7105C44.2517 33.7141 42.6256 32.0929 40.634 32.0929H27.1448C26.6589 32.0929 26.2692 31.6984 26.2692 31.2173C26.2692 30.7363 26.6637 30.3418 27.1448 30.3418H40.634C43.5974 30.3418 46.0076 32.752 46.0076 35.7154C46.0076 38.6787 43.5926 41.0793 40.6292 41.0793Z"
        fill="white" />
</svg>