<svg xmlns="http://www.w3.org/2000/svg" width="48" height="48" viewBox="0 0 48 48" fill="none">
    <path fill-rule="evenodd" clip-rule="evenodd"
        d="M26.88 8.928C26.88 13.8624 22.8864 17.856 17.952 17.856C13.0176 17.856 9.02397 13.8624 9.02397 8.928C9.02397 3.9936 13.0176 0 17.952 0H26.88V8.928ZM32.9376 5.26055H43.1904C45.84 5.26055 48 7.42055 47.9904 10.0797V14.8605C47.9904 17.5101 45.8208 19.6701 43.1808 19.6701H32.8224L30.6048 20.9469C33.6864 23.2413 35.6832 26.9181 35.6832 31.0653V35.3757C35.6832 42.3453 30.0288 47.9997 23.0592 47.9997H12.7488C5.77916 47.9997 0.124756 42.3453 0.124756 35.3661V31.0557C0.124756 24.0861 5.77916 18.4317 12.7488 18.4317H23.0592C24.8544 18.4317 26.5632 18.8061 28.1088 19.4781V14.1981L28.128 14.2077V10.0701C28.128 7.42055 30.2976 5.26055 32.9376 5.26055ZM17.472 39.0621L20.1984 24.6717H20.2944L17.568 19.9581L14.8416 24.6717H14.7552L17.472 39.0621ZM30.864 12.2397C30.864 13.2285 31.6608 14.0253 32.6496 14.0253C33.6384 14.0253 34.4352 13.2285 34.4352 12.2397C34.4352 11.2509 33.6384 10.4541 32.6496 10.4541C31.6608 10.4541 30.864 11.2509 30.864 12.2397ZM36.5184 12.2397C36.5184 13.2285 37.3152 14.0253 38.304 14.0253C39.2928 14.0253 40.0896 13.2285 40.0896 12.2397C40.0896 11.2509 39.2928 10.4541 38.304 10.4541C37.3152 10.4541 36.5184 11.2509 36.5184 12.2397ZM42.1728 12.2397C42.1728 13.2285 42.9696 14.0253 43.9584 14.0253C44.9376 14.0253 45.744 13.2285 45.744 12.2397C45.744 11.2509 44.9472 10.4541 43.9584 10.4541C42.9696 10.4541 42.1728 11.2509 42.1728 12.2397Z"
        fill="white" />
</svg>