<svg t="1702494288746" class="icon" viewBox="0 0 1170 1024" version="1.1" xmlns="http://www.w3.org/2000/svg"
    p-id="11529" width="200" height="200">
    <path
        d="M585.142857 365.714286m-36.571428 0a36.571429 36.571429 0 1 0 73.142857 0 36.571429 36.571429 0 1 0-73.142857 0Z"
        fill="#ffffff" p-id="11530"></path>
    <path
        d="M731.428571 365.714286m-36.571428 0a36.571429 36.571429 0 1 0 73.142857 0 36.571429 36.571429 0 1 0-73.142857 0Z"
        fill="#ffffff" p-id="11531"></path>
    <path
        d="M438.857143 365.714286m-36.571429 0a36.571429 36.571429 0 1 0 73.142857 0 36.571429 36.571429 0 1 0-73.142857 0Z"
        fill="#ffffff" p-id="11532"></path>
    <path
        d="M1060.571429 877.714286H109.714286a109.714286 109.714286 0 0 1-109.714286-109.714286V109.714286a109.714286 109.714286 0 0 1 109.714286-109.714286h950.857143a109.714286 109.714286 0 0 1 109.714285 109.714286v658.285714a109.714286 109.714286 0 0 1-109.714285 109.714286zM109.714286 73.142857a36.571429 36.571429 0 0 0-36.571429 36.571429v658.285714a36.571429 36.571429 0 0 0 36.571429 36.571429h950.857143a36.571429 36.571429 0 0 0 36.571428-36.571429V109.714286a36.571429 36.571429 0 0 0-36.571428-36.571429z"
        fill="#ffffff" p-id="11533"></path>
    <path
        d="M36.571429 658.285714h1097.142857v73.142857H36.571429zM402.285714 841.142857h73.142857v146.285714h-73.142857zM694.857143 841.142857h73.142857v146.285714h-73.142857z"
        fill="#ffffff" p-id="11534"></path>
    <path d="M292.571429 950.857143h585.142857v73.142857H292.571429z" fill="#ffffff" p-id="11535"></path>
</svg>