<svg xmlns="http://www.w3.org/2000/svg" width="64" height="64" viewBox="0 0 64 64" fill="none">
    <g clip-path="url(#clip0_1492_5907)">
        <path
            d="M33.8711 10.3526C33.8711 15.8105 33.1337 20.235 32.2241 20.235C31.3144 20.235 30.577 15.8105 30.577 10.3526C30.577 10.0429 30.5794 9.73651 30.584 9.43408C26.957 9.55137 23.5167 10.1203 20.3987 11.0546C23.1537 15.0602 24.836 20.2577 24.836 25.882C24.836 32.247 22.6814 38.0654 19.2559 42.2282C22.5387 43.3347 26.2178 44.0267 30.1221 44.1949C30.1118 43.7466 30.1064 43.2886 30.1064 42.8232C30.1064 37.3653 30.8438 32.9408 31.7535 32.9408C32.6631 32.9408 33.4005 37.3653 33.4005 42.8232C33.4005 43.2946 33.395 43.7582 33.3844 44.212C37.4175 44.0793 41.2511 43.3756 44.6691 42.2314C44.5879 42.1293 44.5074 42.0262 44.4277 41.9222C41.2664 37.7949 39.3299 32.1217 39.3299 25.882C39.3299 20.2312 40.9181 15.045 43.566 11.0508C40.5867 10.1593 37.3134 9.60124 33.8644 9.4519C33.8688 9.74854 33.8711 10.049 33.8711 10.3526Z"
            fill="white" />
        <path
            d="M45.9856 41.7612C52.9355 39.1188 57.9246 34.6049 58.9474 29.4314L58.8561 29.4315C57.5642 29.4335 52.1008 29.4418 52.2692 26.9881C52.4779 23.9461 57.8626 24.1748 59.189 25.3703C58.4087 19.3444 52.8184 14.1889 44.8732 11.4697C42.2555 15.2693 40.6476 20.3201 40.6476 25.882C40.6476 31.8576 42.5035 37.2432 45.4737 41.1209C45.641 41.3393 45.8117 41.5527 45.9856 41.7612Z"
            fill="white" />
        <path fill-rule="evenodd" clip-rule="evenodd"
            d="M4.92239 24.5627C6.07519 18.8898 11.5081 14.0737 19.0872 11.4755C21.8085 15.2622 23.5184 20.2969 23.5184 25.882C23.5184 32.2207 21.316 37.8504 17.9321 41.7514C10.6914 38.9709 5.63908 34.1071 4.81357 28.4605C4.75455 28.0567 5.68629 28.0578 6.87821 28.0592C8.8831 28.0616 11.6241 28.0648 11.6241 26.1436C11.6241 24.0823 8.52148 24.4143 6.53758 24.6266C5.57322 24.7298 4.87321 24.8048 4.92239 24.5627ZM15.9888 23.5291C16.5086 23.5291 16.9299 22.6863 16.9299 21.6467C16.9299 20.6071 16.5086 19.7644 15.9888 19.7644C15.469 19.7644 15.0476 20.6071 15.0476 21.6467C15.0476 22.6863 15.469 23.5291 15.9888 23.5291ZM16.9299 31.9997C16.9299 33.0393 16.5086 33.882 15.9888 33.882C15.469 33.882 15.0476 33.0393 15.0476 31.9997C15.0476 30.9601 15.469 30.1173 15.9888 30.1173C16.5086 30.1173 16.9299 30.9601 16.9299 31.9997Z"
            fill="white" />
        <path fill-rule="evenodd" clip-rule="evenodd"
            d="M22.6418 49.4468L22.6556 49.4606L22.6418 49.4606V49.4468ZM22.6418 50.3076L23.5041 50.3076L24.904 51.7052L24.904 50.7321V50.3085L25.751 50.3085V50.7321L25.7511 57.5402V57.9637L24.904 57.9637V57.5402L24.904 52.9022L23.4889 51.4894V57.5401V57.9637H22.6418V57.5401V50.4681V50.3076ZM19.3029 51.7206C19.3029 51.3345 19.6159 51.0215 20.002 51.0215C20.3881 51.0215 20.7011 51.3345 20.7011 51.7206V55.6602L19.3029 55.6602L19.3029 51.7206ZM21.5482 51.7206V55.6602L21.9267 55.6602L21.9267 56.5072L21.5482 56.5072V57.5403V57.9639H20.7011V57.5403V56.5072L19.3029 56.5073L19.3029 57.5403V57.9639L18.4559 57.9639L18.4559 57.5403L18.4559 56.5073L18.1025 56.5073L18.1025 55.6602L18.4559 55.6602L18.4559 51.7206C18.4559 50.8667 19.1481 50.1744 20.002 50.1744C20.8559 50.1744 21.5482 50.8667 21.5482 51.7206ZM1.22595 50.3086L0.802368 50.3086L0.802371 50.7322L0.802387 53.0474V57.5403V57.9785L1.24034 57.9635C1.73937 57.9465 2.4117 57.679 2.95708 57.1978C3.51668 56.7041 3.9755 55.9562 3.9755 54.9611C3.9755 54.1585 3.7835 53.5742 3.51189 53.1404C3.35529 52.8903 3.17796 52.6999 3.01424 52.5529C3.12354 52.3265 3.18019 52.0638 3.18019 51.7708C3.18019 51.4399 3.09853 51.156 2.93674 50.9264C2.77628 50.6987 2.56025 50.5574 2.34628 50.4699C1.95058 50.3083 1.49783 50.3085 1.24791 50.3086L1.22595 50.3086ZM1.64945 53.443C1.93351 53.4037 2.20507 53.3204 2.44141 53.1771C2.56392 53.286 2.6863 53.418 2.79393 53.5899C2.97296 53.8758 3.12844 54.3012 3.12844 54.9611C3.12844 55.6711 2.80813 56.1996 2.39666 56.5626C2.15085 56.7795 1.88336 56.9277 1.64945 57.016V53.443ZM2.06564 52.4098C1.96435 52.4864 1.82584 52.5471 1.64944 52.584L1.64943 51.1705C1.78445 51.1837 1.9136 51.2082 2.02591 51.2541C2.12969 51.2965 2.19895 51.3499 2.24433 51.4143C2.28838 51.4768 2.33313 51.5824 2.33313 51.7708C2.33313 52.1083 2.21835 52.2943 2.06564 52.4098ZM5.73721 50.7322L5.7372 50.3086L4.89015 50.3086L4.89015 50.7322L4.89016 57.5403L4.89016 57.9638L5.73722 57.9638L5.73722 57.5403L5.73721 50.7322ZM15.0267 50.3086L15.0267 50.7322L15.0267 51.7806L16.4416 51.7806L16.4416 50.7322L16.4416 50.3086L17.2887 50.3086V50.7322L17.2887 51.7806L17.6505 51.7806L17.6505 52.6277L17.2887 52.6277L17.2887 57.5403V57.9638L16.4416 57.9638L16.4416 57.5403L16.4416 52.6277L15.0267 52.6277L15.0267 57.5403L15.0267 57.9638L14.1797 57.9638L14.1797 57.5403L14.1797 52.6277L13.8263 52.6277L13.8263 51.7806L14.1797 51.7806L14.1797 50.7322L14.1797 50.3086L15.0267 50.3086ZM52.8673 50.7322L52.8673 50.3086L52.0202 50.3086V50.7322L52.0202 57.5403V57.9638H52.4437H53.9456H54.3692V57.1167H53.9456H52.8673L52.8673 50.7322ZM55.6728 51.1557L55.6728 57.5403V57.9638L56.5198 57.9638V57.5403L56.5198 51.1557L57.23 51.1557L57.6536 51.1557V50.3086L57.23 50.3086L56.5198 50.3086L54.975 50.3086L54.5514 50.3086L54.5514 51.1557L54.975 51.1557L55.6728 51.1557ZM30.7463 57.4312L30.5851 57.9751H31.1524H33.1884H33.6119V57.128L33.1884 57.128H31.7196L33.5945 50.8015L33.7557 50.2576L33.1884 50.2576L31.1524 50.2576L30.7288 50.2576L30.7288 51.1047L31.1524 51.1047L32.6212 51.1047L30.7463 57.4312ZM9.80423 50.2237C7.96346 50.5627 6.56889 52.1759 6.56889 54.1147C6.56889 55.853 7.68955 57.3284 9.24654 57.8599L9.80692 58.0513V57.4591V56.0154V55.5919H8.95986V56.0154V56.8021C8.0361 56.2627 7.41595 55.2607 7.41595 54.1147C7.41595 52.6457 8.43468 51.4145 9.80423 51.0892V50.2237ZM26.8898 50.7703V50.1782L27.4502 50.3695C29.0072 50.9011 30.1278 52.3765 30.1278 54.1147C30.1278 55.853 29.0072 57.3284 27.4502 57.8599L26.8898 58.0513V57.4591V56.0154V50.7703ZM29.2808 54.1147C29.2808 52.9687 28.6606 51.9667 27.7369 51.4273V56.0154V56.8021C28.6606 56.2627 29.2808 55.2607 29.2808 54.1147ZM58.2781 50.1782V50.7703V56.0154V57.4591V58.0513L58.8385 57.8599C60.3955 57.3284 61.5162 55.853 61.5162 54.1147C61.5162 52.3765 60.3955 50.9011 58.8385 50.3695L58.2781 50.1782ZM59.1252 51.4273C60.0489 51.9667 60.6691 52.9687 60.6691 54.1147C60.6691 55.2607 60.0489 56.2627 59.1252 56.8021V56.0154V51.4273ZM37.6652 54.1408C37.6652 56.0659 39.0485 57.6658 40.8774 58.0228V57.1552C39.5163 56.8138 38.5123 55.5915 38.5123 54.1408C38.5123 52.6901 39.5163 51.4678 40.8774 51.1264V50.2588C39.0485 50.6158 37.6652 52.2158 37.6652 54.1408ZM44.5631 52.5592C43.2573 52.5592 42.2046 53.6084 42.2046 54.8955C42.2046 56.1826 43.2573 57.2318 44.5631 57.2318C45.8689 57.2318 46.9217 56.1826 46.9217 54.8955C46.9217 53.6084 45.8689 52.5592 44.5631 52.5592ZM41.3575 54.8955C41.3575 53.1342 42.7959 51.7121 44.5631 51.7121C46.3303 51.7121 47.7687 53.1342 47.7687 54.8955C47.7687 56.6568 46.3303 58.0788 44.5631 58.0788C42.7959 58.0788 41.3575 56.6568 41.3575 54.8955ZM48.8959 58.0592C49.1829 58.0592 49.4156 57.8284 49.4156 57.5437C49.4156 57.2589 49.1829 57.0281 48.8959 57.0281C48.6089 57.0281 48.3762 57.2589 48.3762 57.5437C48.3762 57.8284 48.6089 58.0592 48.8959 58.0592ZM63.1978 57.5437C63.1978 57.8284 62.9651 58.0592 62.6781 58.0592C62.391 58.0592 62.1583 57.8284 62.1583 57.5437C62.1583 57.2589 62.391 57.0281 62.6781 57.0281C62.9651 57.0281 63.1978 57.2589 63.1978 57.5437ZM50.5781 58.7896C51.077 58.4587 51.1868 57.998 51.1868 57.665C51.1868 57.332 50.9384 57.0281 50.6514 57.0281C50.3644 57.0281 50.1317 57.2589 50.1317 57.5437C50.1317 57.8037 50.3258 58.0188 50.5781 58.0541V58.7896Z"
            fill="white" />
    </g>
    <defs>
        <clipPath id="clip0_1492_5907">
            <rect width="64" height="64" fill="white" />
        </clipPath>
    </defs>
</svg>