<svg xmlns="http://www.w3.org/2000/svg" width="16" height="17" viewBox="0 0 16 17" fill="none">
    <g clip-path="url(#clip0_285_1915)">
        <path
            d="M8.05714 9.55893L8.94643 8.67143L8.94286 4.3875L8.0625 3.48214L7.15893 4.38571L7.1625 8.66964L8.05714 9.55893ZM8 0.5C2.66607 0.5 0 3.16786 0 8.5C0 13.8321 2.66607 16.5 8 16.5C13.3339 16.5 16 13.8321 16 8.5C16 3.16786 13.3339 0.5 8 0.5ZM8 14.8429C3.77143 14.8429 1.65536 12.7286 1.65536 8.5C1.65536 4.27143 3.76964 2.15536 8 2.15536C12.2304 2.15536 14.3446 4.27143 14.3446 8.5C14.3429 12.7286 12.2286 14.8429 8 14.8429ZM8.05714 11.1786L5.35714 8.48571L4.18929 8.40714L4.31786 9.52143L7.01786 12.2125V12.2143L8.05714 13.25L8.05893 13.2482L8.06071 13.25L9.09822 12.2161L9.09643 12.2143L11.7929 9.525L11.9214 8.41071L10.7536 8.48929L8.05714 11.1786Z"
            fill="white" />
    </g>
    <defs>
        <clipPath id="clip0_285_1915">
            <rect width="16" height="16" fill="white" transform="translate(0 0.5)" />
        </clipPath>
    </defs>
</svg>