<svg xmlns="http://www.w3.org/2000/svg" width="16" height="16" viewBox="0 0 16 16" fill="none">
    <path
        d="M11.2994 15.0014C10.2896 14.9646 7.42758 14.5702 4.43093 11.5725C1.43427 8.57579 1.03878 5.71376 1.00197 4.704C0.945172 3.16412 2.12427 1.66841 3.48744 1.08465C3.6516 1.01367 3.8314 0.986628 4.00918 1.00618C4.18695 1.02572 4.35658 1.09119 4.5014 1.19614C5.62159 2.01341 6.39679 3.25037 7.06155 4.22331C7.36237 4.66298 7.28979 5.26252 6.88274 5.61594L5.51431 6.63201C5.44833 6.67966 5.40185 6.7496 5.38348 6.82889C5.36511 6.90818 5.37609 6.99144 5.41438 7.06326C5.72362 7.62704 6.27583 8.46535 6.90693 9.09645C7.53802 9.72754 8.4163 10.3155 9.019 10.6595C9.09436 10.7019 9.18309 10.7138 9.26698 10.6929C9.35088 10.672 9.4236 10.6197 9.47023 10.5469L10.3601 9.19111C10.7019 8.73672 11.3383 8.63785 11.8021 8.95866C12.7887 9.64235 13.9405 10.4028 14.783 11.482C14.8963 11.6278 14.9684 11.8013 14.9918 11.9845C15.0151 12.1677 14.9887 12.3538 14.9155 12.5233C14.3286 13.8928 12.8434 15.0582 11.2994 15.0014Z"
        fill="#0E1B47" />
</svg>