<svg xmlns="http://www.w3.org/2000/svg" width="44" height="44" viewBox="0 0 44 44" fill="none">
    <path
        d="M20.6049 0.649476C22.5995 0.479319 24.6362 0.803226 26.4695 1.61041C28.0506 2.29994 29.4751 3.3401 30.6245 4.62541C31.7532 5.88916 32.6129 7.39291 33.1215 9.00916C33.752 10.9995 33.8485 13.1543 33.407 15.1943C33.0193 17.0051 32.1995 18.7198 31.0403 20.1631C30.0273 21.4282 28.757 22.4862 27.3287 23.2517C25.6337 24.1639 23.7156 24.6556 21.7914 24.6724C19.8324 24.701 17.8665 24.2431 16.1274 23.3393C14.6354 22.5715 13.3089 21.4849 12.2584 20.1771C11.1029 18.7428 10.2831 17.0389 9.88979 15.2388C9.48057 13.3746 9.5176 11.4129 10.0046 9.56698C10.7232 6.79619 12.4824 4.31791 14.8454 2.70588C16.5446 1.53776 18.5499 0.821507 20.6049 0.649476ZM20.5093 2.85073C18.6062 3.06494 16.7743 3.8576 15.3109 5.09276C14.0518 6.14744 13.0618 7.52135 12.4646 9.05135C11.4624 11.5835 11.5815 14.5324 12.7923 16.9728C13.5362 18.4934 14.6814 19.8134 16.0773 20.7706C17.6532 21.8581 19.5549 22.466 21.4703 22.4909C23.2918 22.5303 25.1214 22.0456 26.6837 21.1071C28.1242 20.2507 29.3387 19.0193 30.1768 17.5681C31.097 15.9903 31.5554 14.149 31.4931 12.3246C31.4396 10.5129 30.8715 8.71948 29.866 7.21104C28.9037 5.75088 27.5448 4.55557 25.9735 3.78729C24.2931 2.95666 22.3703 2.6351 20.5093 2.85073ZM10.4729 22.8139C10.7785 22.7379 11.1156 22.8059 11.3692 22.9924C12.8978 24.1278 14.604 25.0278 16.4143 25.6221C18.4314 26.2831 20.5754 26.5629 22.6942 26.4237C22.9824 26.4101 23.2834 26.3435 23.5628 26.4504C23.9865 26.5939 24.2921 27.0228 24.2837 27.4713C24.2903 27.6668 24.2354 27.8604 24.1393 28.0301C23.154 29.8212 22.6951 31.8963 22.8282 33.9363C22.9478 35.8746 23.6073 37.774 24.7065 39.3738C24.8696 39.6335 25.1106 39.8585 25.1682 40.1721C25.2807 40.6432 25.0332 41.1696 24.5973 41.381C24.3999 41.4874 24.1721 41.5062 23.9523 41.4968C16.6248 41.4954 9.29729 41.4968 1.96979 41.4963C1.49823 41.4931 1.05948 41.1396 0.951196 40.6817C0.884634 40.451 0.932446 40.212 0.946977 39.9785C1.25776 36.1545 2.45448 32.3956 4.47713 29.1307C5.88526 26.8526 7.69417 24.8163 9.82323 23.1884C10.021 23.0356 10.2217 22.8673 10.4729 22.8139ZM7.08057 29.157C4.95292 32.141 3.63573 35.6796 3.20542 39.3143C9.51198 39.3199 15.8185 39.3143 22.1251 39.3171C22.0749 39.2159 22.0248 39.1146 21.9737 39.0138C20.3739 35.8273 20.1953 31.9751 21.4604 28.6446C19.4021 28.6104 17.3462 28.2654 15.4023 27.5834C13.7579 27.0106 12.1918 26.2165 10.7551 25.2345C9.35729 26.3642 8.12213 27.6926 7.08057 29.157Z"
        fill="#0E1B47" />
    <path
        d="M32.746 23.4794C34.3088 23.3304 35.9091 23.5441 37.3669 24.1329C39.4139 24.9461 41.1638 26.4766 42.2508 28.3915C43.1691 29.9932 43.613 31.8607 43.523 33.7047C43.4461 35.5235 42.8438 37.316 41.8079 38.8132C40.7658 40.3357 39.2827 41.5502 37.5872 42.2768C35.79 43.0507 33.7594 43.2616 31.8399 42.8885C30.1758 42.5697 28.6004 41.8047 27.3179 40.698C25.4893 39.1375 24.2682 36.8833 23.9771 34.4955C23.7394 32.6252 24.0436 30.685 24.8696 28.9882C25.635 27.3925 26.8444 26.0135 28.3247 25.0441C29.6414 24.1718 31.1743 23.6318 32.746 23.4794ZM27.8921 28.3136C26.8993 29.4752 26.2758 30.941 26.1164 32.4607C26.5983 32.4635 27.0802 32.4616 27.5621 32.4611C27.8058 32.4588 28.0519 32.5361 28.245 32.6866C28.6008 32.9529 28.7499 33.4432 28.6233 33.8665C28.4986 34.3057 28.0702 34.6347 27.6132 34.6408C27.1444 34.6436 26.6757 34.6404 26.2069 34.6422C26.4432 35.9369 27.0277 37.165 27.8775 38.1696C29.0874 39.6138 30.8475 40.5841 32.7178 40.8227C32.7202 40.2775 32.7178 39.7324 32.7188 39.1877C32.7197 38.9725 32.701 38.7499 32.7793 38.545C32.8932 38.2183 33.1735 37.9591 33.5058 37.8654C33.8213 37.7805 34.1775 37.8311 34.4433 38.0266C34.725 38.2249 34.8989 38.5643 34.8989 38.9088C34.8985 39.5379 34.898 40.1674 34.8989 40.7965C36.4304 40.5597 37.8816 39.8388 38.9972 38.7635C40.1485 37.668 40.9397 36.2046 41.2289 34.6422C40.6885 34.6408 40.1485 34.6422 39.6085 34.6418C39.1988 34.6446 38.8041 34.3891 38.6344 34.0174C38.4868 33.7108 38.4971 33.3349 38.6597 33.0358C38.8402 32.6894 39.2199 32.4588 39.6113 32.4616C40.1785 32.4616 40.7457 32.463 41.3129 32.4611C41.131 30.6138 40.2338 28.8522 38.8594 27.6068C37.7607 26.6004 36.3619 25.9282 34.8891 25.7013C34.9102 26.2586 34.8928 26.8174 34.8985 27.3752C34.891 27.6344 34.9271 27.9011 34.8469 28.1529C34.733 28.5241 34.403 28.8185 34.021 28.8883C33.6619 28.9638 33.27 28.84 33.0188 28.5738C32.82 28.3685 32.7099 28.083 32.7178 27.7975C32.7268 27.0902 32.7038 26.3819 32.73 25.675C30.8625 25.9108 29.1052 26.8755 27.8921 28.3136Z"
        fill="#0E1B47" />
    <path
        d="M33.3539 31.205C33.9586 31.0771 34.6167 31.2139 35.1136 31.5847C35.5486 31.9006 35.8603 32.383 35.9667 32.9103C36.0872 33.4775 35.9747 34.0906 35.6541 34.5744C35.3517 35.0431 34.8628 35.3863 34.3195 35.5124C33.72 35.6511 33.0605 35.54 32.5547 35.1833C31.9402 34.7675 31.5647 34.0241 31.605 33.2816C31.6181 32.2953 32.3859 31.3883 33.3539 31.205ZM33.8067 33.3402C33.8316 33.3627 33.8316 33.3627 33.8067 33.3402V33.3402Z"
        fill="#597BE5" />
    <path opacity="0.21" d="M33.8066 33.3408C33.8315 33.3633 33.8315 33.3633 33.8066 33.3408V33.3408Z" fill="#BC3A5F" />
</svg>