<svg xmlns="http://www.w3.org/2000/svg" width="40" height="40" viewBox="0 0 40 40" fill="none">
    <path
        d="M3.9979 0.945979C5.25415 0.412541 6.64821 0.30051 7.99728 0.399885C9.81087 0.540041 11.5771 1.04489 13.2651 1.70582C15.6374 2.64285 17.8743 3.89629 19.9949 5.30817C21.6201 4.21926 23.3188 3.23629 25.0917 2.4066C26.7018 1.65848 28.3781 1.0327 30.1195 0.668947C31.2145 0.441135 32.3367 0.322072 33.4556 0.384416C34.4217 0.439729 35.3873 0.648791 36.2629 1.06926C36.9585 1.40629 37.5937 1.87738 38.0967 2.46614C38.6563 3.10926 39.0552 3.88317 39.2971 4.69832C39.7715 6.30051 39.6824 8.01145 39.3735 9.63567C39.0749 11.1816 38.5617 12.6797 37.9382 14.123C37.0467 16.1827 35.9296 18.1388 34.6856 20.0044C36.0852 22.0918 37.3171 24.301 38.2527 26.6363C39.0337 28.6135 39.6112 30.706 39.6299 32.8444C39.629 33.8115 39.5006 34.7869 39.1673 35.6982C38.8804 36.48 38.4398 37.2104 37.852 37.8029C37.2088 38.4596 36.3974 38.9405 35.5288 39.2321C34.6209 39.5391 33.6562 39.6474 32.7013 39.638C30.6585 39.5944 28.6593 39.053 26.7656 38.3147C24.3777 37.3754 22.1254 36.1182 19.9945 34.695C17.6732 36.2405 15.2113 37.6004 12.5849 38.5538C10.8895 39.1627 9.1129 39.5982 7.30493 39.6366C6.41009 39.6493 5.50728 39.556 4.649 39.2935C3.86993 39.0572 3.13071 38.6752 2.50775 38.1488C1.85384 37.5971 1.33212 36.8916 0.986183 36.1097C0.613527 35.2744 0.427433 34.365 0.375402 33.4547C0.270402 31.4752 0.713839 29.5093 1.35603 27.6479C2.31134 24.9338 3.70681 22.3941 5.29775 20.004C4.00821 18.0615 2.84946 16.0243 1.9415 13.8741C1.12868 11.9311 0.501027 9.88082 0.375871 7.7677C0.290558 6.27192 0.493058 4.71192 1.23978 3.39145C1.84728 2.2941 2.84196 1.42645 3.9979 0.945979ZM5.00056 2.89504C4.24821 3.17301 3.5854 3.70129 3.1804 4.39739C2.66618 5.26692 2.52415 6.30239 2.53868 7.29754C2.55696 8.34614 2.75478 9.38348 3.0304 10.3927C3.51415 12.1379 4.24071 13.8071 5.08587 15.406C5.5729 16.3186 6.09275 17.2144 6.65665 18.0816C7.8754 16.4325 9.20103 14.8632 10.6002 13.3646C12.8892 10.9186 15.3857 8.66489 18.0717 6.66145C16.6621 5.76004 15.1992 4.93645 13.6734 4.24739C11.9535 3.47723 10.1493 2.84629 8.2715 2.61379C7.18025 2.49473 6.04025 2.5041 5.00056 2.89504ZM27.307 3.8227C25.4179 4.58301 23.6277 5.56973 21.9112 6.66098C23.3442 7.72692 24.7223 8.86504 26.0427 10.0674C28.7156 12.5039 31.1732 15.181 33.3346 18.083C34.7446 15.8621 35.9877 13.5122 36.779 10.9955C37.154 9.78098 37.4287 8.52426 37.4498 7.24879C37.4554 6.3291 37.3298 5.38176 36.8957 4.5591C36.5395 3.86535 35.9352 3.30895 35.2237 2.99395C34.2599 2.56082 33.1757 2.50082 32.1356 2.57348C30.4692 2.71035 28.8534 3.20535 27.307 3.8227ZM14.5724 12.4632C12.1462 14.7685 9.91118 17.2819 7.95837 20.0021C9.16775 21.6896 10.4906 23.2955 11.8963 24.8232C14.3502 27.4838 17.0521 29.9213 19.9907 32.0377C21.7349 30.7894 23.3901 29.4188 24.9632 27.9619C27.5643 25.5418 29.9573 22.8891 32.0282 19.9997C30.7668 18.2438 29.3859 16.5746 27.9149 14.9902C25.5065 12.4032 22.8627 10.0285 19.9907 7.96504C18.0848 9.33848 16.2777 10.8474 14.5724 12.4632ZM6.65665 21.9207C5.63618 23.5079 4.72165 25.1672 3.98337 26.9049C3.31821 28.4911 2.77728 30.1477 2.59025 31.8643C2.48618 32.9021 2.5129 33.9802 2.87712 34.9688C3.14431 35.7019 3.64259 36.3582 4.31243 36.7669C5.16931 37.3065 6.20712 37.4579 7.20275 37.4607C9.09837 37.4232 10.942 36.8738 12.6909 36.1763C14.5738 35.4127 16.3659 34.4358 18.074 33.338C16.6134 32.2608 15.2179 31.096 13.8759 29.874C11.2302 27.4552 8.79275 24.8016 6.65665 21.9207ZM28.0134 28.058C26.1056 29.9569 24.0768 31.7386 21.9107 33.3385C23.7637 34.5249 25.7118 35.5777 27.7706 36.3624C28.8946 36.7861 30.0529 37.1335 31.2412 37.3238C32.4009 37.5038 33.614 37.5436 34.7465 37.1916C35.5213 36.953 36.231 36.473 36.6848 35.7947C37.2459 34.9749 37.4287 33.961 37.4493 32.9841C37.4638 31.6022 37.1638 30.2372 36.7527 28.9243C35.9601 26.4394 34.7296 24.1177 33.3351 21.9216C31.7146 24.0938 29.9292 26.1418 28.0134 28.058Z"
        fill="#0E1B47" />
    <path
        d="M19.2293 14.6006C20.202 14.4651 21.2117 14.5908 22.1164 14.9756C23.5864 15.5883 24.754 16.8787 25.2106 18.4054C25.6948 19.9678 25.4276 21.7434 24.4924 23.0873C24.0045 23.7956 23.3496 24.39 22.5921 24.7992C20.9885 25.6823 18.9359 25.6715 17.3421 24.7706C15.9664 24.0131 14.951 22.6345 14.6478 21.0923C14.4171 19.9612 14.5535 18.7575 15.041 17.7103C15.7939 16.0551 17.4246 14.8369 19.2293 14.6006ZM19.5579 16.7573C18.8449 16.8558 18.162 17.1909 17.6632 17.7122C16.961 18.4092 16.6114 19.4442 16.7482 20.4239C16.8251 21.0234 17.0759 21.5995 17.4584 22.0668C18.0274 22.7728 18.9031 23.2218 19.8087 23.2687C20.5174 23.3114 21.2379 23.1112 21.8239 22.7109C22.4876 22.2642 22.9774 21.5662 23.1687 20.79C23.321 20.1909 23.2953 19.5497 23.0956 18.9651C22.8462 18.2086 22.3048 17.5556 21.6139 17.1614C20.9974 16.8056 20.2629 16.6608 19.5579 16.7573Z"
        fill="#597BE5" />
</svg>