<svg t="1702492379319" class="icon" viewBox="0 0 1024 1024" version="1.1" xmlns="http://www.w3.org/2000/svg" p-id="6617"
    width="200" height="200">
    <path
        d="M541.696 86.308571l316.952381 140.775619A73.142857 73.142857 0 0 1 902.095238 293.936762V487.619048h-73.142857v-122.197334l-274.285714 117.516191V851.870476l54.857143-24.380952v80.042666l-67.82781 30.134858a73.142857 73.142857 0 0 1-59.392 0l-316.952381-140.751238A73.142857 73.142857 0 0 1 121.904762 730.063238V293.936762a73.142857 73.142857 0 0 1 43.446857-66.852572l316.952381-140.751238a73.142857 73.142857 0 0 1 59.392 0zM877.714286 783.213714L877.714286 887.02781a24.380952 24.380952 0 0 1-35.279238 21.796571L780.190476 877.714286l-62.244571 31.110095A24.380952 24.380952 0 0 1 682.666667 887.02781v-103.814096a157.793524 157.793524 0 0 0 97.523809 33.548191 157.793524 157.793524 0 0 0 97.52381-33.572572zM195.047619 362.788571v367.274667l286.476191 127.21981V485.546667L195.047619 362.788571zM780.190476 536.380952a121.904762 121.904762 0 1 1 0 243.809524 121.904762 121.904762 0 0 1 0-243.809524z m0 73.142858a48.761905 48.761905 0 1 0 0 97.523809 48.761905 48.761905 0 0 0 0-97.523809zM512 153.185524L207.335619 288.475429l307.760762 131.900952 304.591238-130.56L512 153.185524z"
        p-id="6618" fill="#ffffff"></path>
</svg>