<svg xmlns="http://www.w3.org/2000/svg" width="39" height="48" viewBox="0 0 39 48" fill="none">
    <path
        d="M14.5256 48V44.5723H24.8085V48H14.5256ZM38.5191 18.8649C38.5341 21.6531 37.9202 24.4087 36.723 26.9268C35.5392 29.4286 33.8105 31.6339 31.6638 33.3811C30.6287 34.238 29.7992 35.2457 29.1719 36.4077C28.548 37.5671 28.2262 38.8649 28.2362 40.1815V41.1481H11.0979V40.394C11.0979 39.0744 10.8374 37.8233 10.3198 36.6476C9.81968 35.4901 9.03714 34.4766 8.04387 33.6998C5.30033 31.5548 3.206 28.6903 1.99406 25.4255C0.781758 22.1674 0.485389 18.6394 1.13714 15.2248C1.83048 11.615 3.57092 8.28905 6.14152 5.66161C8.70284 3.01757 11.9961 1.19962 15.5984 0.441295C18.3519 -0.165067 21.2063 -0.146326 23.9516 0.496137C26.7012 1.13798 29.2669 2.40207 31.4513 4.19115C33.6545 5.95469 35.4376 8.18631 36.6716 10.7243C37.9056 13.2607 38.5226 15.972 38.5226 18.8649H38.5191ZM9.38408 20.5788C9.41835 16.9729 10.3575 14.0902 12.1948 11.9308C14.0354 9.77137 16.5239 8.65395 19.667 8.58197V5.15432C15.4887 5.26058 12.1776 6.73447 9.73027 9.57599C7.28635 12.4072 6.0284 16.0748 5.95642 20.5788H9.38408Z"
        fill="white" />
</svg>