<svg xmlns="http://www.w3.org/2000/svg" width="48" height="48" viewBox="0 0 48 48" fill="none">
    <path
        d="M31.2801 8.45301C29.2062 9.5749 26.9006 10.2009 24.5441 10.282V13.682H31.9491C31.9197 11.9197 31.6956 10.1661 31.2811 8.45301H31.2801ZM19.9271 0.566001C17.4537 1.29737 15.2298 2.69666 13.5001 4.61001C14.2782 5.45497 15.156 6.20243 16.1141 6.83601C16.9851 4.15001 18.3191 1.964 19.9281 0.566001H19.9271ZM31.9121 6.83401C32.8698 6.20067 33.7472 5.45355 34.5251 4.60901C34.4781 4.55701 34.4321 4.50401 34.3841 4.45301C32.6721 2.62164 30.5025 1.28018 28.0991 0.567001C29.7081 1.965 31.0411 4.15001 31.9121 6.83401ZM24.5441 0V9.21701C26.8094 9.13817 29.023 8.5186 31.0001 7.41001C29.7311 3.23501 27.3311 0.333 24.5451 0H24.5441ZM15.0111 13.682C15.0531 11.629 15.3301 9.67901 15.8031 7.90601C14.7047 7.20484 13.7006 6.36603 12.8151 5.41001C10.8551 7.89701 9.88908 10.677 9.77808 13.682H15.0111ZM30.9801 21.018C29.0126 19.902 26.8047 19.2777 24.5441 19.198V26.78L29.9621 23.634C30.3491 22.856 30.6841 21.969 30.9791 21.018H30.9801ZM31.9471 14.748H24.5441V18.132C26.8985 18.2086 29.2024 18.8343 31.2721 19.959C31.689 18.2527 31.9154 16.5053 31.9471 14.749V14.748ZM37.3081 19.369C37.9551 17.696 38.1911 16.31 38.2501 14.749H33.0121C32.98 16.6991 32.7176 18.6386 32.2301 20.527C32.6971 20.819 33.1601 21.147 33.6161 21.512L37.3081 19.369ZM30.9631 31.472L48.0001 21.578L41.8131 17.985L24.7771 27.878L30.9631 31.472ZM33.0141 13.682H38.2481C38.1301 10.507 37.0621 7.75901 35.2091 5.40801C34.3237 6.36441 33.3196 7.20356 32.2211 7.90501C32.6951 9.67801 32.9721 11.628 33.0141 13.682ZM31.5231 22.727L32.6321 22.084C32.3931 21.904 32.1491 21.758 31.9071 21.599C31.7821 21.981 31.6631 22.37 31.5231 22.727ZM38.7201 18.548L40.7491 17.37L39.1741 16.463C39.0541 17.273 38.7571 18.423 38.7201 18.548ZM39.3021 15.306L41.8121 16.753L47.9981 13.159L37.6231 7.16301C38.6611 9.15901 39.3411 11.735 39.3411 14.213C39.3411 14.583 39.3271 14.945 39.3021 15.306ZM16.0761 13.682H23.4791V10.282C21.123 10.2011 18.8178 9.5754 16.7441 8.45401C16.3296 10.1668 16.1056 11.9201 16.0761 13.682ZM16.7541 19.959C18.8229 18.8345 21.1257 18.2089 23.4791 18.132V14.748H16.0791C16.1161 16.551 16.3431 18.297 16.7541 19.958V19.959ZM16.1201 21.585C15.7801 21.81 15.4451 22.045 15.1241 22.303L16.7171 23.223C16.4927 22.6865 16.2932 22.1399 16.1191 21.585H16.1201Z"
        fill="white" />
    <path
        d="M30.6952 32.548L24.2451 28.802L24.1961 47.0741L41.2282 37.1741L41.2582 26.727L31.2302 32.549C31.1489 32.5963 31.0566 32.6212 30.9627 32.6212C30.8687 32.6212 30.7764 32.5963 30.6952 32.549V32.548ZM26.6421 43.1831H26.6411C26.5 43.1831 26.3645 43.127 26.2646 43.0273C26.1647 42.9276 26.1084 42.7923 26.1081 42.6511L26.1011 39.0571C26.1009 38.9159 26.1566 38.7803 26.2562 38.6802C26.3558 38.5801 26.491 38.5236 26.6321 38.5231H26.6331C26.9271 38.5231 27.1651 38.7611 27.1661 39.0551L27.1741 42.6491C27.1743 42.7191 27.1606 42.7884 27.134 42.8531C27.1073 42.9178 27.0681 42.9767 27.0187 43.0262C26.9693 43.0758 26.9107 43.1152 26.846 43.1421C26.7814 43.169 26.7121 43.1829 26.6421 43.1831ZM29.1921 41.7011H29.1912C29.05 41.7011 28.9145 41.645 28.8146 41.5453C28.7147 41.4456 28.6584 41.3102 28.6581 41.1691L28.6511 37.5751C28.6509 37.4337 28.7068 37.298 28.8066 37.1979C28.9063 37.0977 29.0418 37.0413 29.1831 37.0411C29.3245 37.0408 29.4602 37.0967 29.5603 37.1965C29.6605 37.2962 29.7169 37.4317 29.7171 37.5731L29.7241 41.1671C29.7243 41.2371 29.7106 41.3064 29.684 41.3711C29.6573 41.4358 29.6181 41.4947 29.5687 41.5442C29.5193 41.5938 29.4607 41.6332 29.396 41.6601C29.3314 41.687 29.2621 41.7009 29.1921 41.7011ZM31.7322 35.5591C32.0262 35.5591 32.2652 35.7971 32.2662 36.0911L32.2742 39.6851C32.2744 39.8264 32.2185 39.9621 32.1187 40.0622C32.019 40.1624 31.8835 40.2188 31.7422 40.2191C31.6008 40.2193 31.4651 40.1634 31.365 40.0637C31.2648 39.9639 31.2084 39.8284 31.2082 39.6871L31.2002 36.0931C31.2 36.0231 31.2137 35.9537 31.2403 35.889C31.267 35.8243 31.3062 35.7655 31.3556 35.7159C31.405 35.6663 31.4636 35.6269 31.5283 35.6C31.5929 35.5731 31.6622 35.5592 31.7322 35.5591ZM17.0261 7.41101C19.0024 8.51883 21.2149 9.13804 23.4791 9.21701V0C20.6931 0.335 18.2941 3.237 17.0261 7.41101ZM16.2001 32.55L6.72212 27.078L6.69312 37.5901L23.1301 47.0801L23.1801 28.806L16.7331 32.549C16.652 32.5956 16.5602 32.6201 16.4666 32.6201C16.3731 32.6201 16.2812 32.5956 16.2001 32.549V32.55ZM18.3331 24.155L23.4791 27.126V19.198C21.2207 19.2777 19.0149 19.9014 17.0491 21.016C17.3931 22.143 17.8151 23.205 18.3331 24.155Z"
        fill="white" />
    <path
        d="M22.651 27.8803C15.588 23.8023 12.988 22.3023 12.511 22.0283L6.21401 18.3903L0.028 21.9823L16.465 31.4723L22.651 27.8803ZM9.78201 14.7483C9.85202 16.5233 10.162 18.1313 10.93 19.8823L14.15 21.7413C14.6707 21.3008 15.221 20.8966 15.797 20.5313C15.3085 18.6413 15.0453 16.7001 15.013 14.7483H9.78302H9.78201ZM8.74901 15.5783C8.70611 15.1246 8.68475 14.6691 8.68501 14.2133C8.68501 11.6363 9.42701 8.99329 10.443 7.07129L0 13.5483L6.20501 17.1523C6.07501 17.2323 8.59501 15.6723 8.74901 15.5783ZM9.45601 19.0303C9.22018 18.28 9.03214 17.5154 8.89301 16.7413L7.25101 17.7583L9.45601 19.0303Z"
        fill="white" />
</svg>