<svg xmlns="http://www.w3.org/2000/svg" width="40" height="48" viewBox="0 0 40 48" fill="none">
    <path
        d="M29.5113 47.9997C29.3427 47.9997 29.1809 47.9327 29.0616 47.8134C28.9423 47.6942 28.8753 47.5324 28.8753 47.3637C28.8753 45.1021 29.7047 44.1583 30.665 43.0682C31.7348 41.8547 33.0653 40.3436 33.8628 36.0455C34.1605 34.3957 35.0114 33.9861 35.7632 33.6236C36.7108 33.167 37.7844 32.648 38.1202 28.294C38.1176 25.7614 36.8546 25.0784 36.8011 25.0516L36.3814 24.8354L36.4564 24.366C36.4653 24.3202 37.301 19.7601 37.6216 16.3143C37.8047 14.3262 37.2476 10.0116 34.004 6.45762C30.8647 3.01688 26.1533 1.27297 20.0006 1.27297C13.8238 1.27297 9.10091 3.02451 5.96162 6.48052C2.73076 10.037 2.19016 14.3338 2.38223 16.3118C2.72185 19.7589 3.55755 24.319 3.56646 24.366L3.6555 24.8545L3.20394 25.0605C3.15942 25.0834 1.88615 25.75 1.88615 28.3436C2.21814 32.6505 3.29171 33.1682 4.23934 33.6249C4.99109 33.9874 5.84333 34.397 6.14097 36.0493C6.93724 40.3448 8.26902 41.8547 9.3375 43.0695C10.2991 44.1595 11.1285 45.1034 11.1285 47.365C11.1285 47.5337 11.0615 47.6954 10.9422 47.8147C10.8229 47.934 10.6611 48.001 10.4925 48.001C10.3238 48.001 10.162 47.934 10.0427 47.8147C9.92348 47.6954 9.85647 47.5337 9.85647 47.365C9.85647 45.5829 9.27008 44.9177 8.3835 43.9102C7.27305 42.6497 5.75174 40.9223 4.8906 36.2783C4.70616 35.2619 4.34492 35.0864 3.68857 34.7697C2.22196 34.0625 0.977947 33.0945 0.6167 28.3906C0.615428 25.8683 1.63684 24.6739 2.24231 24.1854C2.02861 22.9757 1.40279 19.3264 1.11659 16.4339C0.906715 14.2473 1.49183 9.51168 5.02162 5.62447C8.41021 1.89371 13.4511 0.000976562 20.0006 0.000976562C26.526 0.000976562 31.5529 1.8848 34.9428 5.59903C38.484 9.47988 39.0882 14.2333 38.8872 16.4301C38.6175 19.3264 37.993 22.9834 37.7793 24.1892C38.3784 24.6777 39.3896 25.8683 39.3896 28.3423C39.0271 33.0932 37.7831 34.0625 36.3165 34.7697C35.6589 35.0864 35.2964 35.2619 35.1145 36.2757C34.2521 40.9223 32.732 42.6497 31.6216 43.9102C30.735 44.9177 30.1486 45.5816 30.1486 47.365C30.1479 47.5336 30.0805 47.695 29.9611 47.814C29.8416 47.9329 29.6799 47.9997 29.5113 47.9997Z"
        fill="white" />
    <path
        d="M18.6581 7.1371L18.6136 31.0264C18.5134 31.0945 18.4154 31.1658 18.3197 31.2401C15.1677 33.6531 11.7664 31.5874 11.7486 31.5607C10.974 31.0621 10.5199 30.4655 10.3774 29.7888C10.1993 28.7648 10.876 27.8566 10.876 27.8299C11.4013 27.1443 11.6061 26.5121 11.5171 25.8978C11.4552 25.4815 11.2351 25.1052 10.9027 24.8471C9.13084 23.5115 9.86096 21.9622 9.86096 21.9622C9.91259 21.8531 9.92012 21.7284 9.88196 21.6139C9.8438 21.4994 9.76291 21.4041 9.65617 21.3478C9.60245 21.3206 9.54386 21.3043 9.48379 21.2998C9.42373 21.2954 9.36337 21.3029 9.30623 21.322C9.24909 21.341 9.1963 21.3712 9.15091 21.4108C9.10552 21.4504 9.06843 21.4986 9.0418 21.5526C8.67674 22.3273 8.47194 24.1437 10.3596 25.5772C10.4219 25.6484 11.0185 26.1293 10.1548 27.2601C9.90591 27.59 9.71611 27.9605 9.59384 28.3552C8.66783 27.8655 8.00003 27.3135 7.52812 26.7436L7.06512 26.0936C5.88089 24.0992 6.69115 22.0869 6.78909 21.891C7.40347 20.7602 8.17811 20.03 9.13084 19.7362C10.6267 19.2821 12.0602 20.03 12.0602 20.0568C14.9986 21.7841 13.4315 24.8293 13.3602 24.9628L13.3335 25.0341C13.1732 25.4615 13.2267 25.8087 13.4315 26.058C13.6362 26.3073 13.9479 26.3519 14.1972 26.334C14.8383 26.3519 15.2657 26.5121 15.4972 26.8327C15.8177 27.2868 15.6307 27.9457 15.5862 28.1237C15.2657 28.6224 14.8828 28.9251 14.4732 28.9696C13.6986 29.0587 12.9684 28.3552 12.9684 28.3285C12.9273 28.2863 12.8782 28.2528 12.8239 28.2299C12.7696 28.207 12.7113 28.1952 12.6524 28.1952C12.5934 28.1952 12.5351 28.207 12.4808 28.2299C12.4265 28.2528 12.3774 28.2863 12.3363 28.3285C12.294 28.3705 12.2604 28.4204 12.2375 28.4755C12.2146 28.5305 12.2028 28.5895 12.2028 28.6491C12.2028 28.7087 12.2146 28.7677 12.2375 28.8227C12.2604 28.8777 12.294 28.9276 12.3363 28.9696C12.363 29.0141 13.2267 29.8778 14.3129 29.8778C14.3842 29.8778 14.4732 29.8778 14.5444 29.8511C15.2479 29.7621 15.8622 29.3347 16.3609 28.5333L16.4054 28.4443C16.4321 28.3998 16.8417 27.2155 16.2273 26.3073C15.8355 25.7375 15.1321 25.4437 14.1794 25.4437C14.1794 25.4437 14.1794 25.3724 14.1972 25.3724C14.9095 24.0101 15.4527 21.0095 12.5411 19.2821C12.4698 19.2465 11.4281 18.6766 10.0836 18.6944C10.0747 18.6944 10.0658 18.6944 10.0658 18.6855C9.87877 18.5698 9.4959 17.9109 9.7185 16.05C9.74521 15.8007 9.55823 15.5692 9.33563 15.5513C9.08632 15.5246 8.85482 15.7116 8.83701 15.9342C8.65893 17.4301 8.8192 18.3027 9.06851 18.828C8.64822 18.9299 8.24796 19.1015 7.88428 19.3355C7.85757 19.3088 7.83976 19.2821 7.81305 19.2554C5.21309 17.0027 6.67334 14.8925 6.74457 14.7945L6.76238 14.75C7.85757 12.8 10.5377 13.5212 10.787 13.5925C13.0397 14.5719 12.1315 17.6616 12.1315 17.6883C12.0978 17.8028 12.1095 17.926 12.1642 18.0321C12.2189 18.1382 12.3124 18.2192 12.4253 18.2582C12.541 18.2901 12.6645 18.2765 12.7705 18.2202C12.8765 18.1639 12.9569 18.0692 12.9952 17.9554C13.2178 17.2164 13.3691 16.05 13.0664 14.9726C14.6068 14.5185 15.2924 15.1863 15.3191 15.2308C16.6369 16.5931 15.9958 17.8486 15.8622 18.0712C15.4972 18.4184 15.3369 18.7746 15.3636 19.1396C15.3814 19.4424 15.5684 19.665 15.7287 19.7985C16.2006 20.3061 16.5389 21.2588 16.6547 21.6238C16.9307 23.0574 15.9335 24.0813 15.9335 24.0992C15.8892 24.14 15.8539 24.1896 15.8298 24.2447C15.8056 24.2999 15.7932 24.3595 15.7932 24.4197C15.7932 24.4799 15.8056 24.5395 15.8298 24.5947C15.8539 24.6498 15.8892 24.6994 15.9335 24.7402C15.9763 24.7882 16.0283 24.827 16.0864 24.8546C16.1446 24.8821 16.2076 24.8977 16.2718 24.9005C16.3929 24.8953 16.5074 24.8444 16.5924 24.758C16.6369 24.7135 17.9547 23.369 17.5629 21.4369V21.3923C17.5451 21.33 17.1355 19.9143 16.3609 19.1396L16.2896 19.0773C16.2896 19.0328 16.3341 18.917 16.5389 18.7123L16.5924 18.6677L16.6102 18.6232C17.0643 17.9376 17.5451 16.2102 15.978 14.5897C15.9335 14.5541 14.8739 13.4589 12.7102 14.1178C12.3535 13.499 11.7981 13.0189 11.1342 12.7555L11.0808 12.7288C10.7724 12.6367 10.4566 12.5711 10.137 12.5329C10.0034 12.0699 9.86987 11.1439 10.1993 10.8412C10.2437 10.8009 10.2796 10.7521 10.3046 10.6977C10.3297 10.6433 10.3434 10.5843 10.3451 10.5244C10.3468 10.4645 10.3363 10.4049 10.3143 10.3491C10.2923 10.2934 10.2592 10.2427 10.2171 10.2001C10.1779 10.1556 10.1299 10.1196 10.0762 10.0945C10.0225 10.0693 9.96419 10.0554 9.9049 10.0538C9.84561 10.0521 9.78661 10.0626 9.73156 10.0847C9.67652 10.1069 9.62661 10.14 9.58494 10.1823C8.93495 10.7788 9.05961 11.9007 9.18426 12.4884C8.55403 12.506 7.9348 12.6578 7.36785 12.9336C6.1302 11.2863 7.4747 9.96856 7.65278 9.81719C8.44523 9.06926 9.24659 8.74872 9.99452 8.88228C11.4013 9.11378 12.3363 10.7254 12.452 10.9302C12.7458 11.6603 13.2267 12.1589 13.841 12.3637C14.8828 12.7288 15.9335 12.1589 15.978 12.1144L16.0403 12.0699L16.0848 11.9987C16.7259 11.2774 16.9752 10.5473 16.8417 9.86171C16.6547 8.88228 15.7465 8.41037 15.702 8.38366L15.6574 8.36585L15.5862 8.33914C14.1972 8.04531 13.8143 7.5912 13.7253 7.3597C13.5828 7.06587 13.7698 6.77204 13.7698 6.77204C13.8329 6.66815 13.8543 6.54416 13.8295 6.42515C13.8047 6.30613 13.7356 6.20098 13.6362 6.13095C13.5358 6.06885 13.4148 6.04898 13.2997 6.07566C13.1846 6.10235 13.0848 6.17343 13.0219 6.27342C12.8616 6.52273 12.6301 7.09258 12.8794 7.70695C13.1732 8.41037 13.9924 8.9268 15.3369 9.22953C15.4705 9.31857 15.88 9.58569 15.9513 10.0487C16.0225 10.4316 15.8622 10.8679 15.4527 11.3398C15.2479 11.4288 14.6602 11.687 14.1349 11.4822C13.7698 11.3398 13.4938 11.0192 13.289 10.5473L13.2712 10.5028C13.2267 10.4049 12.0602 8.29462 10.1548 7.97407C9.96065 7.94156 9.76396 7.92666 9.56713 7.92955C10.226 6.61177 11.1342 5.76589 12.265 5.42754C14.8561 4.6529 18.2574 6.86108 18.6581 7.1371ZM25.4887 9.84009C25.5751 9.84017 25.6607 9.82323 25.7406 9.79023C25.8205 9.75722 25.8932 9.70881 25.9543 9.64774C26.0155 9.58667 26.0641 9.51416 26.0972 9.43432C26.1304 9.35449 26.1475 9.26891 26.1476 9.18247C26.1477 9.09603 26.1307 9.01041 26.0977 8.93052C26.0647 8.85062 26.0163 8.77801 25.9552 8.71682C25.8942 8.65564 25.8216 8.60708 25.7418 8.57393C25.662 8.54077 25.5764 8.52366 25.49 8.52358C25.3154 8.52341 25.1479 8.5926 25.0243 8.71592C24.9008 8.83925 24.8312 9.00662 24.8311 9.1812C24.8309 9.35578 24.9001 9.52327 25.0234 9.64684C25.1467 9.77041 25.3141 9.83992 25.4887 9.84009Z"
        fill="white" />
    <path
        d="M29.3876 20.0933C29.1382 20.1645 28.8889 20.0488 28.8266 19.7994C28.7554 19.5501 28.8711 19.3008 29.1204 19.2385C29.806 19.0159 30.9992 18.9536 32.1211 19.5679C32.1399 19.5373 32.164 19.5101 32.1923 19.4878C34.7121 17.3063 33.4032 15.2317 33.2608 15.0536C32.0766 13.6646 30.9369 13.8694 30.8745 13.8872C30.7567 13.9122 30.6338 13.891 30.5311 13.8281C30.4284 13.7651 30.3537 13.6652 30.3225 13.5489C30.2995 13.43 30.3225 13.3067 30.387 13.2042C30.4515 13.1017 30.5526 13.0276 30.6697 12.9968C30.7143 12.9879 31.5156 12.8098 32.5129 13.3085C33.9464 11.59 32.5307 10.2099 32.3704 10.0674C30.4828 8.52703 29.0759 9.31948 29.0047 9.364C28.9055 9.42759 28.7851 9.44925 28.6699 9.42421C28.5547 9.39917 28.4542 9.32949 28.3903 9.23044C28.3259 9.12689 28.3039 9.00253 28.3288 8.88316C28.3536 8.76379 28.4235 8.65858 28.5239 8.58936C28.5684 8.56264 29.3074 8.11745 30.4471 8.2332C29.7882 6.87089 28.8711 6.00721 27.7136 5.65105C25.1582 4.89421 21.8281 7.00445 21.3384 7.32499L21.3829 31.2589C21.4541 31.3123 21.561 31.3924 21.6856 31.4904C24.8198 33.9211 28.1143 31.8999 28.2568 31.8109C29.0492 31.3123 29.5033 30.6979 29.6191 30.039C29.806 29.015 29.1383 28.1068 29.1204 28.0801C28.9869 27.8753 29.0047 27.5993 29.2095 27.448C29.3069 27.3764 29.4284 27.3457 29.5481 27.3623C29.6678 27.379 29.7763 27.4416 29.8506 27.537C29.8773 27.5637 30.1978 27.9822 30.4026 28.6144C31.3019 28.1336 31.9519 27.6082 32.4238 27.0562L32.9491 26.3261C34.1512 24.287 33.2608 22.2302 33.2163 22.1234C31.9608 19.3721 29.5033 20.0755 29.3876 20.0933ZM28.8978 26.4418C28.4824 26.4411 28.0842 26.2758 27.7905 25.9821C27.4967 25.6883 27.3314 25.2901 27.3307 24.8747C27.3307 24.1357 27.8472 23.5124 28.5328 23.3432V21.509H25.2116C25.1608 21.7901 25.0345 22.052 24.8463 22.2669C24.6581 22.4818 24.415 22.6414 24.1431 22.7289V27.4747C24.7753 27.6795 25.2383 28.276 25.2383 28.9705C25.2383 29.8342 24.526 30.5376 23.6712 30.5376C23.4553 30.5997 23.2285 30.6146 23.0063 30.5816C22.784 30.5485 22.5715 30.4681 22.3829 30.3459C22.1944 30.2237 22.0343 30.0624 21.9134 29.873C21.7925 29.6836 21.7136 29.4705 21.6821 29.248C21.6506 29.0256 21.6672 28.7989 21.7308 28.5834C21.7943 28.3679 21.9034 28.1685 22.0505 27.9988C22.1977 27.829 22.3796 27.6928 22.5839 27.5993C22.7882 27.5058 23.0102 27.4572 23.2349 27.4569V22.7467C22.9084 22.6501 22.6218 22.4505 22.418 22.1777C22.2142 21.9049 22.1041 21.5735 22.1041 21.233C22.1041 20.5207 22.576 19.9152 23.2349 19.7282V16.7988C23.2349 16.7365 23.2438 16.6742 23.2705 16.6207C23.2966 16.5222 23.3543 16.4349 23.4347 16.3722C23.5151 16.3095 23.6138 16.2748 23.7157 16.2735H25.0068V10.6729C24.6918 10.5717 24.4169 10.3733 24.2217 10.1061C24.0266 9.83897 23.9211 9.5168 23.9205 9.18592C23.9209 8.76958 24.0858 8.37025 24.3793 8.07502C24.6729 7.77979 25.0713 7.61261 25.4876 7.60992C26.3513 7.60992 27.0547 8.32224 27.0547 9.18592C27.0547 9.89824 26.5739 10.5037 25.915 10.6907V16.2735H27.8383C27.9298 15.9419 28.1273 15.6493 28.4006 15.4403C28.6738 15.2313 29.0079 15.1174 29.3519 15.116C29.7687 15.116 30.1685 15.2815 30.4632 15.5763C30.7579 15.871 30.9235 16.2707 30.9235 16.6875C30.9235 17.1043 30.7579 17.504 30.4632 17.7988C30.1685 18.0935 29.7687 18.2591 29.3519 18.2591C29.0241 18.2561 28.7053 18.1519 28.4391 17.9606C28.1728 17.7693 27.9723 17.5003 27.865 17.1906H24.1431V19.7371C24.5705 19.8796 24.9178 20.1912 25.0959 20.6008H28.9958C29.2451 20.6008 29.4499 20.8056 29.4499 21.0549C29.4493 21.0797 29.4432 21.104 29.4321 21.1261C29.441 21.1618 29.4499 21.1885 29.4499 21.2063V23.4056C29.7922 23.5361 30.0781 23.7822 30.258 24.1014C30.4379 24.4205 30.5005 24.7925 30.4349 25.153C30.3694 25.5134 30.1799 25.8396 29.8991 26.075C29.6184 26.3103 29.2642 26.4401 28.8978 26.4418Z"
        fill="white" />
    <path
        d="M23.6673 28.3066C23.4919 28.3066 23.3236 28.3763 23.1996 28.5004C23.0755 28.6244 23.0059 28.7927 23.0059 28.9681C23.0059 29.1435 23.0755 29.3117 23.1996 29.4358C23.3236 29.5598 23.4919 29.6295 23.6673 29.6295C23.8427 29.6295 24.011 29.5598 24.135 29.4358C24.259 29.3117 24.3287 29.1435 24.3287 28.9681C24.3287 28.7927 24.259 28.6244 24.135 28.5004C24.011 28.3763 23.8427 28.3066 23.6673 28.3066Z"
        fill="white" />
    <path
        d="M28.2388 24.8737C28.2388 25.0485 28.3082 25.2161 28.4318 25.3396C28.5553 25.4632 28.7229 25.5326 28.8977 25.5326C29.0724 25.5326 29.24 25.4632 29.3636 25.3396C29.4871 25.2161 29.5566 25.0485 29.5566 24.8737C29.5566 24.699 29.4871 24.5314 29.3636 24.4078C29.24 24.2843 29.0724 24.2148 28.8977 24.2148C28.7229 24.2148 28.5553 24.2843 28.4318 24.4078C28.3082 24.5314 28.2388 24.699 28.2388 24.8737Z"
        fill="white" />
    <path
        d="M23.0083 21.2351C23.0083 21.4098 23.0777 21.5774 23.2013 21.701C23.3249 21.8245 23.4924 21.894 23.6672 21.894C23.8419 21.894 24.0095 21.8245 24.1331 21.701C24.2567 21.5774 24.3261 21.4098 24.3261 21.2351C24.3261 21.0603 24.2567 20.8927 24.1331 20.7692C24.0095 20.6456 23.8419 20.5762 23.6672 20.5762C23.4924 20.5762 23.3249 20.6456 23.2013 20.7692C23.0777 20.8927 23.0083 21.0603 23.0083 21.2351Z"
        fill="white" />
    <path
        d="M29.3518 17.3463C29.5269 17.346 29.6948 17.2766 29.8191 17.1533C29.9434 17.0299 30.0141 16.8625 30.0157 16.6874C30.0151 16.5115 29.9449 16.343 29.8205 16.2187C29.6962 16.0943 29.5277 16.0241 29.3518 16.0234C29.1767 16.0251 29.0093 16.0958 28.8859 16.2201C28.7626 16.3444 28.6932 16.5123 28.6929 16.6874C28.6929 17.0474 28.9918 17.3463 29.3518 17.3463Z"
        fill="white" />
</svg>