<svg xmlns="http://www.w3.org/2000/svg" width="41" height="40" viewBox="0 0 41 40" fill="none">
    <g clip-path="url(#clip0_691_3598)">
        <path
            d="M2.30659 16.4107C1.98745 16.8704 1.70944 17.3025 1.48096 17.6933C0.754399 18.9333 0.660767 19.5098 0.660767 19.8746V28.1054C0.660767 29.5351 1.82366 30.698 3.25338 30.698H4.68737C5.16635 32.9522 7.19608 34.6171 9.52581 34.6171C11.8558 34.6171 13.8842 32.9523 14.363 30.698H15.0127C15.5851 30.698 16.1315 30.5122 16.58 30.1695C17.03 30.5122 17.5764 30.698 18.1488 30.698H25.0694C25.5485 32.9522 27.5769 34.6171 29.9081 34.6171C32.2379 34.6171 34.2663 32.9523 34.7454 30.698H37.7467C39.1764 30.698 40.3393 29.5351 40.3393 28.1054V7.72453C40.3393 6.29473 39.1764 5.13184 37.7467 5.13184H18.1476C16.7176 5.13184 15.5549 6.29473 15.5549 7.72453V10.6777C15.3763 10.6392 15.194 10.6199 15.0113 10.62H8.34784C7.91592 10.62 7.30487 10.7796 6.05252 11.9618C5.51155 12.4723 4.89233 13.1342 4.26073 13.8773L4.25401 13.8855L3.77924 14.4443H3.79018C3.76956 14.469 3.75026 14.4938 3.72967 14.5186C3.22174 15.1462 2.73057 15.8011 2.30663 16.4107C2.30807 16.4094 2.30807 16.4107 2.30663 16.4107L2.30659 16.4107ZM29.9067 32.5681C28.3104 32.5681 27.0112 31.2691 27.0112 29.6727C27.0112 28.0764 28.3103 26.7774 29.9067 26.7774C31.503 26.7774 32.8007 28.0764 32.8007 29.6727C32.8007 31.2692 31.503 32.5681 29.9067 32.5681ZM17.6054 13.2127V7.72457C17.6054 7.42449 17.8489 7.18094 18.1488 7.18094H37.7467C38.0467 7.18094 38.2903 7.42449 38.2903 7.72457V28.1066C38.2903 28.4067 38.0467 28.6502 37.7467 28.6502H34.7426C34.276 26.4279 32.3494 24.7998 30.0526 24.7323H29.8102C29.8089 24.7309 29.8047 24.7323 29.8007 24.7323H29.769V24.7309H29.754C27.4598 24.8025 25.536 26.4293 25.0694 28.6488H18.1489C17.849 28.6488 17.6054 28.4053 17.6054 28.1054V13.2127L17.6054 13.2127ZM9.52463 32.5682C7.92959 32.5682 6.62913 31.2692 6.62913 29.6727C6.62913 28.0764 7.92827 26.7774 9.52463 26.7774C11.1209 26.7774 12.4201 28.0764 12.4201 29.6727C12.4201 31.2692 11.1209 32.5682 9.52463 32.5682ZM2.70577 28.1054V22.0762H10.3034C11.7332 22.0762 12.8961 20.9136 12.8961 19.4836V16.3475C12.8961 14.9177 11.7332 13.7548 10.3034 13.7548H7.14377C7.19752 13.7025 7.24834 13.6515 7.30061 13.6007C7.99838 12.9207 8.33541 12.7213 8.44143 12.669H15.0085C15.3085 12.669 15.5521 12.9126 15.5521 13.2127V28.0984C15.5521 28.3985 15.3085 28.642 15.0085 28.642H14.359C13.9117 26.5377 12.1022 24.9236 9.94159 24.7405C9.92502 24.7392 9.90995 24.7392 9.89479 24.7377H9.88913V24.7459H9.88784V24.7377H9.88237V24.7447L9.8769 24.7377V24.7432H9.87545V24.7377L9.8685 24.742H9.86729V24.7377H9.86155V24.7405L9.82729 24.735H9.67319L9.66623 24.7336V24.7366L9.66081 24.7336V24.7378H9.65928L9.65385 24.7336L9.64694 24.7392L9.64147 24.7336V24.7392H9.64002L9.63455 24.735V24.7378H9.63331V24.735L9.62635 24.7378V24.7366H9.42815C9.42393 24.735 9.41991 24.7366 9.41721 24.7366H9.38127H9.3676C9.36608 24.7378 9.36487 24.7378 9.36342 24.7378H9.36186C9.36069 24.7392 9.35913 24.7392 9.35795 24.7392H9.29338C9.28499 24.7405 9.27405 24.7405 9.2644 24.7405H9.22026C9.20936 24.742 9.19702 24.7432 9.18608 24.7459C9.18315 24.7475 9.18042 24.7475 9.17916 24.7475C9.17643 24.7475 9.17498 24.7489 9.17221 24.7489C9.16948 24.7489 9.16803 24.7502 9.16526 24.7502C9.16249 24.7502 9.16127 24.7516 9.15854 24.7516C9.15561 24.7516 9.15436 24.7529 9.15163 24.7529V24.7432C6.97034 24.907 5.13866 26.5295 4.68737 28.6487H3.25487C2.95479 28.6487 2.71124 28.4052 2.71124 28.1053H2.70577V28.1054ZM2.70975 20.0261V19.887C2.71667 19.8402 2.78682 19.4823 3.37588 18.5177L3.51358 18.2961L3.23014 18.1158L3.51905 18.2865L3.38971 18.1998L3.52874 18.2741C3.82858 17.8021 4.20147 17.2681 4.60616 16.7274C4.60885 16.7232 4.61163 16.719 4.61456 16.7163C4.84642 16.4073 5.08404 16.1027 5.32729 15.8027H10.3089C10.609 15.8027 10.8526 16.0463 10.8526 16.3461V19.4824C10.8526 19.7825 10.609 20.0261 10.3089 20.0261H2.70975Z"
            fill="black" />
        <path fill-rule="evenodd" clip-rule="evenodd"
            d="M16.5 5H15.5V6V10H8.5H7.99469L7.69494 10.4068L4.74758 14.4068L0.694944 19.9068L0.5 20.1714V20.5V21V30V31H1.5H4.60002C5.06329 33.2822 7.08104 35 9.5 35C11.919 35 13.9367 33.2822 14.4 31H15.5H16.5H17.5H25.6C26.0633 33.2822 28.081 35 30.5 35C32.919 35 34.9367 33.2822 35.4 31H39.5H40.5V30V6V5H39.5H16.5ZM35.4 29H38.5V7H17.5V10V11V29H25.6C26.0633 26.7178 28.081 25 30.5 25C32.919 25 34.9367 26.7178 35.4 29ZM9.5 25C7.08104 25 5.06329 26.7178 4.60002 29H2.5V22H11.5H12.5V21V15V14H11.5H7.53162L9.00531 12H15.5V29H14.4C13.9367 26.7178 11.919 25 9.5 25ZM10.5 20H3.11057L6.05794 16H10.5V20ZM9.5 27C7.84315 27 6.5 28.3431 6.5 30C6.5 31.6569 7.84315 33 9.5 33C11.1569 33 12.5 31.6569 12.5 30C12.5 28.3431 11.1569 27 9.5 27ZM27.5 30C27.5 28.3431 28.8431 27 30.5 27C32.1569 27 33.5 28.3431 33.5 30C33.5 31.6569 32.1569 33 30.5 33C28.8431 33 27.5 31.6569 27.5 30Z"
            fill="white" />
    </g>
    <defs>
        <clipPath id="clip0_691_3598">
            <rect width="40" height="40" fill="white" transform="translate(0.5)" />
        </clipPath>
    </defs>
</svg>