<svg xmlns="http://www.w3.org/2000/svg" width="41" height="40" viewBox="0 0 41 40" fill="none">
    <path
        d="M13.5 7H7.5V13M13.5 7V0M13.5 7H20.5M20.5 7V0M20.5 7H27.5M27.5 7H33.5V13M27.5 7V0M33.5 13H40.5M33.5 13V20M33.5 20H40.5M33.5 20V27M33.5 27V33H27.5M33.5 27H40.5M27.5 33V40M27.5 33H20.5M20.5 33V40M20.5 33H13.5M13.5 33H7.5V27M13.5 33V40M7.5 27H0.5M7.5 27V20M7.5 20H0.5M7.5 20V13M7.5 13H0.5"
        stroke="white" stroke-width="2" />
    <path d="M14.5 14H26.5V26H14.5V14Z" stroke="white" stroke-width="2" />
</svg>