<svg xmlns="http://www.w3.org/2000/svg" width="186" height="163" viewBox="0 0 186 163" fill="none">
    <path
        d="M0.830078 17.2136C3.75371 16.0799 6.67733 15.0059 9.63079 13.9618C14.1356 12.3806 18.6702 10.9785 23.2644 9.66582C37.9422 5.48921 52.9482 2.65508 68.1033 1.19326C81.8563 -0.179051 95.7585 -0.358049 109.601 0.596605C110.585 0.656271 111.57 0.745769 112.525 0.805435C113.062 0.865101 113.628 0.894934 114.165 0.9546C115.478 1.07393 116.791 1.19326 118.103 1.34243C140.329 3.6694 162.226 8.97966 183.169 17.1539L158.974 75.5668C157.811 78.4009 158.706 81.593 160.973 83.4128C161.451 83.8007 162.017 84.1288 162.614 84.3973C164.434 85.1431 166.761 84.9343 168.849 83.8603C172.698 81.8615 177.411 82.1599 181.051 84.8448C184.81 87.6193 186.48 92.482 185.287 96.9868C183.437 103.819 176.099 107.309 169.774 104.684C166.612 103.371 164.225 100.776 163.211 97.5238C162.495 95.2565 161.003 93.4665 159.183 92.7207C158.557 92.482 157.93 92.3031 157.334 92.2434C154.44 91.9451 151.546 93.5262 150.383 96.3603L122.936 162.649C113.778 159.397 104.41 157.667 95.132 157.369C94.9231 157.369 94.7143 157.339 94.5055 157.339C93.9685 157.339 93.4017 157.309 92.8647 157.309C92.3277 157.309 91.7609 157.309 91.2239 157.309C90.9554 157.309 90.7167 157.309 90.4482 157.309C89.9709 157.309 89.5234 157.339 89.0461 157.339C88.7179 157.339 88.3897 157.369 88.0616 157.369C87.6737 157.369 87.2561 157.399 86.8683 157.428C86.5103 157.458 86.1523 157.488 85.7943 157.488C85.0783 157.518 84.3623 157.577 83.6463 157.667C77.8885 158.204 72.1904 159.278 66.6713 160.859C65.6272 161.157 64.6129 161.486 63.5687 161.814C63.2406 161.933 62.8826 162.023 62.5544 162.142C62.0771 162.291 61.5998 162.44 61.1224 162.619L37.6439 105.967C37.0174 104.475 38.1212 102.804 39.7322 102.804C42.5365 102.834 45.3408 102.267 47.9959 101.163C53.336 98.9558 57.4828 94.7494 59.601 89.3496C61.7489 83.9498 61.5998 78.0727 59.2131 72.7923C55.0067 63.5441 44.8038 58.5322 34.9589 60.9188C33.885 61.1873 32.811 61.5453 31.7967 61.963C29.1415 63.0668 26.7549 64.6479 24.7859 66.6766C23.6523 67.84 21.6833 67.4224 21.0866 65.9307L0.830078 17.2136Z"
        fill="#DCECC9" />
</svg>