<svg xmlns="http://www.w3.org/2000/svg" width="48" height="48" viewBox="0 0 48 48" fill="none">
    <path
        d="M17 33C18.6569 33 20 31.6569 20 30C20 28.3431 18.6569 27 17 27C15.3431 27 14 28.3431 14 30C14 31.6569 15.3431 33 17 33Z"
        fill="white" />
    <path
        d="M31 33C32.6569 33 34 31.6569 34 30C34 28.3431 32.6569 27 31 27C29.3431 27 28 28.3431 28 30C28 31.6569 29.3431 33 31 33Z"
        fill="white" />
    <path
        d="M24 5C16 5 8 6 8 13V32C8 35.86 11.14 39 15 39L12 42V43H16L20 39H28L32 43H36V42L33 39C36.86 39 40 35.86 40 32V13C40 6 32 5 24 5ZM24 9C31.02 9 33.92 9.96 35.14 11H12.86C14.08 9.96 16.98 9 24 9ZM12 15H22V21H12V15ZM36 32C36 33.66 34.66 35 33 35H15C13.34 35 12 33.66 12 32V25H36V32ZM36 21H26V15H36V21Z"
        fill="white" />
</svg>