<svg xmlns="http://www.w3.org/2000/svg" width="160" height="160" viewBox="0 0 160 160" fill="none">
    <path
        d="M84.6774 25.8803C84.6774 39.525 82.8338 50.5862 80.5597 50.5862C78.2856 50.5862 76.4421 39.525 76.4421 25.8803C76.4421 25.106 76.448 24.3401 76.4596 23.584C67.392 23.8772 58.7914 25.2996 50.9964 27.6352C57.8838 37.6492 62.0896 50.6431 62.0896 64.7038C62.0896 80.6162 56.703 95.1624 48.1393 105.569C56.3463 108.336 65.5442 110.065 75.3049 110.486C75.279 109.365 75.2656 108.22 75.2656 107.057C75.2656 93.4121 77.1091 82.3509 79.3832 82.3509C81.6574 82.3509 83.5009 93.4121 83.5009 107.057C83.5009 108.235 83.4871 109.394 83.4605 110.529C93.5434 110.197 103.127 108.438 111.672 105.577C111.469 105.322 111.268 105.064 111.069 104.804C103.166 94.4861 98.3244 80.303 98.3244 64.7038C98.3244 50.5768 102.295 37.6112 108.915 27.6259C101.466 25.3971 93.2831 24.0019 84.6605 23.6285C84.6716 24.3701 84.6774 25.1212 84.6774 25.8803Z"
        fill="#6785C1" />
    <path
        d="M114.964 104.402C132.338 97.7958 144.811 86.511 147.368 73.5773L147.14 73.5776C143.91 73.5825 130.252 73.6032 130.673 67.4689C131.194 59.864 144.656 60.4357 147.972 63.4244C146.021 48.3598 132.046 35.4709 112.183 28.6731C105.638 38.172 101.619 50.799 101.619 64.7038C101.619 79.6427 106.258 93.1067 113.684 102.801C114.102 103.347 114.529 103.881 114.964 104.402Z"
        fill="#6785C1" />
    <path fill-rule="evenodd" clip-rule="evenodd"
        d="M12.3056 61.4056C15.1876 47.2234 28.7698 35.183 47.7176 28.6875C54.5209 38.1543 58.7955 50.7409 58.7955 64.7038C58.7955 80.5507 53.2896 94.6248 44.8299 104.377C26.728 97.426 14.0973 85.2666 12.0335 71.15C11.8859 70.1406 14.2153 70.1433 17.1951 70.1469C22.2073 70.1528 29.0599 70.1609 29.0599 65.3579C29.0599 60.2045 21.3033 61.0346 16.3435 61.5654C13.9326 61.8234 12.1826 62.0107 12.3056 61.4056ZM39.9715 58.8215C41.271 58.8215 42.3244 56.7146 42.3244 54.1156C42.3244 51.5166 41.271 49.4097 39.9715 49.4097C38.672 49.4097 37.6185 51.5166 37.6185 54.1156C37.6185 56.7146 38.672 58.8215 39.9715 58.8215ZM42.3244 79.9979C42.3244 82.5969 41.271 84.7038 39.9715 84.7038C38.672 84.7038 37.6185 82.5969 37.6185 79.9979C37.6185 77.3989 38.672 75.292 39.9715 75.292C41.271 75.292 42.3244 77.3989 42.3244 79.9979Z"
        fill="#6785C1" />
    <path fill-rule="evenodd" clip-rule="evenodd"
        d="M56.6054 123.617L56.6388 123.65L56.6054 123.65V123.617ZM56.6054 125.768L58.7599 125.768L62.2603 129.263L62.2603 126.828L62.2603 125.77L64.3779 125.77V126.828L64.378 143.849L64.378 144.907L62.2603 144.907L62.2603 143.849L62.2603 132.255L58.7231 128.724V143.851V144.909H56.6054V143.851V126.17V125.768ZM48.2577 129.3C48.2577 128.335 49.0402 127.552 50.0055 127.552C50.9707 127.552 51.7532 128.335 51.7532 129.3V139.152L48.2578 139.152L48.2577 129.3ZM53.8709 129.3V139.152L54.8173 139.152L54.8173 141.27L53.8709 141.27V143.849V144.908H51.7532V143.849V141.27L48.2578 141.27L48.2578 143.849V144.908L46.1401 144.908L46.1401 143.849L46.1401 141.27L45.2566 141.27L45.2566 139.152L46.1401 139.152L46.1401 129.3C46.1401 127.165 47.8707 125.435 50.0055 125.435C52.1403 125.435 53.8709 127.165 53.8709 129.3ZM3.0653 125.77L2.00635 125.77L2.00636 126.829L2.0064 132.617V132.617V143.849V144.945L3.10128 144.907C4.34886 144.865 6.02967 144.196 7.39312 142.993C8.79213 141.759 9.93917 139.889 9.93917 137.401C9.93917 135.395 9.45917 133.934 8.78015 132.849C8.38864 132.224 7.94533 131.748 7.53604 131.381C7.80927 130.815 7.9509 130.158 7.9509 129.425C7.9509 128.598 7.74676 127.888 7.34228 127.314C6.94112 126.745 6.40105 126.392 5.86613 126.173C4.87687 125.769 3.74501 125.77 3.1202 125.77L3.0653 125.77ZM4.12404 142.538V133.606C4.83421 133.508 5.51311 133.3 6.10395 132.941C6.41024 133.213 6.71619 133.543 6.98526 133.973C7.43282 134.688 7.82152 135.751 7.82152 137.401C7.82152 139.176 7.02075 140.497 5.99207 141.405C5.37755 141.947 4.70883 142.318 4.12404 142.538ZM5.16453 131.023C4.91129 131.214 4.56502 131.366 4.12403 131.458L4.12401 127.925C4.46154 127.958 4.78442 128.019 5.0652 128.134C5.32466 128.24 5.49779 128.373 5.61125 128.534C5.72138 128.69 5.83325 128.954 5.83325 129.425C5.83325 130.269 5.5463 130.734 5.16453 131.023ZM14.3434 126.829L14.3434 125.77L12.2258 125.77L12.2258 126.829L12.2258 143.849L12.2258 144.908L14.3435 144.908L14.3435 143.849L14.3434 126.829ZM37.5672 125.77V126.829L37.5672 129.451L41.1045 129.451L41.1045 126.829L41.1045 125.77L43.2221 125.77V126.829L43.2221 129.451L44.1268 129.451L44.1268 131.569L43.2221 131.569L43.2222 143.849V144.908L41.1045 144.908L41.1045 143.849L41.1045 131.569L37.5673 131.569L37.5673 143.849L37.5673 144.908L35.4496 144.908L35.4496 143.849L35.4496 131.569L34.5661 131.569L34.5661 129.451L35.4496 129.451L35.4496 126.829L35.4496 125.77L37.5672 125.77ZM132.169 126.829V125.77L130.051 125.77V126.829L130.051 143.849V144.908H131.11H134.865H135.923V142.79H134.865H132.169L132.169 126.829ZM139.182 127.888L139.182 143.849V144.908L141.3 144.908V143.849L141.3 127.888L143.076 127.888L144.134 127.888V125.77L143.076 125.77L141.3 125.77L137.438 125.77L136.379 125.77V127.888L137.438 127.888L139.182 127.888ZM76.8662 143.578L76.4632 144.937H77.8814H82.9715H84.0303V142.82H82.9715H79.2995L83.9866 127.003L84.3896 125.644L82.9714 125.644L77.8813 125.644L76.8225 125.644L76.8225 127.761L77.8814 127.761L81.5533 127.761L76.8662 143.578ZM24.5116 125.562C19.9094 126.409 16.4227 130.442 16.4227 135.289C16.4227 139.635 19.2243 143.324 23.1168 144.652L24.5177 145.131V143.65V140.041V138.982H22.4001V140.041V142.008C20.0907 140.659 18.5403 138.154 18.5403 135.289C18.5403 131.617 21.0874 128.539 24.5116 127.726V125.562ZM67.2249 126.925V125.445L68.6259 125.923C72.5184 127.252 75.32 130.941 75.32 135.286C75.32 139.632 72.5184 143.32 68.6259 144.649L67.2249 145.128V143.647V140.038V126.925ZM73.2024 135.286C73.2024 132.421 71.652 129.916 69.3426 128.568V140.038V142.005C71.652 140.656 73.2024 138.151 73.2024 135.286ZM145.696 125.445V126.925V140.038V143.647V145.128L147.097 144.649C150.989 143.32 153.791 139.632 153.791 135.286C153.791 130.941 150.989 127.252 147.097 125.923L145.696 125.445ZM147.813 128.568C150.123 129.916 151.673 132.421 151.673 135.286C151.673 138.151 150.123 140.656 147.813 142.005V140.038V128.568ZM94.164 135.353C94.164 140.165 97.6221 144.165 102.194 145.058V142.889C98.7916 142.035 96.2816 138.979 96.2816 135.353C96.2816 131.726 98.7916 128.67 102.194 127.817V125.648C97.6221 126.54 94.164 130.54 94.164 135.353ZM111.408 131.399C108.144 131.399 105.512 134.022 105.512 137.239C105.512 140.457 108.144 143.08 111.408 143.08C114.673 143.08 117.305 140.457 117.305 137.239C117.305 134.022 114.673 131.399 111.408 131.399ZM103.394 137.239C103.394 132.836 106.99 129.281 111.408 129.281C115.826 129.281 119.422 132.836 119.422 137.239C119.422 141.643 115.826 145.198 111.408 145.198C106.99 145.198 103.394 141.643 103.394 137.239ZM122.24 145.147C122.958 145.147 123.539 144.569 123.539 143.858C123.539 143.146 122.958 142.569 122.24 142.569C121.523 142.569 120.941 143.146 120.941 143.858C120.941 144.569 121.523 145.147 122.24 145.147ZM157.995 143.858C157.995 144.569 157.413 145.147 156.696 145.147C155.978 145.147 155.396 144.569 155.396 143.858C155.396 143.146 155.978 142.569 156.696 142.569C157.413 142.569 157.995 143.146 157.995 143.858ZM126.446 146.972C127.693 146.145 127.967 144.994 127.967 144.161C127.967 143.328 127.347 142.569 126.629 142.569C125.911 142.569 125.33 143.146 125.33 143.858C125.33 144.508 125.815 145.045 126.446 145.134V146.972Z"
        fill="#6785C1" />
</svg>