<svg xmlns="http://www.w3.org/2000/svg" width="163" height="185" viewBox="0 0 163 185" fill="none">
    <path
        d="M145.787 0C146.92 2.92363 147.994 5.84726 149.038 8.80072C150.62 13.3055 152.022 17.8401 153.334 22.4344C157.511 37.1122 160.345 52.1181 161.807 67.2733C163.149 81.0561 163.328 94.9582 162.374 108.801C162.314 109.785 162.225 110.77 162.165 111.724C162.105 112.261 162.075 112.828 162.016 113.365C161.896 114.678 161.777 115.99 161.628 117.303C159.301 139.529 153.991 161.426 145.817 182.369L87.4036 158.174C84.5695 157.011 81.3774 157.906 79.5576 160.173C79.1698 160.65 78.8416 161.217 78.5731 161.814C77.8273 163.634 78.0361 165.961 79.1101 168.049C81.1089 171.897 80.8106 176.611 78.1256 180.251C75.3511 184.01 70.4884 185.68 65.9836 184.487C59.1519 182.637 55.6614 175.298 58.2867 168.974C59.5994 165.811 62.1948 163.425 65.4466 162.411C67.7139 161.695 69.5039 160.203 70.2497 158.383C70.4884 157.757 70.6674 157.13 70.727 156.533C71.0254 153.64 69.4442 150.746 66.6101 149.582L0.321289 122.136C3.57308 112.977 5.30341 103.61 5.60174 94.3317C5.60174 94.1229 5.63157 93.9141 5.63157 93.7052C5.63157 93.1683 5.66139 92.6014 5.66139 92.0644C5.66139 91.5274 5.66139 90.9606 5.66139 90.4236C5.66139 90.1551 5.66139 89.9165 5.66139 89.648C5.66139 89.1706 5.63157 88.7231 5.63157 88.2458C5.63157 87.9177 5.60174 87.5895 5.60174 87.2613C5.60174 86.8735 5.57189 86.4558 5.54205 86.068C5.51222 85.71 5.4824 85.352 5.4824 84.994C5.45257 84.278 5.39291 83.562 5.30341 82.846C4.76642 77.0883 3.69241 71.3902 2.11127 65.8711C1.81294 64.827 1.48479 63.8126 1.15663 62.7685C1.03729 62.4403 0.947803 62.0823 0.828471 61.7542C0.679306 61.2768 0.530149 60.7995 0.351151 60.3222L57.0039 36.8437C58.4955 36.2172 60.1662 37.321 60.1662 38.932C60.1364 41.7363 60.7032 44.5406 61.807 47.1957C64.0146 52.5358 68.2211 56.6826 73.6208 58.8007C79.0206 60.9487 84.8977 60.7995 90.1781 58.4129C99.4263 54.2064 104.438 44.0036 102.052 34.1587C101.783 33.0847 101.425 32.0107 101.007 30.9964C99.9036 28.3413 98.3225 25.9546 96.2939 23.9857C95.1304 22.852 95.548 20.8831 97.0397 20.2864L145.787 0Z"
        fill="#78C6D0" />
</svg>