<svg xmlns="http://www.w3.org/2000/svg" width="191" height="191" viewBox="0 0 191 191" fill="none">
    <path
        d="M129.851 190.088C126.987 188.835 124.153 187.522 121.318 186.18C117.022 184.092 112.816 181.914 108.639 179.587C95.3041 172.188 82.6847 163.567 70.9604 153.901C60.2802 145.1 50.316 135.404 41.1871 124.933C40.5308 124.187 39.9043 123.441 39.2778 122.695C38.9198 122.278 38.5618 121.86 38.2038 121.442C37.3685 120.428 36.5332 119.414 35.6978 118.4C21.6465 101.037 9.89236 81.7945 0.882812 61.2098L59.2957 37.0153C62.1298 35.822 63.7408 32.958 63.4127 30.0344C63.353 29.4079 63.2038 28.7814 62.9353 28.1847C62.1895 26.3649 60.3995 24.8733 58.1322 24.1573C53.9854 22.8446 50.8828 19.3244 50.1967 14.8196C49.5105 10.2253 51.748 5.57136 55.8053 3.24439C61.9508 -0.305732 69.5881 2.43891 72.2134 8.79332C73.526 11.9556 73.3769 15.4759 71.7957 18.5189C70.6919 20.6072 70.5129 22.9639 71.2587 24.7539C71.4974 25.3804 71.8554 25.9174 72.2432 26.3947C74.063 28.662 77.2551 29.5571 80.0893 28.3936L146.378 0.947266C150.555 9.71815 155.954 17.5642 162.309 24.3363C162.458 24.4855 162.607 24.6346 162.756 24.8136C163.144 25.2014 163.502 25.6191 163.89 26.0069C164.278 26.3948 164.666 26.7826 165.053 27.1704C165.232 27.3494 165.411 27.5284 165.62 27.7074C165.948 28.0356 166.306 28.3637 166.635 28.6919C166.873 28.9306 167.112 29.1394 167.38 29.378C167.679 29.6465 167.947 29.915 168.246 30.1835C168.514 30.4222 168.783 30.6609 169.051 30.8995C169.588 31.3769 170.125 31.8542 170.692 32.3017C175.137 36.001 179.91 39.2527 184.952 42.057C185.877 42.5642 186.832 43.0714 187.816 43.5785C188.144 43.7277 188.442 43.9067 188.771 44.0559C189.218 44.2945 189.666 44.5033 190.113 44.7122L166.635 101.365C166.008 102.857 164.069 103.274 162.935 102.111C160.966 100.112 158.58 98.5308 155.925 97.3971C150.585 95.1895 144.707 95.2193 139.367 97.5463C134.057 99.8434 130 104.11 127.941 109.539C124.361 119.056 128.061 129.796 136.712 135.076C137.667 135.643 138.651 136.15 139.695 136.568C142.351 137.672 145.155 138.209 147.989 138.209C149.6 138.209 150.704 139.879 150.077 141.371L129.851 190.088Z"
        fill="#183F7A" />
</svg>