<svg xmlns="http://www.w3.org/2000/svg" width="34" height="40" viewBox="0 0 34 40" fill="none">
    <path
        d="M17 9V9C8.16344 9 1 16.1634 1 25V39H33V25C33 16.1634 25.8366 9 17 9V9ZM17 9L22.4 1.8C22.6472 1.47038 22.412 1 22 1H12C11.588 1 11.3528 1.47038 11.6 1.8L17 9Z"
        stroke="white" stroke-width="2" />
    <path
        d="M17 16V33.5M23.5 21.5V21.5C23.5 19.8431 22.1569 18.5 20.5 18.5H14.25C12.4551 18.5 11 19.9551 11 21.75V21.75C11 23.5449 12.4551 25 14.25 25H20.5C22.1569 25 23.5 26.3431 23.5 28V28C23.5 29.6569 22.1569 31 20.5 31H14C12.3431 31 11 29.6569 11 28V28"
        stroke="white" stroke-width="2" stroke-linecap="round" stroke-linejoin="round" />
</svg>