<svg width="221" height="221" viewBox="0 0 221 221" fill="none" xmlns="http://www.w3.org/2000/svg">
    <path
        d="M110.031 0.519561L110.031 0.519561C170.488 0.489632 219.512 49.5134 219.512 110.001C219.512 170.488 170.488 219.512 110.001 219.512C49.5436 219.482 0.519547 170.458 0.519547 110.001C0.519547 49.5137 49.5434 0.519561 110.031 0.519561Z"
        fill="white" fill-opacity="0.45" stroke="url(#paint0_linear_1085_60438)" stroke-width="1.00784" />
    <path
        d="M204 110C204 161.906 161.906 204 110 204C58.0936 204 16 161.906 16 110C16 58.0936 58.0936 16 110 16C161.936 16 204 58.0936 204 110Z"
        fill="url(#paint1_linear_1085_60438)" />
    <path
        d="M203 110C203 161.367 161.367 203 110 203C58.6329 203 17 161.367 17 110C17 58.6329 58.6329 17 110 17C161.367 17 203 58.6329 203 110Z"
        fill="url(#paint2_linear_1085_60438)" />
    <path
        d="M113.507 69.4097C113.507 79.6432 112.125 87.9391 110.419 87.9391C108.714 87.9391 107.331 79.6432 107.331 69.4097C107.331 68.829 107.335 68.2546 107.344 67.6875C100.543 67.9074 94.0929 68.9742 88.2467 70.7259C93.4122 78.2364 96.5666 87.9819 96.5666 98.5274C96.5666 110.462 92.5267 121.371 86.1039 129.177C92.2591 131.251 99.1575 132.549 106.478 132.864C106.459 132.023 106.449 131.165 106.449 130.292C106.449 120.059 107.831 111.763 109.537 111.763C111.242 111.763 112.625 120.059 112.625 130.292C112.625 131.176 112.615 132.045 112.595 132.896C120.157 132.647 127.345 131.328 133.754 129.182C133.601 128.991 133.45 128.798 133.301 128.603C127.374 120.864 123.743 110.227 123.743 98.5274C123.743 87.9321 126.721 78.2079 131.685 70.7189C126.099 69.0473 119.962 68.0009 113.495 67.7209C113.503 68.2771 113.507 68.8404 113.507 69.4097Z"
        fill="#0E1B47" />
    <path
        d="M136.222 128.301C149.253 123.346 158.608 114.883 160.525 105.183L160.354 105.183C157.932 105.186 147.688 105.202 148.004 100.601C148.395 94.8975 158.492 95.3263 160.979 97.5679C159.515 86.2694 149.034 76.6027 134.136 71.5044C129.228 78.6285 126.213 88.0988 126.213 98.5274C126.213 109.732 129.693 119.83 135.262 127.1C135.576 127.51 135.896 127.91 136.222 128.301Z"
        fill="#0E1B47" />
    <path fill-rule="evenodd" clip-rule="evenodd"
        d="M59.2286 96.0537C61.3901 85.4171 71.5767 76.3868 85.7876 71.5151C90.8901 78.6152 94.096 88.0552 94.096 98.5274C94.096 110.413 89.9666 120.968 83.6219 128.283C70.0454 123.069 60.5724 113.949 59.0245 103.362C58.9139 102.605 60.6609 102.607 62.8957 102.61C66.6549 102.614 71.7943 102.62 71.7943 99.0179C71.7943 95.1529 65.9768 95.7755 62.257 96.1736C60.4489 96.3671 59.1363 96.5075 59.2286 96.0537ZM79.978 94.1156C80.9526 94.1156 81.7427 92.5354 81.7427 90.5862C81.7427 88.637 80.9526 87.0568 79.978 87.0568C79.0034 87.0568 78.2133 88.637 78.2133 90.5862C78.2133 92.5354 79.0034 94.1156 79.978 94.1156ZM81.7427 109.998C81.7427 111.947 80.9526 113.527 79.978 113.527C79.0034 113.527 78.2133 111.947 78.2133 109.998C78.2133 108.049 79.0034 106.469 79.978 106.469C80.9526 106.469 81.7427 108.049 81.7427 109.998Z"
        fill="#0E1B47" />
    <path fill-rule="evenodd" clip-rule="evenodd"
        d="M92.4528 142.713L92.4778 142.738L92.4528 142.738V142.713ZM92.4528 144.326L94.0686 144.326L96.6942 146.947L96.6942 145.121V144.327L98.2824 144.327V145.121L98.2824 157.887L98.2824 158.681L96.6942 158.681L96.6942 157.887L96.6942 149.192L94.041 146.543V157.888V158.682H92.4528V157.888V144.628V144.326ZM86.1934 146.975C86.1934 146.251 86.7802 145.664 87.5042 145.664C88.2281 145.664 88.815 146.251 88.815 146.975V154.364L86.1934 154.364L86.1934 146.975ZM90.4032 146.975V154.364L91.1121 154.364L91.1121 155.953L90.4032 155.953V157.887V158.681H88.815V157.887V155.953L86.1934 155.953L86.1934 157.887L86.1934 158.681L84.6052 158.681V157.887L84.6052 155.953L83.9416 155.953L83.9416 154.364L84.6051 154.364L84.6051 146.975C84.6051 145.374 85.9031 144.076 87.5042 144.076C89.1053 144.076 90.4032 145.374 90.4032 146.975ZM52.299 144.328L51.5048 144.328L51.5048 145.122L51.5049 149.463V157.887V158.709L52.326 158.681C53.2617 158.649 54.5223 158.147 55.5449 157.245C56.5942 156.319 57.4544 154.917 57.4544 153.051C57.4544 151.546 57.0944 150.451 56.5852 149.637C56.2915 149.168 55.9591 148.811 55.6521 148.536C55.857 148.111 55.9632 147.619 55.9632 147.069C55.9632 146.449 55.8101 145.916 55.5068 145.486C55.2059 145.059 54.8008 144.794 54.3997 144.63C53.6577 144.327 52.8088 144.327 52.3402 144.328L52.299 144.328ZM53.0931 150.205C53.6257 150.131 54.1349 149.975 54.578 149.706C54.8077 149.91 55.0372 150.158 55.239 150.48C55.5747 151.016 55.8662 151.814 55.8662 153.051C55.8662 154.382 55.2656 155.373 54.4941 156.054C54.0332 156.461 53.5317 156.738 53.0931 156.904V150.205ZM53.8735 148.267C53.6835 148.411 53.4238 148.525 53.0931 148.594L53.0931 145.944C53.3462 145.968 53.5884 146.014 53.799 146.1C53.9936 146.18 54.1234 146.28 54.2085 146.401C54.2911 146.518 54.375 146.716 54.375 147.069C54.375 147.702 54.1598 148.051 53.8735 148.267ZM60.7568 145.122L60.7568 144.328L59.1685 144.328L59.1685 145.122L59.1686 157.887L59.1686 158.681L60.7568 158.681L60.7568 157.887L60.7568 145.122ZM78.1746 144.328L78.1746 145.122L78.1746 147.088L80.8276 147.088L80.8276 145.122L80.8275 144.328L82.4158 144.328L82.4158 145.122L82.4158 147.088L83.0951 147.088L83.0951 148.677L82.4158 148.677L82.4158 157.887L82.4158 158.681L80.8276 158.681L80.8276 157.887L80.8276 148.677L78.1746 148.677L78.1747 157.887L78.1747 158.681L76.5864 158.681L76.5864 157.887L76.5864 148.677L75.9246 148.677L75.9246 147.088L76.5864 147.088L76.5864 145.122L76.5864 144.328L78.1746 144.328ZM149.126 145.122L149.126 144.328L147.538 144.328V145.122L147.538 157.887L147.538 158.681H148.332H151.148H151.943V157.093H151.148H149.127L149.126 145.122ZM154.387 145.916L154.387 157.887L154.387 158.681L155.975 158.681V157.887L155.975 145.916L157.307 145.916L158.101 145.916V144.328L157.307 144.328L155.975 144.328L153.078 144.328L152.284 144.328L152.284 145.916L153.078 145.916L154.387 145.916ZM107.65 157.683L107.347 158.703H108.411H112.229H113.023V157.115H112.229H109.475L112.99 145.253L113.292 144.233L112.229 144.233L108.411 144.233L107.617 144.233L107.617 145.821L108.411 145.821L111.165 145.821L107.65 157.683ZM68.3833 144.172C64.932 144.808 62.3174 147.833 62.3174 151.468C62.3174 154.727 64.4187 157.493 67.338 158.49L68.3887 158.849V157.738V155.031V154.237H66.8005V155.031V156.507C65.0685 155.495 63.9057 153.617 63.9057 151.468C63.9057 148.713 65.8156 146.405 68.3833 145.795V144.172ZM100.418 145.194V144.084L101.469 144.443C104.388 145.439 106.489 148.206 106.489 151.465C106.489 154.724 104.388 157.491 101.469 158.487L100.418 158.846V157.736V155.029V145.194ZM104.901 151.465C104.901 149.316 103.738 147.437 102.006 146.426V155.029V156.504C103.738 155.492 104.901 153.614 104.901 151.465ZM159.272 144.084V145.194V155.029V157.736V158.846L160.323 158.487C163.242 157.491 165.343 154.724 165.343 151.465C165.343 148.206 163.242 145.439 160.323 144.443L159.272 144.084ZM160.86 146.426C162.592 147.437 163.755 149.316 163.755 151.465C163.755 153.614 162.592 155.492 160.86 156.504V155.029V146.426ZM120.623 151.515C120.623 155.124 123.216 158.124 126.645 158.793V157.167C124.093 156.527 122.211 154.235 122.211 151.515C122.211 148.795 124.093 146.503 126.645 145.863V144.236C123.216 144.905 120.623 147.905 120.623 151.515ZM133.556 148.549C131.108 148.549 129.134 150.516 129.134 152.93C129.134 155.343 131.108 157.31 133.556 157.31C136.005 157.31 137.979 155.343 137.979 152.93C137.979 150.516 136.005 148.549 133.556 148.549ZM127.546 152.93C127.546 149.627 130.243 146.961 133.556 146.961C136.87 146.961 139.567 149.627 139.567 152.93C139.567 156.232 136.87 158.898 133.556 158.898C130.243 158.898 127.546 156.232 127.546 152.93ZM141.679 158.86C142.218 158.86 142.654 158.427 142.654 157.893C142.654 157.359 142.218 156.927 141.679 156.927C141.141 156.927 140.705 157.359 140.705 157.893C140.705 158.427 141.141 158.86 141.679 158.86ZM168.495 157.893C168.495 158.427 168.059 158.86 167.521 158.86C166.983 158.86 166.546 158.427 166.546 157.893C166.546 157.359 166.983 156.927 167.521 156.927C168.059 156.927 168.495 157.359 168.495 157.893ZM144.833 160.229C145.769 159.609 145.975 158.745 145.975 158.121C145.975 157.497 145.509 156.927 144.971 156.927C144.433 156.927 143.996 157.359 143.996 157.893C143.996 158.381 144.36 158.784 144.833 158.851V160.229Z"
        fill="#0E1B47" />
    <defs>
        <linearGradient id="paint0_linear_1085_60438" x1="0.144559" y1="0.145541" x2="219.855" y2="219.856"
            gradientUnits="userSpaceOnUse">
            <stop stop-color="white" />
            <stop offset="1" stop-color="white" stop-opacity="0" />
        </linearGradient>
        <linearGradient id="paint1_linear_1085_60438" x1="43.5364" y1="43.5266" x2="176.477" y2="176.467"
            gradientUnits="userSpaceOnUse">
            <stop stop-color="white" />
            <stop offset="0.5571" stop-color="#E3E3E3" />
            <stop offset="1" stop-color="#D1D1D1" />
        </linearGradient>
        <linearGradient id="paint2_linear_1085_60438" x1="44.2421" y1="44.239" x2="175.757" y2="175.754"
            gradientUnits="userSpaceOnUse">
            <stop stop-color="#E5E5E5" />
            <stop offset="0.0785683" stop-color="#E8E8E8" />
            <stop offset="0.6051" stop-color="#F9F9F9" />
            <stop offset="1" stop-color="white" />
        </linearGradient>
    </defs>
</svg>