<svg width="221" height="221" viewBox="0 0 221 221" fill="none" xmlns="http://www.w3.org/2000/svg">
<path d="M110.031 0.519561L110.031 0.519561C170.488 0.489632 219.512 49.5134 219.512 110.001C219.512 170.488 170.488 219.512 110.001 219.512C49.5436 219.482 0.519547 170.458 0.519547 110.001C0.519547 49.5137 49.5434 0.519561 110.031 0.519561Z" fill="white" fill-opacity="0.45" stroke="url(#paint0_linear_1085_60438)" stroke-width="1.00784"/>
<path d="M204 110C204 161.906 161.906 204 110 204C58.0936 204 16 161.906 16 110C16 58.0936 58.0936 16 110 16C161.936 16 204 58.0936 204 110Z" fill="url(#paint1_linear_1085_60438)"/>
<path d="M203 110C203 161.367 161.367 203 110 203C58.6329 203 17 161.367 17 110C17 58.6329 58.6329 17 110 17C161.367 17 203 58.6329 203 110Z" fill="url(#paint2_linear_1085_60438)"/>
<path d="M161.26 148.43L155.126 139.901H160.003L163.585 145.381L166.975 139.901H171.967L165.794 148.198L172.5 157.614H167.776L163.623 151.363L159.66 157.614H154.707L161.26 148.43Z" fill="#0E1B47"/>
<path d="M136.897 129.25H151.693V133.032H141.126V140.866H151.693V144.725H141.126V153.794H151.693V157.614H136.897V129.25Z" fill="#0E1B47"/>
<path d="M123.54 158C121.965 158 120.504 157.627 119.158 156.881C117.837 156.109 116.771 155.029 115.958 153.639C115.17 152.224 114.777 150.578 114.777 148.7C114.777 145.895 115.551 143.657 117.101 141.985C118.65 140.287 120.746 139.438 123.387 139.438C124.86 139.438 126.207 139.811 127.426 140.557C128.645 141.277 129.471 142.152 129.902 143.181L129.712 140.171V129.25H133.75V157.614H129.826L129.75 154.488C129.318 155.414 128.531 156.238 127.388 156.958C126.245 157.653 124.962 158 123.54 158ZM124.225 154.488C125.673 154.488 126.892 153.987 127.883 152.983C128.874 151.954 129.369 150.616 129.369 148.97V148.7C129.369 147.593 129.14 146.603 128.683 145.728C128.226 144.853 127.604 144.172 126.816 143.683C126.029 143.194 125.165 142.95 124.225 142.95C122.6 142.95 121.343 143.49 120.454 144.57C119.565 145.625 119.12 147.002 119.12 148.7C119.12 150.423 119.552 151.826 120.415 152.906C121.304 153.961 122.574 154.488 124.225 154.488Z" fill="#0E1B47"/>
<path d="M102.639 158C101.064 158 99.6039 157.627 98.2577 156.881C96.9369 156.109 95.8701 155.028 95.0573 153.639C94.2699 152.224 93.8762 150.578 93.8762 148.7C93.8762 146.847 94.2191 145.226 94.9049 143.837C95.6161 142.448 96.6194 141.367 97.9148 140.596C99.2102 139.824 100.734 139.438 102.487 139.438C103.503 139.438 104.455 139.618 105.344 139.978C106.233 140.338 106.983 140.788 107.592 141.329C108.202 141.843 108.608 142.358 108.811 142.872L108.888 139.901H112.812V157.614H108.926L108.849 154.488C108.418 155.414 107.63 156.238 106.487 156.958C105.344 157.653 104.062 158 102.639 158ZM103.325 154.527C104.773 154.527 105.992 154.025 106.983 153.022C107.973 151.993 108.468 150.655 108.468 149.008V148.738C108.468 147.632 108.24 146.641 107.783 145.767C107.325 144.892 106.703 144.21 105.916 143.721C105.128 143.233 104.265 142.988 103.325 142.988C101.699 142.988 100.442 143.528 99.5531 144.609C98.6641 145.664 98.2196 147.04 98.2196 148.738C98.2196 150.462 98.6514 151.864 99.515 152.945C100.404 153.999 101.674 154.527 103.325 154.527Z" fill="#0E1B47"/>
<path d="M82.3685 139.901H86.4833V143.374C86.8897 142.191 87.5501 141.239 88.4645 140.518C89.3789 139.798 90.4203 139.438 91.5887 139.438C92.4015 139.438 92.9603 139.515 93.2651 139.669L92.6936 143.876C92.465 143.721 91.9697 143.644 91.2077 143.644C90.0139 143.644 88.9217 144.03 87.9311 144.802C86.9659 145.574 86.4833 146.809 86.4833 148.507V157.614H82.3685V139.901Z" fill="#0E1B47"/>
<path d="M72.392 133.032H65.2292V129.25H83.8601V133.032H76.6211V157.614H72.392V133.032Z" fill="#0E1B47"/>
<path d="M47.5 139.901H52.1863L55.9582 147.889L57.1774 151.092L58.3966 147.889L62.1304 139.901H66.7024L57.5203 157.614H56.7202L47.5 139.901Z" fill="#0E1B47"/>
<path d="M89.7785 66.2C95.4412 65.3369 100.074 64.6654 106.261 64.0399C106.419 64.024 106.565 63.9623 106.667 64.0338C106.767 64.103 106.746 64.2516 106.761 64.3976C107.353 70.0373 107.885 74.2704 108.277 79.1054C108.296 79.3165 108.386 79.3349 108.54 79.3349C109.399 79.3349 110.259 79.3478 111.118 79.3807C111.245 79.3807 111.29 79.3532 111.308 79.2155C111.885 74.2581 112.555 69.3037 113.045 64.3367C113.063 64.199 113.099 64.1715 113.235 64.1807C118.471 64.7755 123.759 65.3995 129.065 65.9705C129.273 65.9889 129.264 66.0348 129.165 66.1908C127.808 68.3754 126.577 70.6242 125.519 72.974C124.117 76.0856 123.04 79.2981 122.425 82.6668C122.118 84.3373 121.937 86.0354 121.883 87.7334C121.711 92.7359 122.697 97.5089 124.605 102.098C125.944 105.311 127.681 108.303 129.68 111.13C129.78 111.273 129.83 111.344 129.812 111.387C129.795 111.429 129.711 111.442 129.544 111.47C123.935 112.337 118.291 113.007 112.701 113.994C112.583 114.012 112.547 113.994 112.529 113.865C112.041 108.725 111.298 103.613 110.892 98.4635C110.883 98.3533 110.856 98.2982 110.729 98.2982C109.815 98.3166 108.911 98.3258 107.997 98.3349C107.898 98.3349 107.861 98.3717 107.852 98.4726C107.323 103.573 106.763 108.671 106.26 113.774C106.245 113.936 106.166 113.923 106.082 113.909C100.759 113.054 95.4217 112.271 90.086 111.497C89.8508 111.461 89.8508 111.461 89.9775 111.268C91.4972 108.927 92.8541 106.495 94.0029 103.943C95.2513 101.162 96.2192 98.2799 96.8162 95.2876C97.169 93.5344 97.3771 91.7538 97.4494 89.9639C97.5218 88.2475 97.4585 86.531 97.2595 84.8238C96.9429 82.0793 96.2825 79.4266 95.3417 76.8382C93.9848 73.1208 92.1123 69.6788 89.887 66.4203L89.7785 66.2551V66.2Z" fill="#0E1B47"/>
<path d="M144.76 87.2745C144.624 87.3112 144.606 87.3938 144.597 87.504C144.561 88.2562 144.525 89.0097 144.48 89.762C144.471 89.9272 144.516 89.9914 144.66 90.0373C147.317 90.9267 149.974 91.8252 152.63 92.7237L152.639 92.7267C152.898 92.8134 153.157 92.9012 153.415 92.989L153.416 92.9895C153.868 93.1431 154.319 93.2968 154.774 93.4427C154.891 93.4794 154.937 93.5069 154.864 93.6446C153.607 96.1779 152.024 98.4818 150.088 100.52C147.166 103.594 143.674 105.825 139.83 107.514C137.568 108.505 135.235 109.294 132.865 109.964C132.738 110.001 132.684 109.974 132.62 109.873C130.404 106.394 128.323 102.842 126.768 98.9958C125.881 96.8021 125.203 94.5533 124.859 92.2127C124.533 89.9914 124.515 87.7702 124.823 85.5489C125.266 82.2996 126.333 79.2431 127.699 76.2783C129.065 73.2952 130.712 70.4682 132.439 67.6962C132.512 67.5768 132.575 67.5677 132.702 67.6044C135.723 68.458 138.672 69.5136 141.494 70.9271C144.416 72.3957 147.085 74.2315 149.419 76.5445C151.671 78.7841 153.48 81.345 154.928 84.1813C154.946 84.2363 154.964 84.2914 155 84.3648C151.583 85.3213 148.175 86.3108 144.76 87.2745Z" fill="#0E1B47"/>
<path fill-rule="evenodd" clip-rule="evenodd" d="M94.5367 88.4219C94.5367 93.1673 93.5688 97.1876 91.8682 101.034C90.5565 103.998 88.8559 106.724 86.9291 109.304C86.8386 109.423 86.7482 109.423 86.6306 109.414C84.5229 109.193 82.4694 108.707 80.4974 107.927C75.088 105.788 70.7007 102.319 67.4441 97.4263C66.5938 96.1504 65.8973 94.7828 65.3274 93.3509C65.255 93.1765 65.2821 93.1214 65.4631 93.0755C68.593 92.2219 71.7229 91.3591 74.8437 90.4963C74.9884 90.4596 75.0427 90.4045 75.0518 90.2484C75.106 89.505 75.1694 88.7523 75.2417 88.0088C75.2598 87.8436 75.2146 87.7885 75.0699 87.7335C71.7536 86.5636 68.4361 85.3653 65.1193 84.218C64.9927 84.1721 64.9746 84.1262 65.0288 84.0069C66.1867 81.4552 67.7065 79.1513 69.6332 77.1228C71.9671 74.6537 74.708 72.7629 77.6932 71.2116C80.5246 69.7339 83.4916 68.5957 86.4949 67.5401C86.6234 67.4912 86.6735 67.5509 86.7337 67.6227C86.7413 67.6317 86.7491 67.641 86.7572 67.6503C88.1684 69.6145 89.462 71.6614 90.5927 73.8184C91.9406 76.4068 93.017 79.0962 93.7136 81.9416C94.2382 84.2455 94.5458 86.5678 94.5367 88.4219ZM81.8815 85.2827C84.342 85.3103 86.3592 83.3276 86.4135 80.8494C86.4768 78.1875 84.3962 76.2049 81.9538 76.159C79.9004 76.1223 77.2318 77.802 77.4399 81.1339C77.5665 83.2175 79.3124 85.246 81.8815 85.2827ZM86.4135 96.7195C86.4135 94.1953 84.4324 92.1485 81.981 92.1485C79.4391 92.1485 77.4128 94.1678 77.4218 96.7103C77.4309 99.2253 79.4481 101.272 81.9267 101.272C84.4053 101.272 86.4135 99.2345 86.4135 96.7195Z" fill="#0E1B47"/>
<defs>
<linearGradient id="paint0_linear_1085_60438" x1="0.144559" y1="0.145541" x2="219.855" y2="219.856" gradientUnits="userSpaceOnUse">
<stop stop-color="white"/>
<stop offset="1" stop-color="white" stop-opacity="0"/>
</linearGradient>
<linearGradient id="paint1_linear_1085_60438" x1="43.5364" y1="43.5266" x2="176.477" y2="176.467" gradientUnits="userSpaceOnUse">
<stop stop-color="white"/>
<stop offset="0.5571" stop-color="#E3E3E3"/>
<stop offset="1" stop-color="#D1D1D1"/>
</linearGradient>
<linearGradient id="paint2_linear_1085_60438" x1="44.2421" y1="44.239" x2="175.757" y2="175.754" gradientUnits="userSpaceOnUse">
<stop stop-color="#E5E5E5"/>
<stop offset="0.0785683" stop-color="#E8E8E8"/>
<stop offset="0.6051" stop-color="#F9F9F9"/>
<stop offset="1" stop-color="white"/>
</linearGradient>
</defs>
</svg>
