<svg xmlns="http://www.w3.org/2000/svg" width="191" height="191" viewBox="0 0 191 191" fill="none">
    <path
        d="M0.912109 129.851C2.16509 126.987 3.47774 124.153 4.82022 121.318C6.90853 117.022 9.08634 112.816 11.4133 108.639C18.8119 95.3041 27.4336 82.6847 37.0995 70.9604C45.9002 60.2802 55.5959 50.316 66.0672 41.1871C66.8131 40.5308 67.5589 39.9043 68.3047 39.2778C68.7224 38.9198 69.14 38.5618 69.5577 38.2038C70.572 37.3685 71.5863 36.5332 72.6006 35.6978C89.9634 21.6465 109.206 9.89236 129.79 0.882812L153.985 59.2957C155.178 62.1298 158.042 63.7408 160.966 63.4127C161.592 63.353 162.219 63.2038 162.815 62.9353C164.635 62.1895 166.127 60.3995 166.843 58.1322C168.156 53.9854 171.676 50.8828 176.181 50.1967C180.775 49.5105 185.429 51.748 187.756 55.8053C191.306 61.9508 188.561 69.5881 182.207 72.2134C179.045 73.526 175.524 73.3769 172.481 71.7957C170.393 70.6919 168.036 70.5129 166.246 71.2587C165.62 71.4974 165.083 71.8554 164.605 72.2432C162.338 74.063 161.443 77.2551 162.607 80.0893L190.053 146.378C181.282 150.555 173.436 155.954 166.664 162.309C166.515 162.458 166.366 162.607 166.187 162.756C165.799 163.144 165.381 163.502 164.993 163.89C164.605 164.278 164.218 164.666 163.83 165.053C163.651 165.232 163.472 165.411 163.293 165.62C162.965 165.948 162.636 166.306 162.308 166.635C162.07 166.873 161.861 167.112 161.622 167.38C161.354 167.679 161.085 167.947 160.817 168.246C160.578 168.514 160.339 168.783 160.101 169.051C159.623 169.588 159.146 170.125 158.699 170.692C154.999 175.137 151.747 179.91 148.943 184.952C148.436 185.877 147.929 186.832 147.422 187.816C147.272 188.144 147.093 188.442 146.944 188.771C146.706 189.218 146.497 189.666 146.288 190.113L89.6353 166.635C88.1436 166.008 87.726 164.069 88.8894 162.935C90.8882 160.966 92.4694 158.58 93.603 155.925C95.8107 150.585 95.7808 144.707 93.4539 139.367C91.1567 134.057 86.8906 130 81.461 127.941C71.9443 124.361 61.2045 128.061 55.924 136.712C55.3572 137.667 54.8501 138.651 54.4324 139.695C53.3286 142.351 52.7916 145.155 52.7916 147.989C52.7916 149.6 51.1209 150.704 49.6293 150.077L0.912109 129.851Z"
        fill="#85CBCF" />
</svg>