<svg xmlns="http://www.w3.org/2000/svg" width="191" height="191" viewBox="0 0 191 191" fill="none">
    <path
        d="M190.087 61.1492C188.834 64.0132 187.521 66.8474 186.179 69.6815C184.091 73.9774 181.913 78.1839 179.586 82.3605C172.187 95.6958 163.566 108.315 153.9 120.039C145.099 130.72 135.403 140.684 124.932 149.813C124.186 150.469 123.44 151.096 122.694 151.722C122.277 152.08 121.859 152.438 121.442 152.796C120.427 153.631 119.413 154.467 118.399 155.302C101.036 169.353 81.7935 181.107 61.2088 190.117L37.0143 131.704C35.821 128.87 32.957 127.259 30.0334 127.587C29.4069 127.647 28.7804 127.796 28.1837 128.065C26.3639 128.81 24.8723 130.6 24.1563 132.868C22.8436 137.014 19.3234 140.117 14.8186 140.803C10.2243 141.489 5.57038 139.252 3.24341 135.195C-0.306709 129.049 2.43793 121.412 8.79235 118.786C11.9546 117.474 15.4749 117.623 18.5179 119.204C20.6062 120.308 22.963 120.487 24.7529 119.741C25.3794 119.502 25.9164 119.145 26.3938 118.757C28.6611 116.937 29.5561 113.745 28.3926 110.911L0.946289 44.6218C9.71717 40.4452 17.5632 35.0454 24.3353 28.691C24.4845 28.5419 24.6336 28.3927 24.8126 28.2435C25.2005 27.8557 25.6181 27.4977 26.006 27.1099C26.3938 26.722 26.7816 26.3342 27.1694 25.9464C27.3484 25.7674 27.5274 25.5884 27.7064 25.3796C28.0346 25.0514 28.3628 24.6934 28.6909 24.3652C28.9296 24.1266 29.1384 23.8879 29.3771 23.6194C29.6456 23.3211 29.9141 23.0526 30.1826 22.7543C30.4212 22.4858 30.6599 22.2173 30.8986 21.9488C31.3759 21.4118 31.8532 20.8748 32.3007 20.308C36 15.8629 39.2518 11.0896 42.0561 6.04781C42.5632 5.12299 43.0704 4.16835 43.5776 3.18386C43.7267 2.8557 43.9057 2.55736 44.0549 2.2292C44.2935 1.78171 44.5024 1.33421 44.7112 0.886719L101.364 24.3652C102.856 24.9917 103.273 26.9309 102.11 28.0645C100.111 30.0335 98.5298 32.4201 97.3961 35.0753C95.1885 40.4154 95.2183 46.2925 97.5453 51.6326C99.8424 56.9428 104.109 61.0001 109.538 63.0586C119.055 66.6385 129.795 62.9392 135.075 54.2877C135.642 53.333 136.149 52.3485 136.567 51.3044C137.671 48.6492 138.208 45.845 138.208 43.0108C138.208 41.3999 139.878 40.296 141.37 40.9225L190.087 61.1492Z"
        fill="#289DC7" />
</svg>