<svg xmlns="http://www.w3.org/2000/svg" width="163" height="185" viewBox="0 0 163 185" fill="none">
    <path
        d="M17.2136 184.837C16.0799 181.914 15.0059 178.99 13.9618 176.037C12.3806 171.532 10.9785 166.997 9.66582 162.403C5.48921 147.725 2.65508 132.719 1.19326 117.564C-0.179051 103.811 -0.358049 89.9089 0.596605 76.0664C0.656271 75.0819 0.745769 74.0974 0.805435 73.1428C0.865101 72.6058 0.894934 72.039 0.9546 71.502C1.07393 70.1893 1.19326 68.8767 1.34243 67.564C3.6694 45.3385 8.97966 23.4411 17.1539 2.49839L75.5668 26.6929C78.4009 27.8564 81.593 26.9614 83.4128 24.6941C83.8007 24.2168 84.1288 23.6499 84.3973 23.0533C85.1431 21.2335 84.9343 18.9065 83.8603 16.8182C81.8615 12.9697 82.1599 8.25614 84.8448 4.61652C87.6193 0.85757 92.482 -0.813078 96.9868 0.38024C103.819 2.22988 107.309 9.56878 104.684 15.8934C103.371 19.0557 100.776 21.4423 97.5238 22.4566C95.2565 23.1726 93.4665 24.6642 92.7207 26.4841C92.482 27.1105 92.3031 27.737 92.2434 28.3337C91.9451 31.2275 93.5262 34.1213 96.3603 35.2848L162.649 62.7311C159.397 71.8898 157.667 81.2573 157.369 90.5354C157.369 90.7442 157.339 90.953 157.339 91.1619C157.339 91.6989 157.309 92.2657 157.309 92.8027C157.309 93.3397 157.309 93.9065 157.309 94.4435C157.309 94.712 157.309 94.9507 157.309 95.2191C157.309 95.6965 157.339 96.144 157.339 96.6213C157.339 96.9495 157.369 97.2776 157.369 97.6058C157.369 97.9936 157.399 98.4113 157.428 98.7991C157.458 99.1571 157.488 99.5151 157.488 99.8731C157.518 100.589 157.577 101.305 157.667 102.021C158.204 107.779 159.278 113.477 160.859 118.996C161.157 120.04 161.486 121.054 161.814 122.099C161.933 122.427 162.023 122.785 162.142 123.113C162.291 123.59 162.44 124.068 162.619 124.545L105.967 148.023C104.475 148.65 102.804 147.546 102.804 145.935C102.834 143.131 102.267 140.327 101.163 137.671C98.9558 132.331 94.7494 128.185 89.3496 126.066C83.9498 123.918 78.0727 124.068 72.7923 126.454C63.5441 130.661 58.5322 140.864 60.9188 150.708C61.1873 151.782 61.5453 152.856 61.963 153.871C63.0668 156.526 64.6479 158.912 66.6766 160.881C67.84 162.015 67.4224 163.984 65.9307 164.581L17.2136 184.837Z"
        fill="#2371AD" />
</svg>