<svg xmlns="http://www.w3.org/2000/svg" width="191" height="191" viewBox="0 0 191 191" fill="none">
    <path
        d="M61.1492 0.912109C64.0132 2.16509 66.8474 3.47774 69.6815 4.82022C73.9774 6.90853 78.1839 9.08634 82.3605 11.4133C95.6958 18.8119 108.315 27.4336 120.039 37.0995C130.72 45.9002 140.684 55.5959 149.813 66.0672C150.469 66.8131 151.096 67.5589 151.722 68.3047C152.08 68.7224 152.438 69.14 152.796 69.5577C153.631 70.572 154.467 71.5863 155.302 72.6006C169.353 89.9634 181.107 109.206 190.117 129.79L131.704 153.985C128.87 155.178 127.259 158.042 127.587 160.966C127.647 161.592 127.796 162.219 128.065 162.815C128.81 164.635 130.6 166.127 132.868 166.843C137.014 168.156 140.117 171.676 140.803 176.181C141.489 180.775 139.252 185.429 135.195 187.756C129.049 191.306 121.412 188.561 118.786 182.207C117.474 179.045 117.623 175.524 119.204 172.481C120.308 170.393 120.487 168.036 119.741 166.246C119.502 165.62 119.145 165.083 118.757 164.605C116.937 162.338 113.745 161.443 110.911 162.607L44.6218 190.053C40.4452 181.282 35.0454 173.436 28.691 166.664C28.5419 166.515 28.3927 166.366 28.2435 166.187C27.8557 165.799 27.4977 165.381 27.1099 164.993C26.722 164.605 26.3342 164.218 25.9464 163.83C25.7674 163.651 25.5884 163.472 25.3796 163.293C25.0514 162.965 24.6934 162.636 24.3652 162.308C24.1266 162.07 23.8879 161.861 23.6194 161.622C23.3211 161.354 23.0526 161.085 22.7543 160.817C22.4858 160.578 22.2173 160.339 21.9488 160.101C21.4118 159.623 20.8748 159.146 20.308 158.699C15.8629 154.999 11.0896 151.747 6.04781 148.943C5.12299 148.436 4.16835 147.929 3.18386 147.422C2.8557 147.272 2.55736 147.093 2.2292 146.944C1.78171 146.706 1.33421 146.497 0.886719 146.288L24.3652 89.6353C24.9917 88.1436 26.9309 87.726 28.0645 88.8894C30.0335 90.8882 32.4201 92.4694 35.0753 93.603C40.4154 95.8107 46.2925 95.7808 51.6326 93.4539C56.9428 91.1567 61.0001 86.8906 63.0586 81.461C66.6385 71.9443 62.9392 61.2045 54.2877 55.924C53.333 55.3572 52.3485 54.8501 51.3044 54.4324C48.6492 53.3286 45.845 52.7916 43.0108 52.7916C41.3999 52.7916 40.296 51.1209 40.9225 49.6293L61.1492 0.912109Z"
        fill="#AFDCCC" />
</svg>